<?xml version="1.0" encoding="utf-8"?>
<!DOCTYPE svg PUBLIC "-//W3C//DTD SVG 1.1//EN" "http://www.w3.org/Graphics/SVG/1.1/DTD/svg11.dtd">
<svg version="1.1" id="RackspaceSolve" xmlns="http://www.w3.org/2000/svg" xmlns:xlink="http://www.w3.org/1999/xlink" x="0px" y="0px"
	 width="280px" height="50px" viewBox="0 0 280 50" enable-background="new 0 0 280 50" xml:space="preserve">
<path fill="#FFFFFF" d="M66.288,27.801c3.104-0.629,4.879-2.592,4.879-5.412v-0.052c0-1.446-0.514-2.757-1.447-3.691
	c-1.201-1.2-3.078-1.86-5.283-1.86h-7.982v18.525h2.299v-7.107h5.051l5.27,7.061l0.035,0.047h2.828L66.288,27.801z M58.752,18.925
	h5.527c2.855,0,4.561,1.304,4.561,3.49v0.052c0,2.217-1.803,3.646-4.588,3.646h-5.5V18.925z M83.168,22.908
	c-1.012-1.013-2.51-1.523-4.449-1.523c-2.18,0-3.732,0.572-4.963,1.132l-0.096,0.046l0.68,1.864l0.113-0.05
	c1.115-0.512,2.377-0.983,4.057-0.983c2.518,0,3.908,1.268,3.908,3.568v0.314c-1.031-0.283-2.248-0.537-4.039-0.537
	c-3.689,0-5.891,1.676-5.891,4.482v0.053c0,2.838,2.594,4.324,5.16,4.324c2.408,0,3.9-1.094,4.77-2.113v1.824h2.168v-8.375
	C84.586,25.203,84.108,23.85,83.168,22.908z M82.444,29.01v1.221c0,2.018-1.893,3.541-4.404,3.541c-1.58,0-3.279-0.805-3.279-2.574
	v-0.053c0-1.68,1.43-2.68,3.83-2.68C79.887,28.465,81.151,28.643,82.444,29.01z M99.512,32.887l-0.074,0.086
	c-1.107,1.234-2.744,2.652-5.602,2.652c-3.883,0-7.043-3.195-7.043-7.123v-0.049c0-3.955,3.16-7.174,7.043-7.174
	c2.836,0,4.426,1.305,5.496,2.441l0.074,0.08l-1.494,1.58l-0.082-0.088c-0.992-1.043-2.166-2.003-4.02-2.003
	c-2.646,0-4.719,2.244-4.719,5.111v0.053c0,2.881,2.129,5.135,4.85,5.135c1.48,0,2.805-0.646,4.043-1.975l0.08-0.086L99.512,32.887z
	 M113.717,35.311h-2.697l-0.035-0.045l-4.754-6.193l-2.619,2.645v3.594h-2.244V16h2.244v13l7.127-7.434h2.836l-5.795,5.928
	L113.717,35.311z M124.563,31.352v0.053c0,2.492-1.977,4.168-4.924,4.168c-1.965,0-4.135-0.77-5.666-2.012l-0.086-0.07l1.152-1.623
	l0.098,0.072c1.484,1.113,3.076,1.701,4.607,1.701c1.602,0,2.68-0.814,2.68-2.027v-0.051c0-1.248-1.424-1.746-3.285-2.268
	c-1.924-0.545-4.555-1.293-4.555-3.928v-0.053c0-2.344,1.938-3.982,4.715-3.982c1.652,0,3.494,0.563,4.926,1.508l0.094,0.062
	l-1.037,1.715l-0.1-0.064c-1.283-0.831-2.682-1.289-3.936-1.289c-1.469,0-2.496,0.756-2.496,1.842v0.053
	c0,1.184,1.625,1.676,3.344,2.201l0.051,0.014C122.379,28.045,124.563,28.904,124.563,31.352z M134.393,21.279
	c-2.045,0-3.703,0.902-5.061,2.754v-2.467h-2.244v17.928h2.244v-6.525c1.312,1.746,3.014,2.631,5.061,2.631
	c1.678,0,3.332-0.691,4.535-1.895c0.93-0.928,2.037-2.594,2.037-5.252V28.4C140.965,23.774,137.579,21.279,134.393,21.279z
	 M138.667,28.426v0.053c0,2.994-1.908,5.084-4.641,5.084c-2.344,0-4.77-1.91-4.77-5.109V28.4c0-2.445,1.824-5.084,4.77-5.084
	C136.715,23.316,138.667,25.465,138.667,28.426z M152.938,22.908c-1.012-1.013-2.508-1.523-4.447-1.523
	c-2.18,0-3.73,0.572-4.961,1.132l-0.1,0.046l0.682,1.864l0.115-0.05c1.115-0.512,2.375-0.983,4.053-0.983
	c2.521,0,3.91,1.268,3.91,3.568v0.314c-1.033-0.283-2.246-0.537-4.039-0.537c-3.689,0-5.893,1.676-5.893,4.482v0.053
	c0,2.838,2.596,4.324,5.16,4.324c2.408,0,3.902-1.094,4.771-2.113v1.824h2.168v-8.375C154.357,25.203,153.879,23.85,152.938,22.908z
	 M152.215,29.01v1.221c0,2.018-1.895,3.541-4.404,3.541c-1.58,0-3.281-0.805-3.281-2.574v-0.053c0-1.68,1.432-2.68,3.83-2.68
	C149.658,28.465,150.922,28.643,152.215,29.01z M169.285,32.887l-0.076,0.086c-1.107,1.234-2.744,2.652-5.602,2.652
	c-3.883,0-7.043-3.195-7.043-7.123v-0.049c0-3.955,3.16-7.174,7.043-7.174c2.834,0,4.426,1.305,5.494,2.441l0.076,0.08l-1.492,1.58
	l-0.086-0.088c-0.99-1.043-2.164-2.003-4.02-2.003c-2.645,0-4.717,2.244-4.717,5.111v0.053c0,2.881,2.131,5.135,4.848,5.135
	c1.484,0,2.807-0.646,4.045-1.975l0.08-0.086L169.285,32.887z M176.852,21.279c-3.699,0-6.598,3.139-6.598,7.146v0.053
	c0,4.074,2.949,7.146,6.859,7.146c2.314,0,4.059-0.795,5.654-2.574l0.078-0.088l-1.426-1.275l-0.078,0.082
	c-1.219,1.277-2.547,1.871-4.176,1.871c-2.475,0-4.318-1.738-4.627-4.34h10.691l0.01-0.104c0.027-0.242,0.027-0.402,0.027-0.666
	C183.268,24.192,180.689,21.279,176.852,21.279z M176.801,23.212c2.756,0,3.963,2.229,4.184,4.366h-8.445
	C172.844,24.998,174.582,23.212,176.801,23.212z M198.957,35.311c-1.326,0-2.408-1.078-2.408-2.406c0-1.326,1.082-2.406,2.408-2.406
	s2.408,1.08,2.408,2.406C201.365,34.232,200.283,35.311,198.957,35.311z M198.957,25.883c-1.326,0-2.408-1.08-2.408-2.406
	s1.082-2.406,2.408-2.406s2.408,1.08,2.408,2.406S200.283,25.883,198.957,25.883z M190.307,35.311c-1.326,0-2.406-1.078-2.406-2.406
	c0-1.326,1.08-2.406,2.406-2.406s2.406,1.08,2.406,2.406C192.713,34.232,191.633,35.311,190.307,35.311z M190.307,25.883
	c-1.326,0-2.406-1.08-2.406-2.406s1.08-2.406,2.406-2.406s2.406,1.08,2.406,2.406S191.633,25.883,190.307,25.883z M220.09,29.732
	v0.053c0,3.57-2.619,5.787-6.834,5.787c-2.92,0-5.705-1.049-7.84-2.955l-0.086-0.076l0.072-0.086l2.455-2.939l0.088,0.074
	c1.812,1.498,3.525,2.195,5.387,2.195c1.582,0,2.523-0.602,2.523-1.609v-0.051c0-0.912-0.498-1.42-3.596-2.213
	c-3.486-0.891-6.15-1.875-6.15-5.707v-0.051c0-3.316,2.68-5.631,6.52-5.631c2.613,0,4.922,0.79,6.867,2.35l0.086,0.071l-2.221,3.215
	l-0.096-0.067c-1.729-1.199-3.262-1.782-4.689-1.782c-1.359,0-2.236,0.581-2.236,1.478v0.053c0,1.083,0.65,1.469,3.857,2.292
	C217.734,25.053,220.09,26.357,220.09,29.732z M229.418,20.809c-4.33,0-7.721,3.254-7.721,7.408v0.051
	c0,4.125,3.369,7.357,7.668,7.357c4.33,0,7.723-3.254,7.723-7.408v-0.053C237.088,24.04,233.719,20.809,229.418,20.809z
	 M225.852,28.164c0-2.178,1.445-3.698,3.514-3.698c2.035,0,3.57,1.612,3.57,3.751v0.051c0,2.18-1.447,3.699-3.518,3.699
	c-2.033,0-3.566-1.611-3.566-3.75V28.164z M239.201,16h4.207v19.311h-4.207V16L239.201,16z M241.305,25.655 M260.047,21.07
	l-0.062,0.158l-5.543,14.188h-3.766l-0.029-0.074L245.07,21.07h4.461l3.055,9.133l3.078-9.133H260.047z M267.092,20.809
	c-4.014,0-7.041,3.184-7.041,7.408v0.051c0,4.262,3.127,7.357,7.434,7.357c2.438,0,4.395-0.895,5.816-2.658l0.068-0.086
	l-2.438-2.156l-0.076,0.072c-1.09,1.012-2.02,1.406-3.318,1.406c-1.713,0-2.871-0.889-3.277-2.512h9.709l0.01-0.107
	c0.029-0.41,0.053-0.748,0.053-1.053C274.031,24.967,272.215,20.809,267.092,20.809z M267.092,24.23c1.502,0,2.547,1.023,2.82,2.744
	h-5.711C264.549,25.229,265.596,24.23,267.092,24.23z M275.396,33.127h-0.953V32.83h2.234v0.297h-0.955v2.258h-0.326V33.127z
	 M277.277,32.83h0.326l1.035,1.553l1.035-1.553H280v2.555h-0.32v-2.014l-1.037,1.523h-0.016l-1.037-1.52v2.01h-0.312V32.83z
	 M3,41.707V4h37.707L3,41.707z M31,8v4.293L35.293,8H31z M10,23v5h5.293l2-2H12v-1h6.293l2-2H10z M21,22v-5H6v-1V7h1v9h20.293l2-2
	H12v-1V8V7h13v1H13v5h17V8V7h6.293l2-2H28v5v1H15v-1h12V5H10v9H9V5H4v34.293L8.293,35H4v-1h5.293l2-2H6v-1V20v-1h13v1H7v11h5.293
	l2-2H9v-1v-5v-1H21z M22,17v4.293L26.293,17H22z M46,9.293V47H8.293L46,9.293z M18,43v-4.293L13.708,43H18z M39,28v-5h-5.293l-2,2
	H37v1h-6.293l-2,2H39z M28,29v5h15v1v9h-1v-9H21.708l-2,2H37v1v5v1H24v-1h12v-5H19v5v1h-6.293l-2,2H21v-5v-1h13v1H22v5h17v-9h1v9h5
	V11.707L40.708,16H45v1h-5.293l-2,2H43v1v11v1H30v-1h12V20h-5.293l-2,2H40v1v5v1H28z M27,34v-4.293L22.708,34H27z M0,47
	c0-1.656,1.342-3,3-3c0.463,0,0.9,0.105,1.293,0.293L46.586,2H42V0h8v8h-2V3.415L5.708,45.707C5.895,46.099,6,46.537,6,47
	c0,1.657-1.344,3-3,3C1.342,50,0,48.657,0,47z"/>
</svg>
