<?xml version="1.0" encoding="utf-8"?>
<!-- Generator: Adobe Illustrator 18.1.1, SVG Export Plug-In . SVG Version: 6.00 Build 0)  -->
<svg version="1.1" xmlns="http://www.w3.org/2000/svg" xmlns:xlink="http://www.w3.org/1999/xlink" x="0px" y="0px"
	 viewBox="0 0 1600 800" enable-background="new 0 0 1600 800" xml:space="preserve">
<g id="Layer_2">
	<rect x="0" fill-rule="evenodd" clip-rule="evenodd" fill="#BE1E2D" width="1600" height="800"/>
</g>
<g id="Layer_3">
	<rect y="7.1" opacity="0.4" fill-rule="evenodd" clip-rule="evenodd" fill="#ED1C24" width="1600" height="5.9"/>
	<rect y="22.1" opacity="0.4" fill-rule="evenodd" clip-rule="evenodd" fill="#ED1C24" width="1600" height="5.9"/>
	<rect y="37.1" opacity="0.4" fill-rule="evenodd" clip-rule="evenodd" fill="#ED1C24" width="1600" height="5.9"/>
	<rect y="52.1" opacity="0.4" fill-rule="evenodd" clip-rule="evenodd" fill="#ED1C24" width="1600" height="5.9"/>
	<rect y="67.1" opacity="0.4" fill-rule="evenodd" clip-rule="evenodd" fill="#ED1C24" width="1600" height="5.9"/>
	<rect y="82.1" opacity="0.4" fill-rule="evenodd" clip-rule="evenodd" fill="#ED1C24" width="1600" height="5.9"/>
	<rect y="97.1" opacity="0.4" fill-rule="evenodd" clip-rule="evenodd" fill="#ED1C24" width="1600" height="5.9"/>
	<rect y="112.1" opacity="0.4" fill-rule="evenodd" clip-rule="evenodd" fill="#ED1C24" width="1600" height="5.9"/>
	<rect y="127.1" opacity="0.4" fill-rule="evenodd" clip-rule="evenodd" fill="#ED1C24" width="1600" height="5.9"/>
	<rect y="142.1" opacity="0.4" fill-rule="evenodd" clip-rule="evenodd" fill="#ED1C24" width="1600" height="5.9"/>
	<rect y="157.1" opacity="0.4" fill-rule="evenodd" clip-rule="evenodd" fill="#ED1C24" width="1600" height="5.9"/>
	<rect y="172.1" opacity="0.4" fill-rule="evenodd" clip-rule="evenodd" fill="#ED1C24" width="1600" height="5.9"/>
	<rect y="187.1" opacity="0.4" fill-rule="evenodd" clip-rule="evenodd" fill="#ED1C24" width="1600" height="5.9"/>
	<rect y="202.1" opacity="0.4" fill-rule="evenodd" clip-rule="evenodd" fill="#ED1C24" width="1600" height="5.9"/>
	<rect y="217.1" opacity="0.4" fill-rule="evenodd" clip-rule="evenodd" fill="#ED1C24" width="1600" height="5.9"/>
	<rect y="232.1" opacity="0.4" fill-rule="evenodd" clip-rule="evenodd" fill="#ED1C24" width="1600" height="5.9"/>
	<rect y="247.1" opacity="0.4" fill-rule="evenodd" clip-rule="evenodd" fill="#ED1C24" width="1600" height="5.9"/>
	<rect y="262.1" opacity="0.4" fill-rule="evenodd" clip-rule="evenodd" fill="#ED1C24" width="1600" height="5.9"/>
	<rect y="277.1" opacity="0.4" fill-rule="evenodd" clip-rule="evenodd" fill="#ED1C24" width="1600" height="5.9"/>
	<rect y="292.1" opacity="0.4" fill-rule="evenodd" clip-rule="evenodd" fill="#ED1C24" width="1600" height="5.9"/>
	<rect y="307.1" opacity="0.4" fill-rule="evenodd" clip-rule="evenodd" fill="#ED1C24" width="1600" height="5.9"/>
	<rect y="322.1" opacity="0.4" fill-rule="evenodd" clip-rule="evenodd" fill="#ED1C24" width="1600" height="5.9"/>
	<rect y="337.1" opacity="0.4" fill-rule="evenodd" clip-rule="evenodd" fill="#ED1C24" width="1600" height="5.9"/>
	<rect y="352.1" opacity="0.4" fill-rule="evenodd" clip-rule="evenodd" fill="#ED1C24" width="1600" height="5.9"/>
	<rect y="367.1" opacity="0.4" fill-rule="evenodd" clip-rule="evenodd" fill="#ED1C24" width="1600" height="5.9"/>
	<rect y="382.1" opacity="0.4" fill-rule="evenodd" clip-rule="evenodd" fill="#ED1C24" width="1600" height="5.9"/>
	<rect y="397.1" opacity="0.4" fill-rule="evenodd" clip-rule="evenodd" fill="#ED1C24" width="1600" height="5.9"/>
	<rect y="412.1" opacity="0.4" fill-rule="evenodd" clip-rule="evenodd" fill="#ED1C24" width="1600" height="5.9"/>
	<rect y="427.1" opacity="0.4" fill-rule="evenodd" clip-rule="evenodd" fill="#ED1C24" width="1600" height="5.9"/>
	<rect y="442.1" opacity="0.4" fill-rule="evenodd" clip-rule="evenodd" fill="#ED1C24" width="1600" height="5.9"/>
	<rect y="457.1" opacity="0.4" fill-rule="evenodd" clip-rule="evenodd" fill="#ED1C24" width="1600" height="5.9"/>
	<rect y="472.1" opacity="0.4" fill-rule="evenodd" clip-rule="evenodd" fill="#ED1C24" width="1600" height="5.9"/>
	<rect y="487.1" opacity="0.4" fill-rule="evenodd" clip-rule="evenodd" fill="#ED1C24" width="1600" height="5.9"/>
	<rect y="502.1" opacity="0.4" fill-rule="evenodd" clip-rule="evenodd" fill="#ED1C24" width="1600" height="5.9"/>
	<rect y="517.1" opacity="0.4" fill-rule="evenodd" clip-rule="evenodd" fill="#ED1C24" width="1600" height="5.9"/>
	<rect y="532.1" opacity="0.4" fill-rule="evenodd" clip-rule="evenodd" fill="#ED1C24" width="1600" height="5.9"/>
	<rect y="547.1" opacity="0.4" fill-rule="evenodd" clip-rule="evenodd" fill="#ED1C24" width="1600" height="5.9"/>
	<rect y="562.1" opacity="0.4" fill-rule="evenodd" clip-rule="evenodd" fill="#ED1C24" width="1600" height="5.9"/>
	<rect y="577.1" opacity="0.4" fill-rule="evenodd" clip-rule="evenodd" fill="#ED1C24" width="1600" height="5.9"/>
	<rect y="592.1" opacity="0.4" fill-rule="evenodd" clip-rule="evenodd" fill="#ED1C24" width="1600" height="5.9"/>
	<rect y="607.1" opacity="0.4" fill-rule="evenodd" clip-rule="evenodd" fill="#ED1C24" width="1600" height="5.9"/>
	<rect y="622.1" opacity="0.4" fill-rule="evenodd" clip-rule="evenodd" fill="#ED1C24" width="1600" height="5.9"/>
	<rect y="637.1" opacity="0.4" fill-rule="evenodd" clip-rule="evenodd" fill="#ED1C24" width="1600" height="5.9"/>
	<rect y="652.1" opacity="0.4" fill-rule="evenodd" clip-rule="evenodd" fill="#ED1C24" width="1600" height="5.9"/>
	<rect y="667.1" opacity="0.4" fill-rule="evenodd" clip-rule="evenodd" fill="#ED1C24" width="1600" height="5.9"/>
	<rect y="682.1" opacity="0.4" fill-rule="evenodd" clip-rule="evenodd" fill="#ED1C24" width="1600" height="5.9"/>
	<rect y="697.1" opacity="0.4" fill-rule="evenodd" clip-rule="evenodd" fill="#ED1C24" width="1600" height="5.9"/>
	<rect y="712.1" opacity="0.4" fill-rule="evenodd" clip-rule="evenodd" fill="#ED1C24" width="1600" height="5.9"/>
	<rect y="727.1" opacity="0.4" fill-rule="evenodd" clip-rule="evenodd" fill="#ED1C24" width="1600" height="5.9"/>
	<rect y="742.1" opacity="0.4" fill-rule="evenodd" clip-rule="evenodd" fill="#ED1C24" width="1600" height="5.9"/>
	<rect y="757.1" opacity="0.4" fill-rule="evenodd" clip-rule="evenodd" fill="#ED1C24" width="1600" height="5.9"/>
	<rect y="772.1" opacity="0.4" fill-rule="evenodd" clip-rule="evenodd" fill="#ED1C24" width="1600" height="5.9"/>
	<rect y="787.1" opacity="0.4" fill-rule="evenodd" clip-rule="evenodd" fill="#ED1C24" width="1600" height="5.9"/>
</g>
<g id="Layer_1">
	<g>
		<g>
			<rect x="758.7" y="320.9" fill="#FFFFFF" width="91.2" height="37.9"/>
			<path fill="#FFFFFF" d="M867.4,334.1v-4.3h-12.6v59.1c0,25.3-22.7,45.9-50.5,45.9c-27.8,0-50.5-20.6-50.5-45.9v-59.1h-12.6v4.3
				H738v11.3h3.2v43.5c0,29.7,25,54.2,56.8,57.1v85.7h-20.4v3.2h-7.9v7.3H839v-7.3h-7.9v-3.2h-20.4V446
				c31.8-2.9,56.8-27.4,56.8-57.1v-43.5h3.2v-11.3H867.4z"/>
			<path fill="#FFFFFF" d="M847,308.7c-0.1,0-0.2,0-0.3,0c-2.4,0-4.4-1.8-4.4-4c0-2.2,2-4,4.4-4c0.1,0,0.2,0,0.3,0v-5.2
				c-0.1,0-0.2,0-0.3,0c-2.4,0-4.4-1.8-4.4-4c0-2.2,2-4,4.4-4c0.1,0,0.2,0,0.3,0c0-1.8-0.2-3.5-0.6-5.2c-2.3-0.1-4.1-1.8-4.1-4
				c0-1.3,0.7-2.4,1.7-3.1c-4.7-9.9-14.7-18.2-27.2-21.6c-0.7,1.5-2.2,2.5-4.1,2.5c-2.4,0-4.4-1.8-4.4-4c-1.3-0.1-2.7-0.2-4.1-0.2
				c-1.4,0-2.7,0.1-4.1,0.2c0,2.2-2,4-4.4,4c-1.8,0-3.4-1-4.1-2.5c-12.4,3.4-22.5,11.7-27.2,21.6c1,0.7,1.7,1.9,1.7,3.1
				c0,2.1-1.8,3.8-4.1,4c-0.3,1.7-0.5,3.5-0.6,5.2c0.1,0,0.2,0,0.3,0c2.4,0,4.4,1.8,4.4,4c0,2.2-2,4-4.4,4c-0.1,0-0.2,0-0.3,0v5.2
				c0.1,0,0.2,0,0.3,0c2.4,0,4.4,1.8,4.4,4c0,2.2-2,4-4.4,4c-0.1,0-0.2,0-0.3,0v5.3H847V308.7z M778.9,308.8c-2.4,0-4.4-1.8-4.4-4
				c0-2.2,2-4,4.4-4c2.4,0,4.4,1.8,4.4,4C783.3,307,781.3,308.8,778.9,308.8z M778.9,295.6c-2.4,0-4.4-1.8-4.4-4c0-2.2,2-4,4.4-4
				c2.4,0,4.4,1.8,4.4,4C783.3,293.8,781.3,295.6,778.9,295.6z M778.9,282.5c-2.4,0-4.4-1.8-4.4-4c0-2.2,2-4,4.4-4
				c2.4,0,4.4,1.8,4.4,4C783.3,280.7,781.3,282.5,778.9,282.5z M778.9,269.3c-2.4,0-4.4-1.8-4.4-4c0-2.2,2-4,4.4-4
				c2.4,0,4.4,1.8,4.4,4C783.3,267.5,781.3,269.3,778.9,269.3z M795.8,308.8c-2.4,0-4.4-1.8-4.4-4c0-2.2,2-4,4.4-4
				c2.4,0,4.4,1.8,4.4,4C800.2,307,798.3,308.8,795.8,308.8z M795.8,295.6c-2.4,0-4.4-1.8-4.4-4c0-2.2,2-4,4.4-4
				c2.4,0,4.4,1.8,4.4,4C800.2,293.8,798.3,295.6,795.8,295.6z M795.8,282.5c-2.4,0-4.4-1.8-4.4-4c0-2.2,2-4,4.4-4
				c2.4,0,4.4,1.8,4.4,4C800.2,280.7,798.3,282.5,795.8,282.5z M795.8,269.3c-2.4,0-4.4-1.8-4.4-4c0-2.2,2-4,4.4-4
				c2.4,0,4.4,1.8,4.4,4C800.2,267.5,798.3,269.3,795.8,269.3z M812.8,308.8c-2.4,0-4.4-1.8-4.4-4c0-2.2,2-4,4.4-4
				c2.4,0,4.4,1.8,4.4,4C817.2,307,815.2,308.8,812.8,308.8z M812.8,295.6c-2.4,0-4.4-1.8-4.4-4c0-2.2,2-4,4.4-4
				c2.4,0,4.4,1.8,4.4,4C817.2,293.8,815.2,295.6,812.8,295.6z M812.8,282.5c-2.4,0-4.4-1.8-4.4-4c0-2.2,2-4,4.4-4
				c2.4,0,4.4,1.8,4.4,4C817.2,280.7,815.2,282.5,812.8,282.5z M812.8,269.3c-2.4,0-4.4-1.8-4.4-4c0-2.2,2-4,4.4-4
				c2.4,0,4.4,1.8,4.4,4C817.2,267.5,815.2,269.3,812.8,269.3z M829.7,308.8c-2.4,0-4.4-1.8-4.4-4c0-2.2,2-4,4.4-4
				c2.4,0,4.4,1.8,4.4,4C834.1,307,832.1,308.8,829.7,308.8z M829.7,295.6c-2.4,0-4.4-1.8-4.4-4c0-2.2,2-4,4.4-4
				c2.4,0,4.4,1.8,4.4,4C834.1,293.8,832.1,295.6,829.7,295.6z M829.7,282.5c-2.4,0-4.4-1.8-4.4-4c0-2.2,2-4,4.4-4
				c2.4,0,4.4,1.8,4.4,4C834.1,280.7,832.1,282.5,829.7,282.5z M829.7,269.3c-2.4,0-4.4-1.8-4.4-4c0-2.2,2-4,4.4-4
				c2.4,0,4.4,1.8,4.4,4C834.1,267.5,832.1,269.3,829.7,269.3z"/>
			<path fill="#FFFFFF" d="M846.7,370.9c0.1,0,0.2,0,0.3,0v-5.3h-85.3v5.3c0.1,0,0.2,0,0.3,0c2.4,0,4.4,1.8,4.4,4c0,2.2-2,4-4.4,4
				c-0.1,0-0.2,0-0.3,0v5.2c0.1,0,0.2,0,0.3,0c2.4,0,4.4,1.8,4.4,4c0,2.2-2,4-4.4,4c-0.1,0-0.2,0-0.3,0c0,1.8,0.2,3.5,0.6,5.2
				c2.3,0.1,4.1,1.8,4.1,4c0,1.3-0.7,2.4-1.7,3.1c4.7,9.9,14.7,18.2,27.2,21.6c0.7-1.5,2.2-2.5,4.1-2.5c2.4,0,4.4,1.8,4.4,4
				c1.3,0.1,2.7,0.2,4.1,0.2c1.4,0,2.7-0.1,4.1-0.2c0-2.2,2-4,4.4-4c1.8,0,3.4,1,4.1,2.5c12.4-3.4,22.5-11.7,27.2-21.6
				c-1-0.7-1.7-1.9-1.7-3.1c0-2.1,1.8-3.8,4.1-4c0.3-1.7,0.5-3.5,0.6-5.2c-0.1,0-0.2,0-0.3,0c-2.4,0-4.4-1.8-4.4-4c0-2.2,2-4,4.4-4
				c0.1,0,0.2,0,0.3,0v-5.2c-0.1,0-0.2,0-0.3,0c-2.4,0-4.4-1.8-4.4-4C842.3,372.7,844.2,370.9,846.7,370.9z M778.9,418.3
				c-2.4,0-4.4-1.8-4.4-4c0-2.2,2-4,4.4-4c2.4,0,4.4,1.8,4.4,4C783.3,416.5,781.3,418.3,778.9,418.3z M778.9,405.2
				c-2.4,0-4.4-1.8-4.4-4c0-2.2,2-4,4.4-4c2.4,0,4.4,1.8,4.4,4C783.3,403.4,781.3,405.2,778.9,405.2z M778.9,392
				c-2.4,0-4.4-1.8-4.4-4c0-2.2,2-4,4.4-4c2.4,0,4.4,1.8,4.4,4C783.3,390.2,781.3,392,778.9,392z M778.9,378.9c-2.4,0-4.4-1.8-4.4-4
				c0-2.2,2-4,4.4-4c2.4,0,4.4,1.8,4.4,4C783.3,377.1,781.3,378.9,778.9,378.9z M795.8,418.3c-2.4,0-4.4-1.8-4.4-4c0-2.2,2-4,4.4-4
				c2.4,0,4.4,1.8,4.4,4C800.2,416.5,798.3,418.3,795.8,418.3z M795.8,405.2c-2.4,0-4.4-1.8-4.4-4c0-2.2,2-4,4.4-4
				c2.4,0,4.4,1.8,4.4,4C800.2,403.4,798.3,405.2,795.8,405.2z M795.8,392c-2.4,0-4.4-1.8-4.4-4c0-2.2,2-4,4.4-4
				c2.4,0,4.4,1.8,4.4,4C800.2,390.2,798.3,392,795.8,392z M795.8,378.9c-2.4,0-4.4-1.8-4.4-4c0-2.2,2-4,4.4-4c2.4,0,4.4,1.8,4.4,4
				C800.2,377.1,798.3,378.9,795.8,378.9z M812.8,418.3c-2.4,0-4.4-1.8-4.4-4c0-2.2,2-4,4.4-4c2.4,0,4.4,1.8,4.4,4
				C817.2,416.5,815.2,418.3,812.8,418.3z M812.8,405.2c-2.4,0-4.4-1.8-4.4-4c0-2.2,2-4,4.4-4c2.4,0,4.4,1.8,4.4,4
				C817.2,403.4,815.2,405.2,812.8,405.2z M812.8,392c-2.4,0-4.4-1.8-4.4-4c0-2.2,2-4,4.4-4c2.4,0,4.4,1.8,4.4,4
				C817.2,390.2,815.2,392,812.8,392z M812.8,378.9c-2.4,0-4.4-1.8-4.4-4c0-2.2,2-4,4.4-4c2.4,0,4.4,1.8,4.4,4
				C817.2,377.1,815.2,378.9,812.8,378.9z M829.7,418.3c-2.4,0-4.4-1.8-4.4-4c0-2.2,2-4,4.4-4c2.4,0,4.4,1.8,4.4,4
				C834.1,416.5,832.1,418.3,829.7,418.3z M829.7,405.2c-2.4,0-4.4-1.8-4.4-4c0-2.2,2-4,4.4-4c2.4,0,4.4,1.8,4.4,4
				C834.1,403.4,832.1,405.2,829.7,405.2z M829.7,392c-2.4,0-4.4-1.8-4.4-4c0-2.2,2-4,4.4-4c2.4,0,4.4,1.8,4.4,4
				C834.1,390.2,832.1,392,829.7,392z M829.7,378.9c-2.4,0-4.4-1.8-4.4-4c0-2.2,2-4,4.4-4c2.4,0,4.4,1.8,4.4,4
				C834.1,377.1,832.1,378.9,829.7,378.9z"/>
		</g>
		<g>
			<path fill-rule="evenodd" clip-rule="evenodd" fill="#BE1E2D" d="M770.8,335.2c-0.3,0.7-0.2,1.3,0.3,1.3c0.5,0,1.2-0.6,1.6-1.3
				c0.3-0.7,0.2-1.3-0.3-1.3C771.8,333.9,771.1,334.4,770.8,335.2 M774.9,332.5C774.9,332.5,775,332.5,774.9,332.5
				C775,332.6,775,332.6,774.9,332.5c-0.3,0.9-0.8,1.9-1.3,2.6c-1.1,1.6-2.6,2.6-3.4,2.2c-0.8-0.4-0.6-1.9,0.4-3.5
				c0.2-0.4,0.5-0.7,0.8-1c0,0,0,0,0,0c0,0,0,0,0,0h0c-0.3,0-0.7,0.1-1,0.2c0,0,0,0,0,0c-3.6,4.4-5.1,10.1-4.9,15.2c0,0,0,0,0,0
				c0,0,0,0,0,0c-2.1-0.9-3.7-2.9-3.8-5.5l0,0c-0.3-4.6,3.4-9.3,8.2-10.5C771.7,331.8,773.5,331.9,774.9,332.5"/>
			<path fill="#BE1E2D" d="M773.6,344.9c-0.3,0.2-0.7,0.5-1.1,0.7c0,0,0,0,0,0c0,0,0,0,0,0c-0.1-1.1-0.3-2.2-0.7-3.1
				c-1.1-2.4-3-2.6-4.3-0.4c-0.8,1.3-1.1,3.2-1,5c0,0,0,0,0,0c1.3,0.4,2.9,0.5,4.5,0.1c4.8-1.2,8.4-5.9,8.2-10.5
				c-0.2-4-3.4-6.6-7.4-6.4c0,0,0,0,0,0c-0.4,0.4-0.8,0.8-1.1,1.2c0,0,0,0,0,0c0,0,0,0,0,0h0c2.4-0.3,4.2,0.2,5.5,1.2c0,0,0,0,0,0
				c0,0,0,0,0,0C771.9,338.7,772.4,342.1,773.6,344.9L773.6,344.9C773.6,344.9,773.6,344.9,773.6,344.9"/>
			<path fill="#BE1E2D" d="M813.1,338.1c1,0,1.7,0.2,2.1,0.4c0,0,0,0,0,0l-0.3,1.8c0,0,0,0,0,0c0,0,0,0,0,0
				c-0.4-0.2-1.1-0.5-1.9-0.5c-0.6,0-1,0.3-1,0.7c0,0.3,0.3,0.6,1,0.9c0.9,0.4,1.8,1.1,1.8,2.2c0,0.8-0.3,1.4-0.7,1.9
				c-0.7,0.7-1.7,1-3,1c-1,0-2-0.3-2.5-0.6c0,0,0,0,0,0l0.3-1.8c0,0,0,0,0,0c0,0,0,0,0,0c0.5,0.3,1.6,0.7,2.4,0.7c0.6,0,1-0.3,1-0.7
				c0-0.4-0.3-0.7-1-1c-1.2-0.6-1.7-1.3-1.7-2.2C809.5,339.3,811,338.1,813.1,338.1"/>
			<path fill="#BE1E2D" d="M786.6,338.1c0.1,0,0.3,0,0.5,0c0,0,0,0,0,0c0,0,0,0,0,0l-0.5,2.4c0,0,0,0,0,0c0,0,0,0,0,0
				c-0.1,0-0.2,0-0.4,0c-1.7,0-2.3,1.6-2.5,2.9l-0.6,3.1c0,0,0,0,0,0h-2.4c0,0,0,0,0,0c0,0,0,0,0,0l1.6-8.3c0,0,0,0,0,0h2.1
				c0,0,0,0,0,0c0,0,0,0,0,0l-0.3,1.4c0,0,0,0,0,0c0,0,0,0,0,0C784.7,338.7,785.6,338.1,786.6,338.1"/>
			<path fill="#BE1E2D" d="M789.8,340.4c-0.7,0.7-1.1,1.9-1.1,2.9c0,0.9,0.3,1.4,0.9,1.4c0.9,0,1.6-0.9,1.9-2.3
				c0.1-0.3,0.1-0.6,0.2-0.9c0-0.3,0.1-0.5,0.1-0.7c0-0.6-0.3-0.9-0.9-0.9C790.4,340,790.1,340.1,789.8,340.4 M790.7,346.5
				C790.7,346.5,790.7,346.5,790.7,346.5l0.2-1c0,0,0,0,0,0c0,0,0,0,0,0c-0.4,0.8-1.3,1.2-2.3,1.2c-1.6,0-2.3-1.4-2.3-2.9
				c0-1.6,0.6-3.2,1.7-4.3c0.9-0.9,2.1-1.4,3.4-1.4c1,0,1.7,0.3,2.2,0.8c0.7,0.8,0.6,2.1,0.5,2.9l-0.9,4.6c0,0,0,0,0,0L790.7,346.5
				C790.7,346.5,790.7,346.5,790.7,346.5"/>
			<path fill="#BE1E2D" d="M818.8,344.8c1.3,0,2.2-1.8,2.2-3.4c0-0.4-0.1-1.3-1-1.3c-0.9,0-1.7,1-2,2.6
				C818,343.2,817.7,344.8,818.8,344.8 M820.9,338.1c1.6,0,2.7,1.2,2.7,3.1c0,2-1,4-2.7,5c-1.6,0.8-3,0.5-3.4-0.2c0,0,0,0,0,0
				l-0.6,3.1c0,0,0,0,0,0h-2.4c0,0,0,0,0,0c0,0,0,0,0,0l2.1-10.9c0,0,0,0,0,0l2.1,0c0,0,0,0,0,0c0,0,0,0,0,0l-0.2,1.1c0,0,0,0,0,0
				c0,0,0,0,0,0l0,0C819.1,338.6,820,338.1,820.9,338.1"/>
			<path fill="#BE1E2D" d="M802.9,335.4h2.4c0,0,0,0,0,0c0,0,0,0,0,0L804,342c0,0,0,0,0,0c0,0,0,0,0,0l3.2-3.7c0,0,0,0,0,0h2.6
				c0,0,0,0,0,0c0,0,0,0,0,0c0,0,0,0,0,0l-3.3,3.8l2,4.4c0,0,0,0,0,0l0,0c0,0,0,0,0,0H806c0,0,0,0,0,0l-2-4.4c0,0,0,0,0,0
				c0,0,0,0,0,0l-0.8,4.4c0,0,0,0,0,0h-2.4c0,0,0,0,0,0c0,0,0,0,0,0L802.9,335.4C802.8,335.4,802.9,335.4,802.9,335.4"/>
			<path fill="#BE1E2D" d="M843.7,340.6c0-0.4-0.4-0.7-0.9-0.7c-1,0-1.7,0.8-1.9,1.6l0,0c0,0,0,0,0,0c0,0,0,0,0,0h0
				c1.4,0,2.2-0.1,2.5-0.5C843.7,340.9,843.7,340.8,843.7,340.6 M843.2,338.1c1.7,0,2.9,1,2.9,2.5c0,0.7-0.2,1.2-0.7,1.7
				c-0.8,0.8-2.3,1.1-4.6,1.1h0h0l0,0l0,0c0,0.2,0.1,0.6,0.2,0.8c0.3,0.4,0.9,0.6,1.6,0.6c1,0,1.9-0.2,2.8-0.8c0,0,0,0,0,0
				c0,0,0,0,0,0l-0.4,2c0,0,0,0,0,0c-1.2,0.6-2.5,0.7-3,0.7c-2.3,0-3.6-1.3-3.6-3.5c0-1.3,0.5-2.5,1.3-3.5
				C840.6,338.7,841.8,338.1,843.2,338.1"/>
			<path fill="#BE1E2D" d="M846,345.6c0,0.5,0.3,0.9,0.8,0.9c0.5,0,1-0.4,1-0.9c0-0.5-0.3-0.9-0.8-0.9
				C846.5,344.7,846.1,345.1,846,345.6 M845.9,345.6c0.1-0.6,0.6-1.1,1.2-1.1c0.6,0,1,0.5,1,1.1c-0.1,0.6-0.6,1.1-1.2,1.1
				C846.3,346.7,845.8,346.2,845.9,345.6 M846.7,345C846.7,345,846.7,345,846.7,345l0.3,0h0c0.1,0,0.1,0,0.1,0c0,0,0.1,0,0.1,0
				c0.1,0,0.2,0.2,0.2,0.3c0,0,0,0,0,0.1c0,0.2-0.1,0.3-0.3,0.4l0.2,0.5v0v0c0,0,0,0,0,0h-0.2c0,0,0,0,0,0l-0.2-0.5l-0.1,0h0h-0.1
				l-0.1,0.5c0,0,0,0,0,0h-0.1c0,0,0,0,0,0c0,0,0,0,0,0l0.1-0.5v0l0.1-0.4L846.7,345z M847,345.1h-0.1l0,0.2l0,0.2h0.1h0
				c0.1,0,0.1,0,0.1,0c0,0,0.1,0,0.1,0c0.1,0,0.2-0.1,0.2-0.2c0-0.1,0-0.2-0.1-0.2c0,0,0,0-0.1,0C847.1,345.2,847,345.2,847,345.1
				L847,345.1z"/>
			<path fill="#BE1E2D" d="M827.3,340.4c-0.7,0.7-1.1,1.9-1.1,2.9c0,0.9,0.3,1.4,0.9,1.4c0.9,0,1.6-0.9,1.9-2.3
				c0.1-0.3,0.1-0.6,0.2-0.9c0-0.3,0.1-0.5,0.1-0.7c0-0.6-0.3-0.9-0.9-0.9C828,340,827.6,340.1,827.3,340.4 M828.2,346.5
				C828.2,346.5,828.2,346.5,828.2,346.5l0.2-1c0,0,0,0,0,0c0,0,0,0,0,0c-0.4,0.8-1.3,1.2-2.3,1.2c-1.6,0-2.3-1.4-2.3-2.9
				c0-1.6,0.6-3.2,1.7-4.3c0.9-0.9,2.1-1.4,3.4-1.4c1,0,1.7,0.3,2.2,0.8c0.7,0.8,0.6,2.1,0.5,2.9l-0.9,4.6c0,0,0,0,0,0L828.2,346.5
				C828.2,346.5,828.2,346.5,828.2,346.5"/>
			<path fill="#BE1E2D" d="M837.2,338.1c0.6,0,1.2,0.1,1.7,0.3c0,0,0,0,0,0l-0.4,2c0,0,0,0,0,0c0,0,0,0,0,0
				c-0.4-0.2-0.8-0.3-1.3-0.3c-1.7,0-2.8,1.5-2.8,3c0,1.2,0.8,1.7,1.6,1.7c0.7,0,1.3-0.2,2-0.5c0,0,0,0,0,0c0,0,0,0,0,0l-0.4,2
				c0,0,0,0,0,0c-0.6,0.3-1.4,0.4-2.3,0.4c-2.1,0-3.5-1.3-3.5-3.4C831.8,340.4,834.1,338.1,837.2,338.1"/>
			<path fill="#BE1E2D" d="M799.6,338.1c0.6,0,1.2,0.1,1.7,0.3c0,0,0,0,0,0l-0.4,2c0,0,0,0,0,0c0,0,0,0,0,0
				c-0.4-0.2-0.8-0.3-1.3-0.3c-1.7,0-2.8,1.5-2.8,3c0,1.2,0.8,1.7,1.6,1.7c0.7,0,1.3-0.2,2-0.5c0,0,0,0,0,0c0,0,0,0,0,0l-0.4,2
				c0,0,0,0,0,0c-0.6,0.3-1.4,0.4-2.3,0.4c-2.1,0-3.5-1.3-3.5-3.4C794.3,340.4,796.6,338.1,799.6,338.1"/>
		</g>
	</g>
	<g opacity="0.83">
		<polygon fill-rule="evenodd" clip-rule="evenodd" fill="#ED1C24" points="722.8,313.6 564.5,352.6 587.4,357.7 488.5,395.9 
			646.9,356.9 624,351.8 		"/>
		<polygon fill-rule="evenodd" clip-rule="evenodd" fill="#ED1C24" points="722.5,283 553,273.1 569.8,284.2 454,290.4 623.5,300.3 
			606.7,289.3 		"/>
		<polygon fill-rule="evenodd" clip-rule="evenodd" fill="#ED1C24" points="736.3,260.9 607.8,191.1 611.1,206.1 511.2,169 
			639.8,238.8 636.4,223.7 		"/>
		<polygon fill-rule="evenodd" clip-rule="evenodd" fill="#ED1C24" points="780.4,242.1 723.5,141.6 714.6,155.8 656.9,92.6 
			713.8,193.1 722.8,178.9 		"/>
		<polygon fill-rule="evenodd" clip-rule="evenodd" fill="#ED1C24" points="887.8,313.6 1046.2,352.6 1023.3,357.7 1122.1,395.9 
			963.8,356.9 986.7,351.8 		"/>
		<polygon fill-rule="evenodd" clip-rule="evenodd" fill="#ED1C24" points="888.2,283 1057.6,273.1 1040.8,284.2 1156.6,290.4 
			987.2,300.3 1003.9,289.3 		"/>
		<polygon fill-rule="evenodd" clip-rule="evenodd" fill="#ED1C24" points="874.3,260.9 1002.9,191.1 999.5,206.1 1099.4,169 
			970.8,238.8 974.2,223.7 		"/>
		<polygon fill-rule="evenodd" clip-rule="evenodd" fill="#ED1C24" points="830.2,242.1 887.1,141.6 896,155.8 953.7,92.6 
			896.8,193.1 887.9,178.9 		"/>
	</g>
	<g>
		<path fill="#FFFFFF" d="M1393.8,337.8c-3.2-1.9-14.3-9.6-44.1-17.5c-22.7-5.9-39.2-7.1-50.4-8.3c-8.1-0.8-12-0.5-15.9-1.3
			c-3.7-1.3-7-3.6-14.4-7c-10.3-4.7-25.2-12-47.7-18.4c-29.7-8.4-43.1-7.5-46.8-7.3c-3.7,0.2-6.5,17.7-5.8,19.8
			c0.6,2.1,1.8,3.4,1.4,12.5c-0.4,9.2-3.5,18.9,9.8,24.4c13.3,5.5,40,15.1,56.8,16.4c16.8,1.4,18-3.4,20.4-6.6
			c2.3-3.2,17.1-22.8,18.4-23.3c2.3-1.6,9,0,9.9,2.3c0.9,1.1,3.8,25.9,4.2,29.8c0.4,4-0.8,8.7,14.4,16.1c15.2,7.3,43,12.7,57.3,14.6
			c14.3,2,16.3-8,20.5-16.2c4.2-8.1,5.8-8.6,7.4-10.1C1390.7,356.5,1398.2,340.4,1393.8,337.8z M1249,342.4
			c-5.6,5.7-19.3,3.2-34.7-1c-15.4-4.2-25.2-7.5-32.7-14.9c-7.5-7.5,0-25.6,2.5-35.1c2.5-9.5,23.8-2.8,44.1,2.7
			c13.4,3.7,18.9,5.4,25.6,9.1c6.6,3.6,11.4,8.2,9.8,14.1C1262,323.1,1254.6,336.7,1249,342.4z M1364.4,376.2
			c-10.2,2.6-20.2,0.5-35.7-3.7c-15.4-4.2-28.6-9-30.6-16.7c-2-7.8-1.7-23.3-0.2-29.2c1.6-5.9,7.9-7.5,15.5-7.2
			c7.5,0.2,13.2,1.5,26.6,5.1c20.3,5.5,42,10.5,39.5,20.1C1377,354.1,1374.6,373.6,1364.4,376.2z"/>
		<path fill="#FFFFFF" d="M1331.3,403.3c-5-6.9-21.7-10.8-25.9-6.8c-4.2,4.1,0.4,8.2,2.2,7c1.8-1.3,10.3-1,13.6,0.2
			c3.4,1.2,12.4,8,7.3,17.9c-5.2,9.9-15.7,6.5-22.8,2.2c-7.2-4.3-12.4-12.6-25.4-17.4c-11.4-4.1-20.8,0.2-23.1,1.4
			c-1.4-2.2-7.4-10.7-19.3-13c-13.6-2.5-22.2,2.1-30.5,2.1c-8.3,0.1-19.1-2.3-18.7-13.5c0.4-11.2,11.6-12.5,15.1-11.8
			c3.5,0.7,11,4.7,11.9,6.7c0.9,2,6.9,0.7,5.3-4.9c-1.6-5.7-18-10.7-25.8-7.3c-7.7,3.4-13.1,6.3-16.2,18.2c-3.1,11.9,5,31.8,11,36.1
			c6,4.3,16.7,8.3,25.8,11.4c9.2,3.1,17.5,3.9,25,2.7c4.8-0.8,8.5-3.2,10.5-4.8c0.9,2.4,3,6.4,6.8,9.5c5.9,4.8,13.5,8.3,23,10.3
			c9.5,2,20.7,3.9,28,3.3c7.3-0.6,24.2-13.7,27.3-25.6C1339.5,415.4,1336.3,410.1,1331.3,403.3z"/>
		<path fill="#FFFFFF" d="M1186.8,274.3c1.7,0.5,3.4-0.6,3.9-2.3c14.3-54.1,69-86.4,122-72c53,14.4,84.5,70.2,70.2,124.3
			c-0.5,1.7,0.6,3.5,2.3,4c1.7,0.5,3.4-0.6,3.9-2.3c15.2-57.6-18.3-116.9-74.7-132.2c-56.4-15.3-114.6,19-129.8,76.6
			C1184.1,272.1,1185.1,273.8,1186.8,274.3z"/>
	</g>
	<g>
		<path fill="#FFFFFF" d="M454.8,294.3c-3.8,0.9-18-0.7-49.3,7.1c-23.8,6-39.6,12.7-50.4,17c-7.9,3.1-11.3,5.2-15.2,6.4
			c-4.1,0.7-8.2,0.5-16.7,1.4c-11.8,1.2-29.2,2.5-53.1,8.1c-31.5,7.3-42.9,15.2-46.7,16.1c-3.8,0.9-4.8,2.6-4.5,3.9
			c0.4,1.3,2.8,9.4,3.3,11c0.5,1.6,4.2,1.5,5.8,2.8c1.6,1.3,3.3,1.7,7.6,8.8c4.3,7.1,6.6,16.9,21.6,15c15-1.9,44.3-7.1,60.4-13.8
			c16.1-6.7,14.5-11.9,15.1-15.4c0.5-3.5,2.3-18.6,2.8-23.2c0.2-1.7,1-3.1,1.9-4.1c1.6-1,3.8-2.4,4.8-2.6c1-0.3,3.7-0.1,5.6,0.1
			c1.4,0.4,2.8,1.2,3.9,2.7c3,3.8,12.9,16,15.2,18.8c2.4,2.8,3.9,8,21.6,6.6c17.6-1.5,45.9-10.3,60-15.3
			c14.1-5.1,10.6-14.6,10.4-22.7c-0.2-8.1,1-9.2,1.7-11.1c0.7-1.9,4-3.5,3.5-5.1c-0.5-1.6-2.9-9.7-3.3-11
			C460.5,294.3,458.6,293.3,454.8,294.3z M327.2,365.1c-2.5,7.4-17.6,12.1-35.3,16.4c-17.7,4.3-27,6-38.6,3.7
			c-11.6-2.3-16.1-20-18.8-28.9c-2.6-8.9,22.3-14.1,45.6-19.7c15.4-3.7,21.9-5,30.5-5.4c8.6-0.4,15.9,0.9,17.5,6.5
			C329.7,343.1,329.7,357.7,327.2,365.1z M448.2,338.1c-8.8,7.2-17.7,9.9-35.4,14.2c-17.7,4.3-33.5,7-39.7,1.7
			c-6.2-5.2-14.4-17.9-16-23.4c-1.6-5.5,3.9-9.9,11.6-13.5c7.7-3.5,14-5.4,29.4-9.1c23.3-5.6,47.7-12.4,50.4-3.5
			C451.1,313.4,457,330.9,448.2,338.1z"/>
		<path fill="#FFFFFF" d="M243.4,270.9l-22.9-8.8c-0.3,0.7-0.7,1.5-1,2.2l22.7,8.7C242.6,272.3,243,271.6,243.4,270.9z"/>
		<path fill="#FFFFFF" d="M240.8,275.3l-22.4-8.6c-0.3,0.7-0.6,1.5-0.9,2.2l22.1,8.5C240,276.7,240.4,276,240.8,275.3z"/>
		<path fill="#FFFFFF" d="M238.3,279.7l-21.8-8.4c-0.3,0.8-0.6,1.5-0.8,2.2l21.4,8.3C237.6,281.2,237.9,280.4,238.3,279.7z"/>
		<path fill="#FFFFFF" d="M252,258.1l-24.4-9.4c-0.4,0.7-0.8,1.4-1.2,2.1l24.1,9.3C251,259.4,251.5,258.7,252,258.1z"/>
		<path fill="#FFFFFF" d="M249,262.3l-23.8-9.2c-0.4,0.7-0.8,1.4-1.1,2.1l23.6,9.1C248,263.6,248.5,262.9,249,262.3z"/>
		<path fill="#FFFFFF" d="M246.1,266.6l-23.4-9c-0.2,0.3-0.3,0.6-0.5,1c-0.2,0.4-0.4,0.8-0.6,1.2l23.1,8.9
			C245.2,267.9,245.7,267.2,246.1,266.6z"/>
		<path fill="#FFFFFF" d="M255.3,253.9l-25.2-9.7c-0.4,0.7-0.8,1.4-1.2,2.1l24.8,9.5C254.2,255.2,254.8,254.5,255.3,253.9z"/>
		<path fill="#FFFFFF" d="M230.8,298.4l-18.9-7.3c-0.1,0.9-0.1,1.7-0.1,2.5l19.4,7.5C230.8,300.5,230.7,299.6,230.8,298.4z"/>
		<path fill="#FFFFFF" d="M233.8,288.8l-20.3-7.8c-0.2,0.8-0.4,1.6-0.5,2.4l19.9,7.7C233.2,290.3,233.5,289.5,233.8,288.8z"/>
		<path fill="#FFFFFF" d="M232,293.5l-19.5-7.5c-0.1,0.8-0.3,1.6-0.4,2.4l19.1,7.4C231.5,295,231.7,294.3,232,293.5z"/>
		<path fill="#FFFFFF" d="M236,284.2l-21.1-8.1c-0.2,0.8-0.5,1.5-0.7,2.3l20.7,8C235.3,285.7,235.6,284.9,236,284.2z"/>
		<path fill="#FFFFFF" d="M259.1,250l-26.3-10.1c-0.4,0.7-0.9,1.4-1.3,2.1l25.8,9.9C257.9,251.2,258.5,250.6,259.1,250z"/>
		<path fill="#FFFFFF" d="M294.7,227.4l0.9-1.8l1.9,0.7c1.1-0.4,2.3-0.9,3.4-1.3l-4.2-1.6l1.1-2.4l7,2.7c1.2-0.4,2.5-0.8,3.7-1.1
			l-9.7-3.7l1.1-2.4l12.9,4.9c0.6-0.2,1.3-0.3,1.9-0.5c0.7-0.2,1.4-0.3,2.2-0.5l-15.9-6.1l1.1-2.4l19.4,7.5c1.4-0.3,2.9-0.6,4.3-0.9
			l-22.7-8.7l1.1-2.4l26.7,10.3c1.6-0.3,3.3-0.5,4.9-0.7l-30.6-11.8l1.1-2.4l31.3,12l-0.9,2c8.6-0.9,17.5-0.8,27.2,1l-4.7-1.8
			l1.1-2.4l31.3,12l-0.8,1.7c6.5,3.3,14,7.3,20.5,11.4l28,10.8l-1.1,2.4l-16.9-6.5c1.5,1.1,2.8,2.1,3.8,3.1
			c-6.3-4.6-15.8-10.2-29.4-16.5c0,0,0,0,0,0l7.3,24.5c6.9,1.5,14.3,3.4,22.1,5.6c20.7,14,18.9,8,22.3,1.5c1.6-3,3.1-11.4-3.9-22.9
			l-1,2.2l-31.3-12l1.1-2.4l31,11.9c-0.7-1.1-1.5-2.3-2.4-3.5l-27.6-10.6l1.1-2.4l23.2,8.9c-1.2-1.3-2.4-2.7-3.8-4l-18.3-7.1
			l1.1-2.4l11.9,4.6c-1.9-1.6-4-3.3-6.3-5l-4.6-1.8l0.5-1.1c-1.7-1.1-3.4-2.3-5.3-3.5c-4.1-2.6-8.1-5-12-7.3l-30.9-11.9l1.1-2.3
			c-9.4-3.4-18.9-5.7-28.8-6.7l8.3,3.2l-1.1,2.4l-16-6.1c-2.1,0-4.3,0-6.5,0.1l21.5,8.3l-1.1,2.4l-26.6-10.2
			c-1.7,0.2-3.4,0.3-5.2,0.6l30.8,11.8l-1.1,2.4l-31.3-12l1-2.1c-3.6,0.5-7.4,1.2-11.2,2l0,0c-0.2,0-0.3,0.1-0.4,0.1
			c-0.2,0-0.3,0.1-0.5,0.1l0,0c-6.1,1.6-11.8,3.5-17.1,5.7l1.4,0.5l-1.1,2.4l-3.7-1.4c-1,0.5-2,0.9-3,1.4l5.7,2.2l-1.1,2.4l-7.7-3
			c-0.9,0.5-1.8,1-2.7,1.5l9.4,3.6l-1.1,2.4l-11.1-4.3c-0.8,0.5-1.7,1.1-2.5,1.6l12.6,4.8l-1.1,2.4l-14.1-5.4
			c-0.8,0.6-1.5,1.1-2.3,1.7l15.4,5.9l-1.1,2.4l-16.7-6.4c-0.7,0.6-1.4,1.2-2.1,1.7l17.8,6.8l-1.1,2.4l-18.9-7.3
			c-0.7,0.6-1.3,1.2-2,1.8l19.8,7.6L273,223l-20.8-8c-0.6,0.6-1.2,1.2-1.8,1.9l21.6,8.3l-1.1,2.4l-22.4-8.6
			c-0.6,0.6-1.1,1.3-1.7,1.9l23.1,8.9l-1.1,2.4l-23.8-9.1c-0.5,0.6-1.1,1.3-1.6,1.9l24.3,9.4l-1.1,2.4l-24.9-9.6
			c-0.5,0.7-1,1.3-1.5,2l25.4,9.8l-1.1,2.4l-25.9-10c-0.5,0.7-0.9,1.3-1.4,2l26.3,10.1l-1.1,2.4l-26.7-10.3c-0.5,0.7-0.9,1.4-1.3,2
			l27,10.4C271.3,238.9,283,232.2,294.7,227.4z M436,256.4l-3.3-1.3c-1.2-1.4-2.9-3-5.2-4.8l9.6,3.7L436,256.4z M410.1,232.9
			l31.3,12l-1.1,2.4l-31.3-12L410.1,232.9z M368.9,195.4l31.3,12l-1.1,2.4l-31.3-12L368.9,195.4z M366.8,200l31.3,12l-1.1,2.4
			l-31.3-12L366.8,200z M364.6,204.5l31.3,12l-1.1,2.4l-31.3-12L364.6,204.5z M362.5,209.1l31.3,12l-1.1,2.4l-31.3-12L362.5,209.1z
			 M312.8,189.1l31.3,12l-1.1,2.4l-31.3-12L312.8,189.1z M310.6,193.6l31.3,12l-1.1,2.4l-31.3-12L310.6,193.6z M308.5,198.2l31.3,12
			l-1.1,2.4l-31.3-12L308.5,198.2z"/>
		<path fill="#FFFFFF" d="M373,251.3c0.9,0.1,1.9,0.2,2.8,0.3l-8.8-29.5c-1-0.2-1.9-0.4-2.9-0.6L373,251.3z"/>
		<path fill="#FFFFFF" d="M264,285.9c0.7-0.6,1.5-1.2,2.2-1.8l-8.1-27.1c-0.7,0.7-1.4,1.5-2,2.3L264,285.9z"/>
		<path fill="#FFFFFF" d="M367.2,250.7c0.9,0.1,1.8,0.2,2.8,0.2l-8.9-30c-0.9-0.1-1.9-0.3-2.8-0.4L367.2,250.7z"/>
		<path fill="#FFFFFF" d="M361.4,250.3c0.9,0,1.8,0.1,2.7,0.2l-9-30.3c-0.9-0.1-1.9-0.2-2.8-0.2L361.4,250.3z"/>
		<path fill="#FFFFFF" d="M384.9,252.9c0.9,0.2,1.9,0.3,2.8,0.5l-8.3-27.9c-1-0.3-2-0.6-3-0.9L384.9,252.9z"/>
		<path fill="#FFFFFF" d="M396.9,255.1c0.9,0.2,1.9,0.4,2.9,0.6l-7.6-25.3c-1-0.5-2.1-0.9-3.1-1.3L396.9,255.1z"/>
		<path fill="#FFFFFF" d="M390.9,254c0.9,0.2,1.9,0.4,2.9,0.5l-8-26.8c-1-0.4-2-0.8-3-1.1L390.9,254z"/>
		<path fill="#FFFFFF" d="M379,252c0.9,0.1,1.9,0.3,2.8,0.4l-8.6-28.9c-1-0.3-2-0.5-2.9-0.8L379,252z"/>
		<path fill="#FFFFFF" d="M355.7,250.1c0.9,0,1.8,0,2.7,0.1l-9.1-30.4c-0.9,0-1.8-0.1-2.7-0.1L355.7,250.1z"/>
		<path fill="#FFFFFF" d="M333.3,251.6c0.9-0.1,1.7-0.3,2.6-0.4l-8.8-29.6c-0.9,0.2-1.7,0.3-2.5,0.5L333.3,251.6z"/>
		<path fill="#FFFFFF" d="M327.9,252.5c0.8-0.2,1.7-0.3,2.6-0.5l-8.7-29.3c-0.8,0.2-1.7,0.4-2.5,0.7L327.9,252.5z"/>
		<path fill="#FFFFFF" d="M338.8,250.9c0.9-0.1,1.7-0.2,2.6-0.3l-8.9-29.9c-0.9,0.1-1.7,0.3-2.6,0.4L338.8,250.9z"/>
		<path fill="#FFFFFF" d="M344.4,250.4c0.9-0.1,1.8-0.1,2.7-0.1l-9-30.2c-0.9,0.1-1.8,0.2-2.6,0.2L344.4,250.4z"/>
		<path fill="#FFFFFF" d="M350,250.1c0.9,0,1.8,0,2.7,0l-9-30.4c-0.9,0-1.8,0.1-2.7,0.1L350,250.1z"/>
		<path fill="#FFFFFF" d="M233.5,315.6l-19.4-7.5c0.5,1.1,0.9,2.2,1.5,3.1l17.3,6.7l-1.1,2.4l-13.5-5.3c1.4,1.7,2.8,2.7,3.9,3.2
			c9.4,4.6,11.1,5.1,13.5-4.2c0.3-1.4,0.7-2.7,1-4.1c1.1-0.6,2.3-1.5,3.5-2.7c5.9-5.7,11.5-10.9,16.9-15.6l-7.3-24.5
			c-12.5,17.6-17.9,29.6-19.1,36.5l-18.9-7.3c0,0.9,0.1,1.8,0.2,2.6l18.4,7.1c0,1.2,0.1,2.2,0.4,3l-18.5-7.1c0.2,1,0.4,1.9,0.6,2.8
			l20.7,8.1L233.5,315.6z"/>
		<path fill="#FFFFFF" d="M312.2,256.9c0.8-0.3,1.6-0.6,2.4-0.8l-8.7-29.2c-0.8,0.3-1.6,0.5-2.5,0.8L312.2,256.9z"/>
		<path fill="#FFFFFF" d="M307.1,258.9c0.8-0.3,1.6-0.7,2.4-1l-8.7-29.4c-0.8,0.3-1.6,0.6-2.4,0.9L307.1,258.9z"/>
		<path fill="#FFFFFF" d="M297.1,263.5c0.8-0.4,1.6-0.8,2.3-1.2l-8.8-29.5c-0.8,0.4-1.6,0.8-2.4,1.2L297.1,263.5z"/>
		<path fill="#FFFFFF" d="M302.1,261.1c0.8-0.4,1.6-0.7,2.4-1.1l-8.8-29.5c-0.8,0.3-1.6,0.7-2.4,1L302.1,261.1z"/>
		<path fill="#FFFFFF" d="M317.4,255.2c0.8-0.3,1.7-0.5,2.5-0.7l-8.7-29.1c-0.8,0.2-1.7,0.4-2.5,0.7L317.4,255.2z"/>
		<path fill="#FFFFFF" d="M259.4,289.7c0.7-0.6,1.4-1.2,2.2-1.8l-7.7-26c-0.7,0.8-1.3,1.6-2,2.5L259.4,289.7z"/>
		<path fill="#FFFFFF" d="M322.6,253.7c0.4-0.1,0.8-0.2,1.3-0.3c0.4-0.1,0.8-0.2,1.3-0.3l-8.6-29c-0.8,0.2-1.7,0.4-2.5,0.6
			L322.6,253.7z"/>
		<path fill="#FFFFFF" d="M273.2,278.7c0.7-0.6,1.5-1.1,2.2-1.6l-8.5-28.7c-0.7,0.6-1.4,1.3-2.1,1.9L273.2,278.7z"/>
		<path fill="#FFFFFF" d="M277.9,275.3c0.8-0.5,1.5-1,2.2-1.5l-8.7-29.1c-0.7,0.6-1.5,1.1-2.2,1.7L277.9,275.3z"/>
		<path fill="#FFFFFF" d="M268.6,282.2c0.7-0.6,1.5-1.1,2.2-1.7l-8.3-28c-0.7,0.7-1.4,1.4-2.1,2.1L268.6,282.2z"/>
		<path fill="#FFFFFF" d="M287.4,269c0.8-0.5,1.5-0.9,2.3-1.4l-8.8-29.5c-0.8,0.5-1.5,0.9-2.3,1.4L287.4,269z"/>
		<path fill="#FFFFFF" d="M292.2,266.2c0.8-0.4,1.5-0.9,2.3-1.3l-8.8-29.6c-0.8,0.4-1.5,0.8-2.3,1.3L292.2,266.2z"/>
		<path fill="#FFFFFF" d="M282.6,272.1c0.8-0.5,1.5-1,2.3-1.5l-8.7-29.4c-0.7,0.5-1.5,1-2.2,1.6L282.6,272.1z"/>
		<path fill="#FFFFFF" d="M409.2,466.1c0-2.9-3.3-12.4-3.3-12.4s-2.9-3.8-4-3.9c-0.5,0-12,4.5-23.3,7.2c-11,2.7-21.9,3.5-22.3,3.8
			c-0.9,0.6-1.3,5.2-1.3,5.2s1.9,10.8,3.6,13.3c2.6,3.9,10,10.6,12.1,10.5c0.8-0.1,1.6,0.2,2.5,0.6c-6.6-15.2-4-17.6-4-17.6
			s2,7.7,3.5,12.4c0.7,2,2.1,4.3,3.4,6.3c0.8,0.2,1.7,0.4,2.7,0.4c0.2,0,0.4,0,0.7,0c-4.6-9.5-4-14.6-4-14.6s2,6.4,3.5,10.2
			c0.6,1.5,2.8,4,4,5.5c1.4,0.4,1.4,0.1,3.1,0.4c1.2,0.2,6.2,0.9,6.2,0.9c0.8-0.4,1-2.1,1.9-2.8c1.8-1.4,0.4-0.7,2.7-2.1
			c0.1-1.9,0.8-6.1,0.3-7.6c-1.1-4-2.2-10.1-2.2-10.1s5.6,13.8,5.6,15.9c1.3-2.7,2-3.1,2.9-4.2c0.2-2.3-0.2-4.4-0.5-6.4
			c-0.8-5.3-2.1-13.1-2.1-13.1s5.2,14.1,5.1,16.1c0,0.3,1.2-1.4,1.1-1C408.7,473.1,409.2,471.5,409.2,466.1z"/>
	</g>
</g>
</svg>
