<?xml version="1.0" encoding="utf-8"?>
<!-- Generator: Adobe Illustrator 18.1.1, SVG Export Plug-In . SVG Version: 6.00 Build 0)  -->
<svg version="1.1" id="Layer_1" xmlns="http://www.w3.org/2000/svg" xmlns:xlink="http://www.w3.org/1999/xlink" x="0px" y="0px"
	 viewBox="0 0 500 500" enable-background="new 0 0 500 500" xml:space="preserve">
<g>
	<g>
		<rect x="229.6" y="233.6" fill="#FFFFFF" stroke="#FFFFFF" stroke-miterlimit="10" width="45.7" height="20.9"/>
		<path fill="#FFFFFF" stroke="#FFFFFF" stroke-miterlimit="10" d="M284.1,240.9v-2.4h-6.3v32.6c0,14-11.4,25.3-25.3,25.3
			c-14,0-25.3-11.4-25.3-25.3v-32.6h-6.3v2.4h-1.6v6.2h1.6v24c0,16.4,12.5,29.9,28.5,31.5v47.3H239v1.8h-4v4h34.8v-4h-4v-1.8h-10.3
			v-47.3c16-1.6,28.5-15.1,28.5-31.5v-24h1.6v-6.2H284.1z"/>
		<path fill="#FFFFFF" stroke="#FFFFFF" stroke-miterlimit="10" d="M273.8,226.9c0,0-0.1,0-0.1,0c-1.2,0-2.2-1-2.2-2.2
			c0-1.2,1-2.2,2.2-2.2c0.1,0,0.1,0,0.1,0v-2.9c0,0-0.1,0-0.1,0c-1.2,0-2.2-1-2.2-2.2c0-1.2,1-2.2,2.2-2.2c0,0,0.1,0,0.1,0
			c0-1-0.1-1.9-0.3-2.9c-1.1-0.1-2.1-1-2.1-2.2c0-0.7,0.3-1.3,0.9-1.7c-2.4-5.5-7.4-10-13.6-11.9c-0.3,0.8-1.1,1.4-2,1.4
			c-1.2,0-2.2-1-2.2-2.2c-0.7-0.1-1.4-0.1-2.1-0.1c-0.7,0-1.4,0-2.1,0.1c0,1.2-1,2.2-2.2,2.2c-0.9,0-1.7-0.6-2-1.4
			c-6.2,1.9-11.3,6.4-13.6,11.9c0.5,0.4,0.9,1,0.9,1.7c0,1.2-0.9,2.1-2.1,2.2c-0.2,0.9-0.3,1.9-0.3,2.9c0,0,0.1,0,0.1,0
			c1.2,0,2.2,1,2.2,2.2c0,1.2-1,2.2-2.2,2.2c-0.1,0-0.1,0-0.1,0v2.9c0,0,0.1,0,0.1,0c1.2,0,2.2,1,2.2,2.2c0,1.2-1,2.2-2.2,2.2
			c-0.1,0-0.1,0-0.1,0v2.9h42.8V226.9z M239.7,226.9c-1.2,0-2.2-1-2.2-2.2c0-1.2,1-2.2,2.2-2.2c1.2,0,2.2,1,2.2,2.2
			C241.9,225.9,240.9,226.9,239.7,226.9z M239.7,219.7c-1.2,0-2.2-1-2.2-2.2c0-1.2,1-2.2,2.2-2.2c1.2,0,2.2,1,2.2,2.2
			C241.9,218.7,240.9,219.7,239.7,219.7z M239.7,212.4c-1.2,0-2.2-1-2.2-2.2c0-1.2,1-2.2,2.2-2.2c1.2,0,2.2,1,2.2,2.2
			C241.9,211.5,240.9,212.4,239.7,212.4z M239.7,205.2c-1.2,0-2.2-1-2.2-2.2c0-1.2,1-2.2,2.2-2.2c1.2,0,2.2,1,2.2,2.2
			C241.9,204.2,240.9,205.2,239.7,205.2z M248.2,226.9c-1.2,0-2.2-1-2.2-2.2c0-1.2,1-2.2,2.2-2.2c1.2,0,2.2,1,2.2,2.2
			C250.4,225.9,249.4,226.9,248.2,226.9z M248.2,219.7c-1.2,0-2.2-1-2.2-2.2c0-1.2,1-2.2,2.2-2.2c1.2,0,2.2,1,2.2,2.2
			C250.4,218.7,249.4,219.7,248.2,219.7z M248.2,212.4c-1.2,0-2.2-1-2.2-2.2c0-1.2,1-2.2,2.2-2.2c1.2,0,2.2,1,2.2,2.2
			C250.4,211.5,249.4,212.4,248.2,212.4z M248.2,205.2c-1.2,0-2.2-1-2.2-2.2c0-1.2,1-2.2,2.2-2.2c1.2,0,2.2,1,2.2,2.2
			C250.4,204.2,249.4,205.2,248.2,205.2z M256.7,226.9c-1.2,0-2.2-1-2.2-2.2c0-1.2,1-2.2,2.2-2.2c1.2,0,2.2,1,2.2,2.2
			C258.9,225.9,257.9,226.9,256.7,226.9z M256.7,219.7c-1.2,0-2.2-1-2.2-2.2c0-1.2,1-2.2,2.2-2.2c1.2,0,2.2,1,2.2,2.2
			C258.9,218.7,257.9,219.7,256.7,219.7z M256.7,212.4c-1.2,0-2.2-1-2.2-2.2c0-1.2,1-2.2,2.2-2.2c1.2,0,2.2,1,2.2,2.2
			C258.9,211.5,257.9,212.4,256.7,212.4z M256.7,205.2c-1.2,0-2.2-1-2.2-2.2c0-1.2,1-2.2,2.2-2.2c1.2,0,2.2,1,2.2,2.2
			C258.9,204.2,257.9,205.2,256.7,205.2z M265.2,226.9c-1.2,0-2.2-1-2.2-2.2c0-1.2,1-2.2,2.2-2.2c1.2,0,2.2,1,2.2,2.2
			C267.4,225.9,266.4,226.9,265.2,226.9z M265.2,219.7c-1.2,0-2.2-1-2.2-2.2c0-1.2,1-2.2,2.2-2.2c1.2,0,2.2,1,2.2,2.2
			C267.4,218.7,266.4,219.7,265.2,219.7z M265.2,212.4c-1.2,0-2.2-1-2.2-2.2c0-1.2,1-2.2,2.2-2.2c1.2,0,2.2,1,2.2,2.2
			C267.4,211.5,266.4,212.4,265.2,212.4z M265.2,205.2c-1.2,0-2.2-1-2.2-2.2c0-1.2,1-2.2,2.2-2.2c1.2,0,2.2,1,2.2,2.2
			C267.4,204.2,266.4,205.2,265.2,205.2z"/>
		<path fill="#FFFFFF" stroke="#FFFFFF" stroke-miterlimit="10" d="M273.7,261.2c0.1,0,0.1,0,0.1,0v-2.9h-42.8v2.9c0,0,0.1,0,0.1,0
			c1.2,0,2.2,1,2.2,2.2c0,1.2-1,2.2-2.2,2.2c-0.1,0-0.1,0-0.1,0v2.9c0,0,0.1,0,0.1,0c1.2,0,2.2,1,2.2,2.2c0,1.2-1,2.2-2.2,2.2
			c0,0-0.1,0-0.1,0c0,1,0.1,1.9,0.3,2.9c1.1,0.1,2.1,1,2.1,2.2c0,0.7-0.3,1.3-0.9,1.7c2.4,5.5,7.4,10,13.6,11.9
			c0.3-0.8,1.1-1.4,2-1.4c1.2,0,2.2,1,2.2,2.2c0.7,0.1,1.4,0.1,2.1,0.1c0.7,0,1.4,0,2.1-0.1c0-1.2,1-2.2,2.2-2.2
			c0.9,0,1.7,0.6,2,1.4c6.2-1.9,11.3-6.4,13.6-11.9c-0.5-0.4-0.9-1-0.9-1.7c0-1.2,0.9-2.1,2.1-2.2c0.2-0.9,0.3-1.9,0.3-2.9
			c0,0-0.1,0-0.1,0c-1.2,0-2.2-1-2.2-2.2c0-1.2,1-2.2,2.2-2.2c0.1,0,0.1,0,0.1,0v-2.9c0,0-0.1,0-0.1,0c-1.2,0-2.2-1-2.2-2.2
			C271.5,262.2,272.5,261.2,273.7,261.2z M239.7,287.3c-1.2,0-2.2-1-2.2-2.2c0-1.2,1-2.2,2.2-2.2c1.2,0,2.2,1,2.2,2.2
			C241.9,286.4,240.9,287.3,239.7,287.3z M239.7,280.1c-1.2,0-2.2-1-2.2-2.2c0-1.2,1-2.2,2.2-2.2c1.2,0,2.2,1,2.2,2.2
			C241.9,279.1,240.9,280.1,239.7,280.1z M239.7,272.9c-1.2,0-2.2-1-2.2-2.2c0-1.2,1-2.2,2.2-2.2c1.2,0,2.2,1,2.2,2.2
			C241.9,271.9,240.9,272.9,239.7,272.9z M239.7,265.6c-1.2,0-2.2-1-2.2-2.2c0-1.2,1-2.2,2.2-2.2c1.2,0,2.2,1,2.2,2.2
			C241.9,264.6,240.9,265.6,239.7,265.6z M248.2,287.3c-1.2,0-2.2-1-2.2-2.2c0-1.2,1-2.2,2.2-2.2c1.2,0,2.2,1,2.2,2.2
			C250.4,286.4,249.4,287.3,248.2,287.3z M248.2,280.1c-1.2,0-2.2-1-2.2-2.2c0-1.2,1-2.2,2.2-2.2c1.2,0,2.2,1,2.2,2.2
			C250.4,279.1,249.4,280.1,248.2,280.1z M248.2,272.9c-1.2,0-2.2-1-2.2-2.2c0-1.2,1-2.2,2.2-2.2c1.2,0,2.2,1,2.2,2.2
			C250.4,271.9,249.4,272.9,248.2,272.9z M248.2,265.6c-1.2,0-2.2-1-2.2-2.2c0-1.2,1-2.2,2.2-2.2c1.2,0,2.2,1,2.2,2.2
			C250.4,264.6,249.4,265.6,248.2,265.6z M256.7,287.3c-1.2,0-2.2-1-2.2-2.2c0-1.2,1-2.2,2.2-2.2s2.2,1,2.2,2.2
			C258.9,286.4,257.9,287.3,256.7,287.3z M256.7,280.1c-1.2,0-2.2-1-2.2-2.2c0-1.2,1-2.2,2.2-2.2s2.2,1,2.2,2.2
			C258.9,279.1,257.9,280.1,256.7,280.1z M256.7,272.9c-1.2,0-2.2-1-2.2-2.2c0-1.2,1-2.2,2.2-2.2s2.2,1,2.2,2.2
			C258.9,271.9,257.9,272.9,256.7,272.9z M256.7,265.6c-1.2,0-2.2-1-2.2-2.2c0-1.2,1-2.2,2.2-2.2s2.2,1,2.2,2.2
			C258.9,264.6,257.9,265.6,256.7,265.6z M265.2,287.3c-1.2,0-2.2-1-2.2-2.2c0-1.2,1-2.2,2.2-2.2c1.2,0,2.2,1,2.2,2.2
			C267.4,286.4,266.4,287.3,265.2,287.3z M265.2,280.1c-1.2,0-2.2-1-2.2-2.2c0-1.2,1-2.2,2.2-2.2c1.2,0,2.2,1,2.2,2.2
			C267.4,279.1,266.4,280.1,265.2,280.1z M265.2,272.9c-1.2,0-2.2-1-2.2-2.2c0-1.2,1-2.2,2.2-2.2c1.2,0,2.2,1,2.2,2.2
			C267.4,271.9,266.4,272.9,265.2,272.9z M265.2,265.6c-1.2,0-2.2-1-2.2-2.2c0-1.2,1-2.2,2.2-2.2c1.2,0,2.2,1,2.2,2.2
			C267.4,264.6,266.4,265.6,265.2,265.6z"/>
	</g>
	<g>
		<path fill="#FFFFFF" stroke="#FFFFFF" stroke-miterlimit="10" d="M235.6,241.3c-0.2,0.4-0.1,0.7,0.2,0.7c0.3,0,0.6-0.3,0.8-0.6
			c0.2-0.4,0.1-0.7-0.2-0.7C236.2,240.7,235.8,241,235.6,241.3 M237.7,240C237.7,240,237.7,240,237.7,240
			C237.7,240,237.7,240,237.7,240c-0.2,0.4-0.4,0.9-0.7,1.3c-0.5,0.8-1.3,1.3-1.7,1.1c-0.4-0.2-0.3-1,0.2-1.7
			c0.1-0.2,0.3-0.3,0.4-0.5c0,0,0,0,0,0s0,0,0,0h0c-0.2,0-0.3,0.1-0.5,0.1c0,0,0,0,0,0c-1.8,2.2-2.6,5.1-2.5,7.6c0,0,0,0,0,0
			c0,0,0,0,0,0c-1.1-0.4-1.8-1.5-1.9-2.7l0,0c-0.1-2.3,1.7-4.7,4.1-5.3C236.1,239.7,237,239.7,237.7,240"/>
		<path fill="#FFFFFF" stroke="#FFFFFF" stroke-miterlimit="10" d="M237,246.2c-0.2,0.1-0.4,0.2-0.5,0.3c0,0,0,0,0,0c0,0,0,0,0,0
			c0-0.6-0.2-1.1-0.4-1.5c-0.5-1.2-1.5-1.3-2.1-0.2c-0.4,0.7-0.6,1.6-0.5,2.5c0,0,0,0,0,0c0.7,0.2,1.4,0.2,2.3,0
			c2.4-0.6,4.2-3,4.1-5.3c-0.1-2-1.7-3.3-3.7-3.2c0,0,0,0,0,0c-0.2,0.2-0.4,0.4-0.6,0.6l0,0c0,0,0,0,0,0h0c1.2-0.1,2.1,0.1,2.7,0.6
			c0,0,0,0,0,0c0,0,0,0,0,0C236.2,243.1,236.5,244.8,237,246.2L237,246.2C237,246.2,237,246.2,237,246.2"/>
		<path fill="#FFFFFF" stroke="#FFFFFF" stroke-miterlimit="10" d="M256.9,242.8c0.5,0,0.9,0.1,1.1,0.2c0,0,0,0,0,0l-0.2,0.9
			c0,0,0,0,0,0c0,0,0,0,0,0c-0.2-0.1-0.6-0.2-0.9-0.2c-0.3,0-0.5,0.1-0.5,0.4c0,0.2,0.2,0.3,0.5,0.5c0.4,0.2,0.9,0.5,0.9,1.1
			c0,0.4-0.1,0.7-0.4,0.9c-0.3,0.3-0.9,0.5-1.5,0.5c-0.5,0-1-0.1-1.3-0.3c0,0,0,0,0,0l0.2-0.9c0,0,0,0,0,0c0,0,0,0,0,0
			c0.3,0.2,0.8,0.4,1.2,0.4c0.3,0,0.5-0.1,0.5-0.4c0-0.2-0.1-0.3-0.5-0.5c-0.6-0.3-0.9-0.7-0.9-1.1
			C255.1,243.4,255.8,242.8,256.9,242.8"/>
		<path fill="#FFFFFF" stroke="#FFFFFF" stroke-miterlimit="10" d="M243.6,242.8c0.1,0,0.2,0,0.2,0c0,0,0,0,0,0c0,0,0,0,0,0
			l-0.2,1.2c0,0,0,0,0,0c0,0,0,0,0,0c0,0-0.1,0-0.2,0c-0.8,0-1.2,0.8-1.3,1.5l-0.3,1.6c0,0,0,0,0,0h-1.2c0,0,0,0,0,0c0,0,0,0,0,0
			l0.8-4.1c0,0,0,0,0,0h1.1c0,0,0,0,0,0c0,0,0,0,0,0l-0.1,0.7c0,0,0,0,0,0c0,0,0,0,0,0C242.6,243.1,243.1,242.8,243.6,242.8"/>
		<path fill="#FFFFFF" stroke="#FFFFFF" stroke-miterlimit="10" d="M245.2,244c-0.3,0.3-0.6,0.9-0.6,1.4c0,0.4,0.2,0.7,0.4,0.7
			c0.4,0,0.8-0.5,1-1.1c0-0.2,0.1-0.3,0.1-0.4c0-0.1,0-0.3,0-0.3c0-0.3-0.2-0.4-0.4-0.4C245.5,243.7,245.3,243.8,245.2,244
			 M245.6,247C245.6,247,245.6,247,245.6,247l0.1-0.5c0,0,0,0,0,0c0,0,0,0,0,0c-0.2,0.4-0.7,0.6-1.2,0.6c-0.8,0-1.2-0.7-1.2-1.4
			c0-0.8,0.3-1.6,0.9-2.2c0.5-0.5,1-0.7,1.7-0.7c0.5,0,0.9,0.1,1.1,0.4c0.3,0.4,0.3,1,0.2,1.5l-0.4,2.3c0,0,0,0,0,0L245.6,247
			C245.6,247,245.6,247,245.6,247"/>
		<path fill="#FFFFFF" stroke="#FFFFFF" stroke-miterlimit="10" d="M259.7,246.2c0.6,0,1.1-0.9,1.1-1.7c0-0.2,0-0.7-0.5-0.7
			c-0.5,0-0.8,0.5-1,1.3C259.3,245.4,259.2,246.2,259.7,246.2 M260.8,242.8c0.8,0,1.3,0.6,1.3,1.6c0,1-0.5,2-1.3,2.5
			c-0.8,0.4-1.5,0.2-1.7-0.1c0,0,0,0,0,0l-0.3,1.6c0,0,0,0,0,0h-1.2c0,0,0,0,0,0c0,0,0,0,0,0l1-5.5c0,0,0,0,0,0l1.1,0c0,0,0,0,0,0
			c0,0,0,0,0,0l-0.1,0.6c0,0,0,0,0,0c0,0,0,0,0,0l0,0C259.9,243,260.3,242.8,260.8,242.8"/>
		<polyline fill="#FFFFFF" stroke="#FFFFFF" stroke-miterlimit="10" points="251.7,241.5 252.9,241.5 252.9,241.5 252.9,241.5 
			252.3,244.8 252.3,244.8 252.3,244.8 253.9,242.9 253.9,242.9 255.2,242.9 255.2,242.9 255.2,242.9 255.2,242.9 253.6,244.8 
			254.6,247 254.6,247 254.6,247 254.6,247 253.3,247 253.3,247 252.3,244.8 252.3,244.8 252.3,244.8 251.9,247 251.9,247 
			250.7,247 250.7,247 250.7,247 251.7,241.5 251.7,241.5 		"/>
		<path fill="#FFFFFF" stroke="#FFFFFF" stroke-miterlimit="10" d="M272.2,244.1c0-0.2-0.2-0.3-0.4-0.3c-0.5,0-0.9,0.4-1,0.8l0,0v0
			c0,0,0,0,0,0h0c0.7,0,1.1-0.1,1.3-0.2C272.2,244.2,272.2,244.2,272.2,244.1 M271.9,242.8c0.9,0,1.4,0.5,1.4,1.2
			c0,0.3-0.1,0.6-0.3,0.8c-0.4,0.4-1.2,0.6-2.3,0.5h0h0l0,0l0,0c0,0.1,0,0.3,0.1,0.4c0.2,0.2,0.4,0.3,0.8,0.3c0.5,0,0.9-0.1,1.4-0.4
			c0,0,0,0,0,0c0,0,0,0,0,0l-0.2,1c0,0,0,0,0,0c-0.6,0.3-1.3,0.3-1.5,0.3c-1.1,0-1.8-0.6-1.8-1.7c0-0.6,0.2-1.3,0.6-1.7
			C270.6,243.1,271.3,242.8,271.9,242.8"/>
		<path fill="#FFFFFF" stroke="#FFFFFF" stroke-miterlimit="10" d="M273.4,246.6c0,0.3,0.2,0.5,0.4,0.5c0.3,0,0.5-0.2,0.5-0.5
			c0-0.3-0.2-0.5-0.4-0.5C273.6,246.1,273.4,246.3,273.4,246.6 M273.3,246.6c0-0.3,0.3-0.5,0.6-0.5c0.3,0,0.5,0.2,0.5,0.5
			c0,0.3-0.3,0.5-0.6,0.5C273.5,247.1,273.3,246.9,273.3,246.6 M273.7,246.3C273.7,246.3,273.7,246.3,273.7,246.3l0.1,0h0
			c0,0,0.1,0,0.1,0c0,0,0,0,0.1,0c0.1,0,0.1,0.1,0.1,0.1c0,0,0,0,0,0c0,0.1-0.1,0.2-0.2,0.2l0.1,0.3v0v0c0,0,0,0,0,0h-0.1
			c0,0,0,0,0,0l-0.1-0.2l-0.1,0h0h-0.1l0,0.2l0,0h-0.1c0,0,0,0,0,0l0,0l0-0.2v0l0-0.2L273.7,246.3z M273.8,246.3L273.8,246.3
			l-0.1,0.1l0,0.1h0.1h0c0,0,0,0,0.1,0c0,0,0,0,0,0c0.1,0,0.1-0.1,0.1-0.1c0-0.1,0-0.1-0.1-0.1C273.9,246.3,273.9,246.3,273.8,246.3
			C273.9,246.3,273.9,246.3,273.8,246.3L273.8,246.3z"/>
		<path fill="#FFFFFF" stroke="#FFFFFF" stroke-miterlimit="10" d="M264,244c-0.3,0.3-0.6,0.9-0.6,1.4c0,0.4,0.2,0.7,0.4,0.7
			c0.4,0,0.8-0.5,1-1.1c0-0.2,0.1-0.3,0.1-0.4c0-0.1,0-0.3,0-0.3c0-0.3-0.2-0.4-0.4-0.4C264.3,243.7,264.1,243.8,264,244 M264.4,247
			C264.4,247,264.4,247,264.4,247l0.1-0.5c0,0,0,0,0,0c0,0,0,0,0,0c-0.2,0.4-0.7,0.6-1.2,0.6c-0.8,0-1.2-0.7-1.2-1.4
			c0-0.8,0.3-1.6,0.9-2.2c0.5-0.5,1-0.7,1.7-0.7c0.5,0,0.9,0.1,1.1,0.4c0.3,0.4,0.3,1,0.2,1.5l-0.4,2.3c0,0,0,0,0,0L264.4,247
			C264.4,247,264.4,247,264.4,247"/>
		<path fill="#FFFFFF" stroke="#FFFFFF" stroke-miterlimit="10" d="M268.9,242.8c0.3,0,0.6,0.1,0.8,0.1c0,0,0,0,0,0l-0.2,1
			c0,0,0,0,0,0c0,0,0,0,0,0c-0.2-0.1-0.4-0.2-0.7-0.2c-0.9,0-1.4,0.8-1.4,1.5c0,0.6,0.4,0.8,0.8,0.8c0.3,0,0.6-0.1,1-0.3
			c0,0,0,0,0,0c0,0,0,0,0,0l-0.2,1c0,0,0,0,0,0c-0.3,0.1-0.7,0.2-1.2,0.2c-1.1,0-1.7-0.7-1.7-1.7
			C266.2,243.9,267.4,242.8,268.9,242.8"/>
		<path fill="#FFFFFF" stroke="#FFFFFF" stroke-miterlimit="10" d="M250.1,242.8c0.3,0,0.6,0.1,0.8,0.1c0,0,0,0,0,0l-0.2,1
			c0,0,0,0,0,0c0,0,0,0,0,0c-0.2-0.1-0.4-0.2-0.7-0.2c-0.9,0-1.4,0.8-1.4,1.5c0,0.6,0.4,0.8,0.8,0.8c0.3,0,0.6-0.1,1-0.3
			c0,0,0,0,0,0c0,0,0,0,0,0l-0.2,1c0,0,0,0,0,0c-0.3,0.1-0.7,0.2-1.2,0.2c-1.1,0-1.7-0.7-1.7-1.7
			C247.4,243.9,248.6,242.8,250.1,242.8"/>
	</g>
	<g opacity="0.83">
		<polygon fill="#FFFFFF" stroke="#FFFFFF" stroke-miterlimit="10" points="226.4,227.4 176.7,247 183.9,249.5 152.8,268.7 
			202.6,249.2 195.4,246.6 		"/>
		<polygon fill="#FFFFFF" stroke="#FFFFFF" stroke-miterlimit="10" points="226.3,212.1 173.1,207.1 178.3,212.7 142,215.8 
			195.2,220.8 189.9,215.2 		"/>
		<polygon fill="#FFFFFF" stroke="#FFFFFF" stroke-miterlimit="10" points="230.7,201 190.3,166 191.3,173.5 159.9,154.9 
			200.3,189.9 199.3,182.4 		"/>
		<polygon fill="#FFFFFF" stroke="#FFFFFF" stroke-miterlimit="10" points="244.5,191.6 226.6,141.2 223.8,148.3 205.7,116.6 
			223.6,167 226.4,159.9 		"/>
		<polygon fill="#FFFFFF" stroke="#FFFFFF" stroke-miterlimit="10" points="278.2,227.4 328,247 320.8,249.5 351.9,268.7 
			302.1,249.2 309.3,246.6 		"/>
		<polygon fill="#FFFFFF" stroke="#FFFFFF" stroke-miterlimit="10" points="278.4,212.1 331.6,207.1 326.3,212.7 362.7,215.8 
			309.5,220.8 314.7,215.2 		"/>
		<polygon fill="#FFFFFF" stroke="#FFFFFF" stroke-miterlimit="10" points="274,201 314.4,166 313.3,173.5 344.7,154.9 304.3,189.9 
			305.4,182.4 		"/>
		<polygon fill="#FFFFFF" stroke="#FFFFFF" stroke-miterlimit="10" points="260.2,191.6 278,141.2 280.8,148.3 298.9,116.6 
			281.1,167 278.3,159.9 		"/>
	</g>
	<g>
		<path fill="#FFFFFF" stroke="#FFFFFF" stroke-miterlimit="10" d="M444.1,230.2c-1.5-0.9-6.6-4.4-20.4-7.9
			c-10.5-2.7-18.1-3.2-23.3-3.8c-3.7-0.4-5.6-0.2-7.3-0.6c-1.7-0.6-3.2-1.6-6.7-3.2c-4.7-2.1-11.6-5.5-22-8.4
			c-13.7-3.8-19.9-3.4-21.6-3.3c-1.7,0.1-3,8.1-2.7,9c0.3,0.9,0.8,1.5,0.7,5.7c-0.2,4.2-1.6,8.6,4.5,11.1c6.1,2.5,18.5,6.8,26.2,7.5
			c7.7,0.6,8.3-1.5,9.4-3c1.1-1.5,7.9-10.3,8.5-10.6c1.1-0.7,4.1,0,4.6,1c0.4,0.5,1.7,11.8,1.9,13.6c0.2,1.8-0.4,4,6.6,7.3
			c7,3.3,19.9,5.8,26.5,6.7c6.6,0.9,7.5-3.6,9.5-7.3c1.9-3.7,2.7-3.9,3.4-4.6C442.7,238.6,446.1,231.3,444.1,230.2z M377.3,232.2
			c-2.6,2.6-8.9,1.4-16-0.5c-7.1-1.9-11.6-3.4-15.1-6.8c-3.5-3.4,0-11.6,1.1-16c1.2-4.3,11-1.3,20.3,1.2c6.2,1.7,8.7,2.5,11.8,4.1
			c3.1,1.6,5.3,3.7,4.5,6.4C383.3,223.5,379.8,229.6,377.3,232.2z M430.5,247.6c-4.7,1.2-9.3,0.2-16.5-1.7
			c-7.1-1.9-13.2-4.1-14.1-7.6c-0.9-3.5-0.8-10.6-0.1-13.3c0.7-2.7,3.7-3.4,7.1-3.3c3.5,0.1,6.1,0.7,12.3,2.3
			c9.4,2.5,19.4,4.8,18.2,9.1C436.4,237.5,435.2,246.4,430.5,247.6z"/>
		<path fill="#FFFFFF" stroke="#FFFFFF" stroke-miterlimit="10" d="M415.2,259.9c-2.3-3.1-10-4.9-12-3.1c-1.9,1.9,0.2,3.7,1,3.2
			c0.8-0.6,4.7-0.4,6.3,0.1c1.6,0.6,5.7,3.6,3.4,8.1c-2.4,4.5-7.2,2.9-10.6,1c-3.3-1.9-5.7-5.7-11.7-7.9c-5.3-1.9-9.6,0.1-10.7,0.6
			c-0.6-1-3.4-4.9-8.9-5.9c-6.3-1.2-10.3,0.9-14.1,1c-3.8,0-8.8-1-8.6-6.1c0.2-5.1,5.3-5.7,7-5.4c1.6,0.3,5.1,2.2,5.5,3.1
			c0.4,0.9,3.2,0.3,2.4-2.2c-0.8-2.6-8.3-4.9-11.9-3.3c-3.6,1.5-6,2.9-7.5,8.3c-1.5,5.4,2.3,14.5,5.1,16.4c2.8,1.9,7.7,3.8,11.9,5.2
			c4.2,1.4,8.1,1.8,11.5,1.2c2.2-0.3,3.9-1.4,4.9-2.2c0.4,1.1,1.4,2.9,3.1,4.3c2.7,2.2,6.2,3.8,10.6,4.7c4.4,0.9,9.5,1.8,12.9,1.5
			c3.4-0.3,11.2-6.2,12.6-11.7C419,265.4,417.6,263,415.2,259.9z"/>
		<path fill="#FFFFFF" stroke="#FFFFFF" stroke-miterlimit="10" d="M348.5,201.3c0.8,0.2,1.6-0.3,1.8-1
			c6.6-24.6,31.9-39.3,56.3-32.7c24.5,6.6,39,31.9,32.4,56.5c-0.2,0.8,0.3,1.6,1,1.8c0.8,0.2,1.6-0.3,1.8-1
			c7-26.2-8.5-53.1-34.5-60.1c-26-7-52.9,8.6-59.9,34.8C347.3,200.3,347.8,201.1,348.5,201.3z"/>
	</g>
	<g>
		<path fill="#FFFFFF" stroke="#FFFFFF" stroke-miterlimit="10" d="M163.7,205.1c-1.7,0.4-7.9-0.3-21.6,3.5
			c-10.4,2.9-17.3,6.1-22.1,8.2c-3.4,1.5-5,2.5-6.7,3.1c-1.8,0.4-3.6,0.2-7.3,0.7c-5.2,0.6-12.8,1.2-23.2,3.9
			C69,228,64,231.8,62.4,232.3c-1.7,0.4-2.1,1.2-1.9,1.9c0.2,0.6,1.2,4.6,1.4,5.3c0.2,0.8,1.8,0.7,2.5,1.4c0.7,0.6,1.5,0.8,3.3,4.3
			c1.9,3.5,2.9,8.2,9.5,7.3c6.6-0.9,19.4-3.4,26.4-6.7c7-3.3,6.4-5.8,6.6-7.5c0.2-1.7,1-9,1.2-11.2c0.1-0.8,0.4-1.5,0.8-2
			c0.7-0.5,1.6-1.2,2.1-1.3c0.5-0.1,1.6,0,2.5,0c0.6,0.2,1.2,0.6,1.7,1.3c1.3,1.8,5.6,7.8,6.7,9.1c1,1.4,1.7,3.9,9.4,3.2
			c7.7-0.7,20.1-5,26.2-7.4c6.2-2.5,4.6-7.1,4.5-11c-0.1-3.9,0.4-4.5,0.7-5.4c0.3-0.9,1.7-1.7,1.5-2.5c-0.2-0.8-1.3-4.7-1.4-5.3
			C166.2,205.1,165.4,204.7,163.7,205.1z M107.8,239.5c-1.1,3.6-7.7,5.9-15.5,8c-7.8,2.1-11.8,2.9-16.9,1.8c-5.1-1.1-7.1-9.7-8.2-14
			c-1.2-4.3,9.8-6.8,19.9-9.6c6.7-1.8,9.6-2.4,13.3-2.6c3.8-0.2,6.9,0.5,7.7,3.1C108.9,228.8,108.9,235.9,107.8,239.5z M160.8,226.4
			c-3.8,3.5-7.8,4.8-15.5,6.9c-7.8,2.1-14.6,3.4-17.4,0.8c-2.7-2.5-6.3-8.7-7-11.4c-0.7-2.7,1.7-4.8,5.1-6.5
			c3.4-1.7,6.1-2.6,12.9-4.4c10.2-2.7,20.9-6,22.1-1.7C162.1,214.4,164.6,222.9,160.8,226.4z"/>
		<path fill="#FFFFFF" stroke="#FFFFFF" stroke-miterlimit="10" d="M71.2,193.8l-10-4.3c-0.2,0.4-0.3,0.7-0.4,1.1l9.9,4.2
			C70.8,194.5,71,194.1,71.2,193.8z"/>
		<path fill="#FFFFFF" stroke="#FFFFFF" stroke-miterlimit="10" d="M70,195.9l-9.8-4.2c-0.1,0.4-0.3,0.7-0.4,1.1l9.7,4.1
			C69.7,196.6,69.8,196.3,70,195.9z"/>
		<path fill="#FFFFFF" stroke="#FFFFFF" stroke-miterlimit="10" d="M68.9,198.1l-9.5-4.1c-0.1,0.4-0.2,0.7-0.4,1.1l9.4,4
			C68.6,198.8,68.8,198.4,68.9,198.1z"/>
		<path fill="#FFFFFF" stroke="#FFFFFF" stroke-miterlimit="10" d="M74.9,187.6L64.2,183c-0.2,0.3-0.3,0.7-0.5,1l10.6,4.5
			C74.5,188.2,74.7,187.9,74.9,187.6z"/>
		<path fill="#FFFFFF" stroke="#FFFFFF" stroke-miterlimit="10" d="M73.6,189.6l-10.4-4.4c-0.2,0.3-0.3,0.7-0.5,1l10.3,4.4
			C73.2,190.3,73.4,189.9,73.6,189.6z"/>
		<path fill="#FFFFFF" stroke="#FFFFFF" stroke-miterlimit="10" d="M72.3,191.7l-10.2-4.4c-0.1,0.2-0.1,0.3-0.2,0.5
			c-0.1,0.2-0.2,0.4-0.3,0.6l10.1,4.3C72,192.3,72.2,192,72.3,191.7z"/>
		<path fill="#FFFFFF" stroke="#FFFFFF" stroke-miterlimit="10" d="M76.4,185.6l-11-4.7c-0.2,0.3-0.4,0.7-0.5,1l10.8,4.6
			C75.9,186.2,76.1,185.8,76.4,185.6z"/>
		<path fill="#FFFFFF" stroke="#FFFFFF" stroke-miterlimit="10" d="M65.6,207.1l-8.3-3.5c0,0.4,0,0.8-0.1,1.2l8.5,3.6
			C65.6,208.1,65.6,207.7,65.6,207.1z"/>
		<path fill="#FFFFFF" stroke="#FFFFFF" stroke-miterlimit="10" d="M67,202.5l-8.9-3.8c-0.1,0.4-0.2,0.8-0.2,1.1l8.7,3.7
			C66.7,203.2,66.8,202.8,67,202.5z"/>
		<path fill="#FFFFFF" stroke="#FFFFFF" stroke-miterlimit="10" d="M66.2,204.7l-8.5-3.6c-0.1,0.4-0.1,0.8-0.2,1.2l8.4,3.6
			C65.9,205.5,66,205.1,66.2,204.7z"/>
		<path fill="#FFFFFF" stroke="#FFFFFF" stroke-miterlimit="10" d="M67.9,200.2l-9.2-3.9c-0.1,0.4-0.2,0.7-0.3,1.1l9.1,3.9
			C67.6,200.9,67.8,200.6,67.9,200.2z"/>
		<path fill="#FFFFFF" stroke="#FFFFFF" stroke-miterlimit="10" d="M78,183.7l-11.5-4.9c-0.2,0.3-0.4,0.7-0.6,1l11.3,4.8
			C77.5,184.3,77.8,184,78,183.7z"/>
		<path fill="#FFFFFF" stroke="#FFFFFF" stroke-miterlimit="10" d="M93.6,172.7l0.4-0.9l0.8,0.4c0.5-0.2,1-0.4,1.5-0.6l-1.9-0.8
			l0.5-1.2l3.1,1.3c0.5-0.2,1.1-0.4,1.6-0.6l-4.2-1.8l0.5-1.2l5.6,2.4c0.3-0.1,0.6-0.2,0.8-0.2c0.3-0.1,0.6-0.2,0.9-0.2l-7-3
			l0.5-1.2l8.5,3.6c0.6-0.2,1.3-0.3,1.9-0.4l-10-4.2l0.5-1.2l11.7,5c0.7-0.1,1.4-0.2,2.2-0.3l-13.4-5.7l0.5-1.2l13.7,5.8l-0.4,1
			c3.8-0.4,7.7-0.4,11.9,0.5l-2.1-0.9l0.5-1.2l13.7,5.8l-0.3,0.8c2.9,1.6,6.1,3.6,9,5.5l12.3,5.2l-0.5,1.2l-7.4-3.2
			c0.6,0.5,1.2,1,1.7,1.5c-2.8-2.2-6.9-5-12.9-8c0,0,0,0,0,0l3.2,11.9c3,0.7,6.2,1.6,9.7,2.7c9.1,6.8,8.3,3.9,9.8,0.7
			c0.7-1.5,1.4-5.5-1.7-11.1l-0.5,1.1l-13.7-5.8l0.5-1.2l13.6,5.8c-0.3-0.5-0.7-1.1-1-1.7l-12.1-5.2l0.5-1.2l10.1,4.3
			c-0.5-0.6-1.1-1.3-1.7-2l-8-3.4l0.5-1.2l5.2,2.2c-0.8-0.8-1.8-1.6-2.8-2.4l-2-0.9l0.2-0.5c-0.7-0.6-1.5-1.1-2.3-1.7
			c-1.8-1.2-3.5-2.4-5.3-3.5l-13.5-5.8l0.5-1.1c-4.1-1.6-8.3-2.8-12.6-3.3l3.6,1.6l-0.5,1.2l-7-3c-0.9,0-1.9,0-2.8,0l9.4,4l-0.5,1.2
			l-11.7-5c-0.7,0.1-1.5,0.2-2.3,0.3l13.5,5.7l-0.5,1.2l-13.7-5.8l0.4-1c-1.6,0.2-3.2,0.6-4.9,1l0,0c-0.1,0-0.1,0-0.2,0.1
			c-0.1,0-0.1,0-0.2,0l0,0c-2.7,0.8-5.2,1.7-7.5,2.8l0.6,0.3l-0.5,1.2l-1.6-0.7c-0.4,0.2-0.9,0.5-1.3,0.7l2.5,1.1l-0.5,1.2l-3.4-1.4
			c-0.4,0.2-0.8,0.5-1.2,0.7l4.1,1.7l-0.5,1.2l-4.9-2.1c-0.4,0.3-0.7,0.5-1.1,0.8l5.5,2.3l-0.5,1.2l-6.2-2.6c-0.3,0.3-0.7,0.5-1,0.8
			l6.7,2.9l-0.5,1.2l-7.3-3.1c-0.3,0.3-0.6,0.6-0.9,0.8l7.8,3.3l-0.5,1.2l-8.3-3.5c-0.3,0.3-0.6,0.6-0.9,0.9l8.7,3.7l-0.5,1.2
			l-9.1-3.9c-0.3,0.3-0.5,0.6-0.8,0.9l9.4,4l-0.5,1.2l-9.8-4.2c-0.3,0.3-0.5,0.6-0.7,0.9l10.1,4.3l-0.5,1.2l-10.4-4.4
			c-0.2,0.3-0.5,0.6-0.7,0.9l10.6,4.5l-0.5,1.2l-10.9-4.6c-0.2,0.3-0.4,0.6-0.7,1l11.1,4.7l-0.5,1.2L69,174.6
			c-0.2,0.3-0.4,0.6-0.6,1l11.5,4.9l-0.5,1.2l-11.7-5c-0.2,0.3-0.4,0.7-0.6,1l11.8,5C83.4,178.3,88.5,175,93.6,172.7z M155.5,186.8
			l-1.5-0.6c-0.5-0.7-1.3-1.5-2.3-2.3l4.2,1.8L155.5,186.8z M144.1,175.4l13.7,5.8l-0.5,1.2l-13.7-5.8L144.1,175.4z M126.1,157.2
			l13.7,5.8l-0.5,1.2l-13.7-5.8L126.1,157.2z M125.2,159.4l13.7,5.8l-0.5,1.2l-13.7-5.8L125.2,159.4z M124.2,161.6l13.7,5.8
			l-0.5,1.2l-13.7-5.8L124.2,161.6z M123.3,163.8l13.7,5.8l-0.5,1.2l-13.7-5.8L123.3,163.8z M101.5,154.1l13.7,5.8l-0.5,1.2
			l-13.7-5.8L101.5,154.1z M100.6,156.3l13.7,5.8l-0.5,1.2l-13.7-5.8L100.6,156.3z M99.6,158.5l13.7,5.8l-0.5,1.2l-13.7-5.8
			L99.6,158.5z"/>
		<path fill="#FFFFFF" stroke="#FFFFFF" stroke-miterlimit="10" d="M127.9,184.3c0.4,0.1,0.8,0.1,1.2,0.2l-3.9-14.3
			c-0.4-0.1-0.8-0.2-1.3-0.3L127.9,184.3z"/>
		<path fill="#FFFFFF" stroke="#FFFFFF" stroke-miterlimit="10" d="M80.2,201.1c0.3-0.3,0.6-0.6,1-0.9L77.6,187
			c-0.3,0.4-0.6,0.7-0.9,1.1L80.2,201.1z"/>
		<path fill="#FFFFFF" stroke="#FFFFFF" stroke-miterlimit="10" d="M125.3,184c0.4,0,0.8,0.1,1.2,0.1l-3.9-14.5
			c-0.4-0.1-0.8-0.1-1.2-0.2L125.3,184z"/>
		<path fill="#FFFFFF" stroke="#FFFFFF" stroke-miterlimit="10" d="M122.8,183.8c0.4,0,0.8,0,1.2,0.1l-3.9-14.7
			c-0.4,0-0.8-0.1-1.2-0.1L122.8,183.8z"/>
		<path fill="#FFFFFF" stroke="#FFFFFF" stroke-miterlimit="10" d="M133.1,185.1c0.4,0.1,0.8,0.2,1.2,0.2l-3.6-13.6
			c-0.4-0.2-0.9-0.3-1.3-0.5L133.1,185.1z"/>
		<path fill="#FFFFFF" stroke="#FFFFFF" stroke-miterlimit="10" d="M138.4,186.1c0.4,0.1,0.8,0.2,1.3,0.3l-3.3-12.3
			c-0.5-0.2-0.9-0.4-1.4-0.6L138.4,186.1z"/>
		<path fill="#FFFFFF" stroke="#FFFFFF" stroke-miterlimit="10" d="M135.7,185.6c0.4,0.1,0.8,0.2,1.3,0.3l-3.5-13
			c-0.4-0.2-0.9-0.4-1.3-0.5L135.7,185.6z"/>
		<path fill="#FFFFFF" stroke="#FFFFFF" stroke-miterlimit="10" d="M130.5,184.6c0.4,0.1,0.8,0.1,1.2,0.2l-3.8-14
			c-0.4-0.1-0.9-0.3-1.3-0.4L130.5,184.6z"/>
		<path fill="#FFFFFF" stroke="#FFFFFF" stroke-miterlimit="10" d="M120.3,183.7c0.4,0,0.8,0,1.2,0l-4-14.7c-0.4,0-0.8,0-1.2,0
			L120.3,183.7z"/>
		<path fill="#FFFFFF" stroke="#FFFFFF" stroke-miterlimit="10" d="M110.5,184.4c0.4-0.1,0.8-0.1,1.1-0.2l-3.9-14.4
			c-0.4,0.1-0.7,0.2-1.1,0.3L110.5,184.4z"/>
		<path fill="#FFFFFF" stroke="#FFFFFF" stroke-miterlimit="10" d="M108.2,184.9c0.4-0.1,0.7-0.2,1.1-0.2l-3.8-14.2
			c-0.4,0.1-0.7,0.2-1.1,0.3L108.2,184.9z"/>
		<path fill="#FFFFFF" stroke="#FFFFFF" stroke-miterlimit="10" d="M112.9,184.1c0.4,0,0.8-0.1,1.1-0.1l-3.9-14.5
			c-0.4,0.1-0.8,0.1-1.1,0.2L112.9,184.1z"/>
		<path fill="#FFFFFF" stroke="#FFFFFF" stroke-miterlimit="10" d="M115.3,183.8c0.4,0,0.8-0.1,1.2-0.1l-3.9-14.6
			c-0.4,0-0.8,0.1-1.1,0.1L115.3,183.8z"/>
		<path fill="#FFFFFF" stroke="#FFFFFF" stroke-miterlimit="10" d="M117.8,183.7c0.4,0,0.8,0,1.2,0l-4-14.7c-0.4,0-0.8,0-1.2,0
			L117.8,183.7z"/>
		<path fill="#FFFFFF" stroke="#FFFFFF" stroke-miterlimit="10" d="M66.8,215.4l-8.5-3.6c0.2,0.6,0.4,1.1,0.6,1.5l7.6,3.3l-0.5,1.2
			l-5.9-2.6c0.6,0.8,1.2,1.3,1.7,1.6c4.1,2.3,4.9,2.5,5.9-2c0.2-0.7,0.3-1.3,0.4-2c0.5-0.3,1-0.7,1.5-1.3c2.6-2.8,5-5.3,7.4-7.6
			L73.9,192c-5.5,8.5-7.8,14.3-8.4,17.7l-8.3-3.5c0,0.4,0,0.9,0.1,1.3l8.1,3.4c0,0.6,0.1,1.1,0.2,1.5l-8.1-3.4
			c0.1,0.5,0.2,0.9,0.3,1.4l9.1,3.9L66.8,215.4z"/>
		<path fill="#FFFFFF" stroke="#FFFFFF" stroke-miterlimit="10" d="M101.3,187c0.4-0.1,0.7-0.3,1.1-0.4l-3.8-14.2
			c-0.4,0.1-0.7,0.3-1.1,0.4L101.3,187z"/>
		<path fill="#FFFFFF" stroke="#FFFFFF" stroke-miterlimit="10" d="M99,188c0.4-0.2,0.7-0.3,1.1-0.5l-3.8-14.2
			c-0.4,0.1-0.7,0.3-1.1,0.4L99,188z"/>
		<path fill="#FFFFFF" stroke="#FFFFFF" stroke-miterlimit="10" d="M94.7,190.2c0.3-0.2,0.7-0.4,1-0.6l-3.9-14.3
			c-0.3,0.2-0.7,0.4-1,0.6L94.7,190.2z"/>
		<path fill="#FFFFFF" stroke="#FFFFFF" stroke-miterlimit="10" d="M96.8,189c0.3-0.2,0.7-0.4,1-0.5L94,174.2
			c-0.3,0.2-0.7,0.3-1,0.5L96.8,189z"/>
		<path fill="#FFFFFF" stroke="#FFFFFF" stroke-miterlimit="10" d="M103.5,186.2c0.4-0.1,0.7-0.2,1.1-0.4l-3.8-14.1
			c-0.4,0.1-0.7,0.2-1.1,0.3L103.5,186.2z"/>
		<path fill="#FFFFFF" stroke="#FFFFFF" stroke-miterlimit="10" d="M78.2,202.9c0.3-0.3,0.6-0.6,0.9-0.9l-3.4-12.6
			c-0.3,0.4-0.6,0.8-0.9,1.2L78.2,202.9z"/>
		<path fill="#FFFFFF" stroke="#FFFFFF" stroke-miterlimit="10" d="M105.8,185.5c0.2-0.1,0.4-0.1,0.6-0.2c0.2,0,0.4-0.1,0.5-0.1
			l-3.8-14.1c-0.4,0.1-0.7,0.2-1.1,0.3L105.8,185.5z"/>
		<path fill="#FFFFFF" stroke="#FFFFFF" stroke-miterlimit="10" d="M84.2,197.6c0.3-0.3,0.6-0.5,1-0.8l-3.7-13.9
			c-0.3,0.3-0.6,0.6-0.9,0.9L84.2,197.6z"/>
		<path fill="#FFFFFF" stroke="#FFFFFF" stroke-miterlimit="10" d="M86.3,195.9c0.3-0.3,0.7-0.5,1-0.8l-3.8-14.1
			c-0.3,0.3-0.6,0.6-1,0.8L86.3,195.9z"/>
		<path fill="#FFFFFF" stroke="#FFFFFF" stroke-miterlimit="10" d="M82.2,199.3c0.3-0.3,0.6-0.6,1-0.8l-3.7-13.6
			c-0.3,0.3-0.6,0.7-0.9,1L82.2,199.3z"/>
		<path fill="#FFFFFF" stroke="#FFFFFF" stroke-miterlimit="10" d="M90.4,192.9c0.3-0.2,0.7-0.5,1-0.7l-3.8-14.3
			c-0.3,0.2-0.7,0.5-1,0.7L90.4,192.9z"/>
		<path fill="#FFFFFF" stroke="#FFFFFF" stroke-miterlimit="10" d="M92.5,191.5c0.3-0.2,0.7-0.4,1-0.6l-3.9-14.3
			c-0.3,0.2-0.7,0.4-1,0.6L92.5,191.5z"/>
		<path fill="#FFFFFF" stroke="#FFFFFF" stroke-miterlimit="10" d="M88.3,194.4c0.3-0.2,0.7-0.5,1-0.7l-3.8-14.2
			c-0.3,0.2-0.7,0.5-1,0.8L88.3,194.4z"/>
		<path fill="#FFFFFF" stroke="#FFFFFF" stroke-miterlimit="10" d="M143.7,288.4c0-1.4-1.5-6-1.5-6s-1.3-1.8-1.8-1.9
			c-0.2,0-5.3,2.2-10.2,3.5c-4.8,1.3-9.6,1.7-9.7,1.8c-0.4,0.3-0.6,2.5-0.6,2.5s0.8,5.2,1.6,6.4c1.2,1.9,4.4,5.1,5.3,5.1
			c0.3,0,0.7,0.1,1.1,0.3c-2.9-7.3-1.8-8.5-1.8-8.5s0.9,3.7,1.5,6c0.3,1,0.9,2.1,1.5,3.1c0.4,0.1,0.8,0.2,1.2,0.2c0.1,0,0.2,0,0.3,0
			c-2-4.6-1.8-7.1-1.8-7.1s0.9,3.1,1.5,5c0.3,0.7,1.2,1.9,1.8,2.7c0.6,0.2,0.6,0,1.4,0.2c0.5,0.1,2.7,0.4,2.7,0.4
			c0.4-0.2,0.4-1,0.8-1.4c0.8-0.7,0.2-0.4,1.2-1c0-0.9,0.3-2.9,0.1-3.7c-0.5-1.9-1-4.9-1-4.9s2.5,6.7,2.5,7.7
			c0.6-1.3,0.9-1.5,1.3-2.1c0.1-1.1-0.1-2.1-0.2-3.1c-0.3-2.6-0.9-6.4-0.9-6.4s2.3,6.8,2.2,7.8c0,0.1,0.5-0.7,0.5-0.5
			C143.5,291.8,143.7,291.1,143.7,288.4z"/>
	</g>
</g>
</svg>
