<?xml version="1.0" encoding="utf-8"?>
<!-- Generator: Adobe Illustrator 18.1.1, SVG Export Plug-In . SVG Version: 6.00 Build 0)  -->
<svg version="1.1" id="Layer_1" xmlns="http://www.w3.org/2000/svg" xmlns:xlink="http://www.w3.org/1999/xlink" x="0px" y="0px"
	 viewBox="0 0 960 560" enable-background="new 0 0 960 560" xml:space="preserve">
<g>
	<g>
		<g id="XMLID_1_">
			<g>
				<path fill="#FFFFFF" d="M795.9,259.1c3,1.8-2.2,12.6-3.2,13.6c-1.1,1-2.2,1.4-5.1,6.9c-2.9,5.5-4.3,12.3-14.1,10.9
					s-29-4.9-39.4-9.9c-10.5-5-9.6-8.2-9.9-10.9c-0.3-2.7-2.3-19.5-2.9-20.2c-0.6-1.6-5.2-2.6-6.8-1.5c-0.9,0.3-11.1,13.6-12.7,15.8
					c-1.6,2.2-2.5,5.4-14,4.5c-11.5-0.9-29.9-7.4-39.1-11.1c-9.1-3.7-7-10.2-6.8-16.4l6.2-0.6c-0.8,4.5-0.8,8.7,1.8,11.2
					c5.2,5.1,11.9,7.3,22.5,10.1c10.6,2.9,20.1,4.6,23.9,0.7c3.8-3.9,8.9-13.1,10-17.1c1.1-4-2.2-7.1-6.8-9.6
					c-4.6-2.4-8.3-3.7-17.6-6.1c-13.9-3.7-28.6-8.3-30.3-1.8c-0.6,2.2-1.5,4.9-2.4,7.9l-7.5-0.6c-0.2-1.4-0.6-2-0.8-2.8
					c-0.4-1.4,1.5-13.3,4-13.4c2.6-0.1,11.8-0.7,32.2,4.9c15.5,4.3,25.8,9.3,32.8,12.5c5.1,2.3,7.3,3.9,9.9,4.7
					c2.7,0.5,5.4,0.3,11,0.9c7.7,0.8,19.1,1.6,34.7,5.6C786.1,252.5,793.7,257.8,795.9,259.1z M786,263.6
					c1.7-6.5-13.2-9.9-27.2-13.6c-9.2-2.5-13.1-3.3-18.3-3.5c-5.2-0.2-9.6,0.9-10.6,4.9c-1.1,4-1.3,14.5,0.1,19.8s10.4,8.5,21,11.3
					c10.6,2.8,17.5,4.3,24.5,2.5C782.6,283.3,784.3,270.1,786,263.6z"/>
				<path fill="#FFFFFF" d="M741.2,161.5c38.8,10.4,61.8,50.6,51.4,89.5c-0.3,1.2-1.5,1.9-2.7,1.5c-1.2-0.3-1.9-1.5-1.5-2.7
					c9.8-36.7-11.8-74.4-48.3-84.2c-36.5-9.8-74.1,12.1-83.9,48.8c-0.3,1.2-1.5,1.9-2.7,1.6c-1.2-0.3-1.9-1.5-1.5-2.7
					C662.4,174.4,702.4,151.1,741.2,161.5z"/>
				<path fill="#FFFFFF" d="M752.8,303.4c3.5,4.7,5.7,8.2,3.5,16.3c-2.2,8.1-13.8,16.9-18.8,17.4c-5,0.4-12.7-0.9-19.2-2.2
					c-6.5-1.3-11.8-3.7-15.8-7c-2.6-2.1-4-4.8-4.7-6.4c-1.4,1.1-3.9,2.7-7.2,3.2c-5.1,0.8-10.9,0.2-17.2-1.9
					c-5.6-1.8-12-4.2-16.3-6.8l1.2,0.5l-3.8-2.3c0,0,0,0,0,0c-4-4.1-8.6-16.1-6.6-23.6c2.2-8.1,5.8-10,11.2-12.3
					c5.3-2.3,16.6,1.1,17.7,4.9c1.1,3.8-3,4.7-3.6,3.3c-0.6-1.3-5.8-4.1-8.2-4.5c-2.4-0.5-10.1,0.4-10.4,8
					c-0.3,7.6,7.2,9.2,12.9,9.1c5.7,0,11.7-3.2,21-1.4c8.2,1.5,12.3,7.3,13.3,8.8c1.5-0.8,8.1-3.7,15.9-1c9,3.2,12.6,8.9,17.5,11.8
					c4.9,2.9,12.2,5.2,15.7-1.5c3.6-6.7-2.7-11.3-5-12.1c-2.3-0.8-8.2-1-9.4-0.2c-1.2,0.9-4.4-2-1.5-4.7
					C737.9,296,749.4,298.7,752.8,303.4z"/>
				<path fill="#FFFFFF" d="M674.5,237.7l-26.4,2.5c0.3-1.5,0.7-3.1,1.1-4.6L674.5,237.7z"/>
				<path fill="#FFFFFF" d="M658.4,316.5l-1.2-0.5c-0.5-0.3-1-0.6-1.5-1c-0.3-0.2-0.7-0.5-1-0.9L658.4,316.5z"/>
				<path fill="#FFFFFF" d="M657.1,316l-72.9-28.6l10.7-3.8L548.7,255l74.1,29.1l-10.7,3.8l42.5,26.2c0,0,0,0,0,0
					c0.3,0.4,0.7,0.6,1,0.9C656.1,315.4,656.6,315.7,657.1,316z"/>
				<path fill="#FFFFFF" d="M641.7,234.9l7.5,0.6c-0.4,1.5-0.8,3.1-1.1,4.6l-6.2,0.6c0-0.1,0-0.1,0-0.2
					C642,237.7,641.9,236,641.7,234.9z"/>
				<polygon fill="#FFFFFF" points="647.8,146.9 587.6,199.1 589.2,187.9 542.4,215.6 602.6,163.4 601,174.7 				"/>
				<path fill="#FFFFFF" d="M641.7,234.9c0.2,1.2,0.3,2.9,0.2,5.7c0,0.1,0,0.1,0,0.2l-46.7,4.4l7.8-8.2l-54.2-4.6l79.3-7.4l-7.8,8.2
					L641.7,234.9z"/>
				<polygon fill="#FFFFFF" points="579.6,89.9 552.9,164.9 548.8,154.4 521.8,201.6 548.4,126.5 552.6,137.1 				"/>
				<path fill="#FFFFFF" d="M559.8,275.1v9.3h-2.4v35.7c0,24.4-18.6,44.6-42.4,46.9v70.4h15.3v2.6h5.9v6h-51.8v-6h5.9v-2.6h15.3V367
					c-23.8-2.4-42.4-22.5-42.4-46.9v-35.7h-2.4v-9.3h2.4v-3.5h9.4v48.5c0,20.8,16.9,37.7,37.7,37.7c20.8,0,37.7-16.9,37.7-37.7
					v-48.5h9.4v3.5H559.8z"/>
				<path fill="#FFFFFF" d="M542,283.5l0-0.2l0-0.2h0.1h0c0,0,0.1,0,0.1,0c0,0,0,0,0.1,0c0.1,0,0.1,0.1,0.1,0.2
					c0,0.1-0.1,0.1-0.2,0.2c0,0,0,0-0.1,0C542.2,283.5,542.1,283.5,542,283.5L542,283.5L542,283.5z"/>
				<path fill="#BE1E2D" d="M542,283.4l0,0.2h0.1h0c0,0,0.1,0,0.1,0c0,0,0,0,0.1,0c0.1,0,0.1-0.1,0.2-0.2c0-0.1,0-0.1-0.1-0.2
					c0,0,0,0-0.1,0c0,0,0,0-0.1,0h0h-0.1L542,283.4z M541.9,283.4l0-0.3v0h0.2c0,0,0.1,0,0.1,0c0,0,0.1,0,0.1,0
					c0.1,0,0.2,0.1,0.2,0.2c0,0,0,0,0,0c0,0.1-0.1,0.2-0.2,0.3l0.1,0.4h-0.1l-0.1-0.4h-0.1h0H542l-0.1,0.4h-0.1c0,0,0,0,0,0l0.1-0.4
					v0L541.9,283.4z"/>
				<path fill="#FFFFFF" d="M542,283.1l0,0.3l-0.1,0.3v0l-0.1,0.4c0,0,0,0,0,0h0.1l0.1-0.4h0.1h0h0.1l0.1,0.4h0.1l-0.1-0.4
					c0.1,0,0.2-0.1,0.2-0.3c0,0,0,0,0,0c0-0.1-0.1-0.2-0.2-0.2c0,0,0,0-0.1,0c0,0-0.1,0-0.1,0L542,283.1L542,283.1z M541.5,283.5
					c0-0.4,0.4-0.7,0.8-0.7s0.6,0.3,0.6,0.7c0,0.4-0.4,0.7-0.8,0.7C541.7,284.2,541.4,283.9,541.5,283.5z"/>
				<path fill="#BE1E2D" d="M542.2,282.9c-0.4,0-0.7,0.3-0.8,0.7c0,0.4,0.2,0.7,0.6,0.7c0.4,0,0.7-0.3,0.8-0.7
					C542.9,283.2,542.6,282.9,542.2,282.9z M542.1,284.3c-0.4,0-0.8-0.4-0.7-0.8c0-0.1,0-0.1,0-0.2c0.1-0.4,0.4-0.6,0.8-0.6
					c0.4,0,0.8,0.4,0.7,0.8C542.9,284,542.5,284.3,542.1,284.3z"/>
				<path fill="#FFFFFF" d="M539.6,280.1c-0.3,0.3-0.9,0.4-1.9,0.4h0v0c0.2-0.6,0.7-1.2,1.4-1.2c0.4,0,0.6,0.2,0.6,0.5
					C539.7,279.9,539.7,280,539.6,280.1z"/>
				<path fill="#FFFFFF" d="M537.7,280.5c1,0,1.7-0.1,1.9-0.4c0.1-0.1,0.1-0.2,0.1-0.4c0-0.3-0.3-0.5-0.6-0.5
					C538.3,279.3,537.8,279.9,537.7,280.5L537.7,280.5L537.7,280.5z M541,281c-0.6,0.6-1.7,0.9-3.5,0.8h0v0c0,0.2,0.1,0.4,0.2,0.6
					c0.2,0.3,0.7,0.5,1.2,0.5c0.8,0,1.4-0.2,2.1-0.6h0l-0.2,1l-0.1,0.6c0,0,0,0,0,0c-0.9,0.4-1.9,0.5-2.3,0.5
					c-1.4,0-2.4-0.7-2.6-1.9c0-0.2-0.1-0.4-0.1-0.7c0-0.9,0.3-1.9,1-2.6c0.7-0.8,1.6-1.2,2.6-1.2c1.3,0,2.1,0.7,2.1,1.9
					C541.5,280.3,541.3,280.7,541,281z"/>
				<path fill="#FFFFFF" d="M530.9,281c0.4-1.8,1.9-3.1,3.9-3.1c0.5,0,0.9,0.1,1.2,0.2c0,0,0,0,0,0l-0.3,1.5c0,0,0,0,0,0s0,0,0,0
					c-0.3-0.2-0.6-0.2-1-0.2c-1.3,0-2.1,1.1-2.1,2.2c0,0.9,0.6,1.2,1.2,1.2c0.5,0,1-0.1,1.5-0.4c0,0,0,0,0,0v0l-0.3,1.5
					c-0.4,0.2-1.1,0.3-1.7,0.3c-1.6,0-2.6-1-2.6-2.5C530.8,281.5,530.9,281.3,530.9,281z"/>
				<path fill="#FFFFFF" d="M526.6,281.8c0-0.7,0.4-1.6,0.8-2.1c0.2-0.2,0.5-0.4,0.7-0.4c0.4,0,0.6,0.2,0.6,0.7c0,0.1,0,0.3,0,0.5
					c0,0.2-0.1,0.4-0.1,0.7c-0.2,1-0.8,1.7-1.4,1.7C526.9,282.9,526.6,282.5,526.6,281.8z"/>
				<path fill="#FFFFFF" d="M526.5,284.3c-1.2,0-1.8-1.1-1.8-2.1c0-0.3,0-0.6,0.1-0.9c0.2-0.9,0.6-1.7,1.2-2.3c0.7-0.7,1.5-1,2.5-1
					c0.7,0,1.3,0.2,1.6,0.6c0.5,0.6,0.5,1.5,0.3,2.2l0,0.2l-0.6,3.2c0,0,0,0,0,0h-1.7c0,0,0,0,0,0l0.1-0.8c0,0,0,0,0,0c0,0,0,0,0,0
					C527.9,284,527.3,284.3,526.5,284.3z M527.5,279.7c-0.5,0.5-0.8,1.4-0.8,2.1c0,0.6,0.2,1,0.7,1c0.7,0,1.2-0.7,1.4-1.7
					c0-0.2,0.1-0.5,0.1-0.7c0-0.2,0-0.4,0-0.5c0-0.4-0.2-0.7-0.6-0.7C528,279.3,527.7,279.4,527.5,279.7z"/>
				<path fill="#FFFFFF" d="M522.8,280.4c0,1.2-0.7,2.6-1.7,2.6c-0.8,0-0.6-1.2-0.5-1.6c0.2-1.2,0.8-1.9,1.5-1.9
					C522.7,279.4,522.8,280.1,522.8,280.4z"/>
				<path fill="#FFFFFF" d="M521.1,283c1,0,1.7-1.4,1.7-2.6c0-0.3-0.1-1-0.7-1c-0.7,0-1.2,0.8-1.5,1.9
					C520.5,281.8,520.3,283,521.1,283z M518.5,282.6l0.9-4.6c0,0,0,0,0,0l1.6,0c0,0,0,0,0,0c0,0,0,0,0,0l-0.2,0.8c0,0,0,0,0,0
					c0,0,0,0,0,0l0,0c0.5-0.6,1.1-0.9,1.8-0.9c1.2,0,2,0.9,2,2.3c0,0.3,0,0.6-0.1,1c-0.2,1.1-0.9,2.2-1.9,2.8
					c-1.2,0.6-2.2,0.4-2.6-0.1l-0.4,2.3c0,0,0,0,0,0h-1.8c0,0,0,0,0,0c0,0,0,0,0,0L518.5,282.6z"/>
				<path fill="#FFFFFF" d="M518.1,282.2c0,0.1,0,0.3,0,0.4c-0.1,0.4-0.2,0.7-0.5,1c-0.5,0.5-1.3,0.8-2.3,0.8
					c-0.7,0-1.5-0.2-1.9-0.5c0,0,0,0,0,0l0.3-1.4v0c0,0,0,0,0,0c0.4,0.3,1.2,0.5,1.8,0.5c0.5,0,0.8-0.2,0.8-0.5
					c0-0.3-0.2-0.5-0.8-0.8c-0.9-0.4-1.3-1-1.3-1.6c0-1.3,1.1-2.1,2.7-2.1c0.8,0,1.3,0.2,1.6,0.3c0,0,0,0,0,0l-0.2,1.4h0
					c0,0,0,0,0,0c-0.3-0.2-0.8-0.3-1.4-0.3c-0.5,0-0.8,0.2-0.8,0.5c0,0.2,0.2,0.5,0.7,0.7C517.4,280.8,518.1,281.3,518.1,282.2z"/>
				<path fill="#FFFFFF" d="M512,280.9l1.4,3l0.1,0.3v0c0,0,0,0,0,0h-1.9h0l-1.5-3.3v0l0-0.1c0,0,0,0,0,0l2.4-2.8c0,0,0,0,0,0h2
					c0,0,0,0,0,0c0,0,0,0,0,0L512,280.9z"/>
				<path fill="#FFFFFF" d="M510.1,280.8C510.1,280.8,510.1,280.8,510.1,280.8L510.1,280.8l0,0.1c0,0,0,0,0,0l-0.6,3.2c0,0,0,0,0,0
					h-1.8v0l0.3-1.6l1.3-6.7v0h1.8l0,0L510.1,280.8z"/>
				<path fill="#FFFFFF" d="M506.8,279.4c-1.3,0-2.1,1.1-2.1,2.2c0,0.9,0.6,1.2,1.2,1.2c0.5,0,0.9-0.1,1.5-0.4h0c0,0,0,0,0,0
					l-0.3,1.5c0,0,0,0,0,0c-0.4,0.2-1.1,0.3-1.7,0.3c-1.6,0-2.6-1-2.6-2.5c0-0.3,0-0.5,0.1-0.8c0.4-1.8,1.9-3.1,3.9-3.1
					c0.5,0,0.9,0.1,1.2,0.2c0,0,0,0,0,0l-0.3,1.5c0,0,0,0,0,0h0C507.5,279.5,507.1,279.4,506.8,279.4z"/>
				<path fill="#FFFFFF" d="M500.2,279.3c0.4,0,0.6,0.2,0.6,0.7c0,0.1,0,0.3,0,0.5c0,0.2-0.1,0.4-0.1,0.7c-0.2,1-0.8,1.7-1.4,1.7
					c-0.4,0-0.6-0.4-0.6-1c0-0.7,0.4-1.6,0.9-2.1C499.7,279.4,499.9,279.3,500.2,279.3z"/>
				<path fill="#FFFFFF" d="M500.1,284.2l0.1-0.8c0,0,0,0,0,0c0,0,0,0,0,0c-0.3,0.6-1,0.9-1.7,0.9c-1.2,0-1.8-1.1-1.8-2.1
					c0-0.8,0.2-1.6,0.6-2.3c0.2-0.4,0.4-0.7,0.7-0.9c0.7-0.7,1.5-1,2.5-1c0.7,0,1.3,0.2,1.6,0.6c0.5,0.6,0.5,1.5,0.3,2.2l0,0.2
					l-0.6,3.2c0,0,0,0,0,0L500.1,284.2C500.1,284.2,500.1,284.2,500.1,284.2L500.1,284.2z M500.6,281.1c0-0.2,0.1-0.5,0.1-0.7
					c0-0.2,0.1-0.4,0-0.5c0-0.4-0.2-0.7-0.6-0.7c-0.2,0-0.5,0.1-0.7,0.4c-0.5,0.5-0.9,1.4-0.9,2.1c0,0.6,0.2,1,0.6,1
					C499.9,282.9,500.5,282.2,500.6,281.1z"/>
				<polygon fill="#FFFFFF" points="471.8,126.5 498.5,201.6 471.5,154.4 467.3,164.9 440.6,89.9 467.6,137.1 				"/>
				<path fill="#FFFFFF" d="M495.2,279.1C495.2,279.1,495.2,279.1,495.2,279.1c0.5-0.8,1.1-1.2,1.9-1.2c0.1,0,0.2,0,0.3,0
					c0,0,0,0,0,0l-0.4,1.8h0c-0.1,0-0.2,0-0.3,0c-1.2,0-1.7,1.2-1.9,2.2l-0.4,2.3c0,0,0,0,0,0h-1.8c0,0,0,0,0,0l1-5.4h0l0.1-0.8
					c0,0,0,0,0,0h1.6c0,0,0,0,0,0L495.2,279.1C495.1,279.1,495.1,279.1,495.2,279.1z"/>
				<path fill="#FFFFFF" d="M518.4,278.2C518.4,278.2,518.4,278.2,518.4,278.2c-0.3-0.2-0.8-0.3-1.6-0.3c-1.6,0-2.7,0.9-2.7,2.1
					c0,0.6,0.4,1.2,1.3,1.6c0.5,0.3,0.8,0.5,0.8,0.8c0,0.3-0.3,0.5-0.8,0.5c-0.6,0-1.4-0.3-1.8-0.5c0,0,0,0,0,0v0l-0.3,1.4
					c0,0,0,0,0,0l-0.1,0l-1.4-3l2.5-2.8c0,0,0,0,0,0c0,0,0,0,0,0h-2c0,0,0,0,0,0l-2.4,2.8c0,0,0,0,0,0c0,0,0,0,0,0l0.9-4.9l0,0h-1.8
					v0l-1.3,6.7l-0.5-0.1c0,0,0,0,0,0h0c-0.6,0.3-1,0.4-1.5,0.4c-0.6,0-1.2-0.3-1.2-1.2c0-1.1,0.8-2.2,2.1-2.2c0.4,0,0.7,0.1,1,0.2
					h0c0,0,0,0,0,0l0.3-1.5c0,0,0,0,0,0c-0.3-0.1-0.8-0.2-1.2-0.2c-2,0-3.6,1.3-3.9,3.1l-0.4-0.1l0-0.2c0.1-0.7,0.2-1.6-0.3-2.2
					c-0.3-0.4-0.9-0.6-1.6-0.6c-1,0-1.8,0.4-2.5,1c-0.3,0.3-0.5,0.6-0.7,0.9l-0.3-0.2l0.4-1.8c0,0,0,0,0,0c-0.1,0-0.2,0-0.3,0
					c-0.7,0-1.4,0.4-1.9,1.2c0,0,0,0,0,0c0,0,0,0,0,0l0.2-1.1c0,0,0,0,0,0h-1.6c0,0,0,0,0,0l-0.1,0.8h0l-2.2-0.4
					c0.1-0.5,0.1-1.1,0.1-1.6c-0.2-3-2.5-5-5.5-4.8c-0.3,0.3-0.6,0.6-0.8,0.9h0c0,0,0,0,0,0c0.4,0,0.7-0.1,1-0.1
					c0.9,0,1.7,0.2,2.4,0.5l-0.2,0.3c-1.1-0.4-2.4-0.5-3.8-0.2c-3.5,0.9-6.1,4.2-6.1,7.5h-2.2v-16.9h68.1v19.3h-1.4
					c0-0.4-0.3-0.8-0.7-0.8c-0.4,0-0.7,0.3-0.8,0.6l-0.6-0.1l0.2-1h0c-0.7,0.4-1.4,0.6-2.1,0.6c-0.5,0-0.9-0.2-1.2-0.5
					c-0.1-0.2-0.2-0.4-0.2-0.6v0h0c1.7,0,2.8-0.2,3.5-0.8c0.3-0.3,0.5-0.7,0.5-1.2c0-1.1-0.9-1.9-2.1-1.9c-1,0-2,0.4-2.6,1.2
					c-0.6,0.7-1,1.7-1,2.6c0,0.2,0,0.5,0.1,0.7l-0.4,0.1v0c0,0,0,0,0,0c-0.5,0.3-1,0.4-1.5,0.4c-0.6,0-1.2-0.3-1.2-1.2
					c0-1.1,0.8-2.2,2.1-2.2c0.4,0,0.7,0.1,1,0.2c0,0,0,0,0,0s0,0,0,0l0.3-1.5c0,0,0,0,0,0c-0.3-0.1-0.8-0.2-1.2-0.2
					c-2,0-3.6,1.3-3.9,3.1l-0.4-0.1l0-0.2c0.1-0.7,0.2-1.6-0.3-2.2c-0.4-0.4-0.9-0.6-1.6-0.6c-1,0-1.8,0.4-2.5,1
					c-0.6,0.6-1,1.4-1.2,2.3l-0.3-0.1c0.1-0.3,0.1-0.6,0.1-1c0-1.4-0.8-2.3-2-2.3c-0.7,0-1.3,0.3-1.8,0.9l0,0c0,0,0,0,0,0
					c0,0,0,0,0,0l0.2-0.8c0,0,0,0,0,0c0,0,0,0,0,0l-1.6,0c0,0,0,0,0,0l-0.9,4.6l-0.4-0.1c0-0.1,0-0.3,0-0.4c0-0.9-0.7-1.4-1.4-1.7
					c-0.5-0.2-0.7-0.4-0.7-0.7c0-0.3,0.3-0.5,0.8-0.5c0.6,0,1.1,0.2,1.4,0.3c0,0,0,0,0,0h0L518.4,278.2z"/>
				<path fill="#FFFFFF" d="M532.5,218.6c0-1.8-1.5-3.3-3.3-3.3c-1.8,0-3.3,1.5-3.3,3.3c0,1.8,1.5,3.3,3.3,3.3
					C531.1,221.9,532.5,220.4,532.5,218.6z M480.6,226.8c3.5-8.2,11-15,20.3-17.8c0.5,1.2,1.7,2,3,2c1.8,0,3.3-1.5,3.3-3.3
					c1-0.1,2-0.1,3-0.1c1,0,2.1,0.1,3.1,0.1c0,1.8,1.5,3.3,3.3,3.3c1.4,0,2.6-0.9,3-2c9.3,2.8,16.8,9.6,20.3,17.8
					c-0.8,0.6-1.3,1.5-1.3,2.6c0,1.7,1.4,3.1,3.1,3.2c0.3,1.4,0.4,2.9,0.4,4.3c-0.1,0-0.1,0-0.2,0c-1.8,0-3.3,1.5-3.3,3.3
					s1.5,3.3,3.3,3.3c0.1,0,0.1,0,0.2,0v4.3c-0.1,0-0.1,0-0.2,0c-1.8,0-3.3,1.5-3.3,3.3c0,1.8,1.5,3.3,3.3,3.3c0.1,0,0.1,0,0.2,0
					v4.3h-63.7v-4.3c0.1,0,0.1,0,0.2,0c1.8,0,3.3-1.5,3.3-3.3c0-1.8-1.5-3.3-3.3-3.3c-0.1,0-0.1,0-0.2,0v-4.3c0.1,0,0.1,0,0.2,0
					c1.8,0,3.3-1.5,3.3-3.3s-1.5-3.3-3.3-3.3c-0.1,0-0.1,0-0.2,0c0-1.4,0.2-2.9,0.4-4.3c1.7-0.1,3.1-1.5,3.1-3.2
					C481.9,228.3,481.4,227.4,480.6,226.8z M491.3,215.3c-1.8,0-3.3,1.5-3.3,3.3c0,1.8,1.5,3.3,3.3,3.3c1.8,0,3.3-1.5,3.3-3.3
					C494.6,216.8,493.1,215.3,491.3,215.3z M532.5,229.4c0-1.8-1.5-3.3-3.3-3.3c-1.8,0-3.3,1.5-3.3,3.3c0,1.8,1.5,3.3,3.3,3.3
					C531.1,232.7,532.5,231.2,532.5,229.4z M532.5,240.2c0-1.8-1.5-3.3-3.3-3.3c-1.8,0-3.3,1.5-3.3,3.3s1.5,3.3,3.3,3.3
					C531.1,243.5,532.5,242,532.5,240.2z M532.5,251c0-1.8-1.5-3.3-3.3-3.3c-1.8,0-3.3,1.5-3.3,3.3c0,1.8,1.5,3.3,3.3,3.3
					C531.1,254.3,532.5,252.8,532.5,251z M519.9,218.6c0-1.8-1.5-3.3-3.3-3.3c-1.8,0-3.3,1.5-3.3,3.3c0,1.8,1.5,3.3,3.3,3.3
					C518.4,221.9,519.9,220.4,519.9,218.6z M519.9,229.4c0-1.8-1.5-3.3-3.3-3.3c-1.8,0-3.3,1.5-3.3,3.3c0,1.8,1.5,3.3,3.3,3.3
					C518.4,232.7,519.9,231.2,519.9,229.4z M519.9,240.2c0-1.8-1.5-3.3-3.3-3.3c-1.8,0-3.3,1.5-3.3,3.3s1.5,3.3,3.3,3.3
					C518.4,243.5,519.9,242,519.9,240.2z M519.9,251c0-1.8-1.5-3.3-3.3-3.3c-1.8,0-3.3,1.5-3.3,3.3c0,1.8,1.5,3.3,3.3,3.3
					C518.4,254.3,519.9,252.8,519.9,251z M507.2,218.6c0-1.8-1.5-3.3-3.3-3.3c-1.8,0-3.3,1.5-3.3,3.3c0,1.8,1.5,3.3,3.3,3.3
					C505.8,221.9,507.2,220.4,507.2,218.6z M507.2,229.4c0-1.8-1.5-3.3-3.3-3.3c-1.8,0-3.3,1.5-3.3,3.3c0,1.8,1.5,3.3,3.3,3.3
					C505.8,232.7,507.2,231.2,507.2,229.4z M507.2,240.2c0-1.8-1.5-3.3-3.3-3.3c-1.8,0-3.3,1.5-3.3,3.3s1.5,3.3,3.3,3.3
					C505.8,243.5,507.2,242,507.2,240.2z M507.2,251c0-1.8-1.5-3.3-3.3-3.3c-1.8,0-3.3,1.5-3.3,3.3c0,1.8,1.5,3.3,3.3,3.3
					C505.8,254.3,507.2,252.8,507.2,251z M494.6,229.4c0-1.8-1.5-3.3-3.3-3.3c-1.8,0-3.3,1.5-3.3,3.3c0,1.8,1.5,3.3,3.3,3.3
					C493.1,232.7,494.6,231.2,494.6,229.4z M494.6,240.2c0-1.8-1.5-3.3-3.3-3.3c-1.8,0-3.3,1.5-3.3,3.3s1.5,3.3,3.3,3.3
					C493.1,243.5,494.6,242,494.6,240.2z M494.6,251c0-1.8-1.5-3.3-3.3-3.3c-1.8,0-3.3,1.5-3.3,3.3c0,1.8,1.5,3.3,3.3,3.3
					C493.1,254.3,494.6,252.8,494.6,251z"/>
				<path fill="#FFFFFF" d="M532.5,341c0-1.8-1.5-3.3-3.3-3.3c-1.8,0-3.3,1.5-3.3,3.3c0,1.8,1.5,3.3,3.3,3.3
					C531.1,344.3,532.5,342.8,532.5,341z M500.9,350.6c-9.3-2.8-16.8-9.6-20.3-17.8c0.8-0.6,1.3-1.5,1.3-2.6c0-1.7-1.4-3.1-3.1-3.3
					c-0.3-1.4-0.4-2.8-0.4-4.3c0.1,0,0.1,0,0.2,0c1.8,0,3.3-1.5,3.3-3.3s-1.5-3.3-3.3-3.3c-0.1,0-0.1,0-0.2,0v-4.3
					c0.1,0,0.1,0,0.2,0c1.8,0,3.3-1.5,3.3-3.3c0-1.8-1.5-3.3-3.3-3.3c-0.1,0-0.1,0-0.2,0V301h63.7v4.3c-0.1,0-0.1,0-0.2,0
					c-1.8,0-3.3,1.5-3.3,3.3c0,1.8,1.5,3.3,3.3,3.3c0.1,0,0.1,0,0.2,0v4.3c-0.1,0-0.1,0-0.2,0c-1.8,0-3.3,1.5-3.3,3.3
					s1.5,3.3,3.3,3.3c0.1,0,0.1,0,0.2,0c0,1.4-0.2,2.9-0.4,4.3c-1.7,0.1-3.1,1.5-3.1,3.3c0,1.1,0.5,2,1.3,2.6
					c-3.5,8.2-11,15-20.3,17.8c-0.5-1.2-1.7-2-3-2c-1.8,0-3.3,1.5-3.3,3.3c-1,0.1-2,0.2-3.1,0.2c-1,0-2-0.1-3-0.2
					c0-1.8-1.5-3.3-3.3-3.3C502.6,348.5,501.4,349.4,500.9,350.6z M488,341c0,1.8,1.5,3.3,3.3,3.3c1.8,0,3.3-1.5,3.3-3.3
					c0-1.8-1.5-3.3-3.3-3.3C489.5,337.7,488,339.2,488,341z M532.5,308.6c0-1.8-1.5-3.3-3.3-3.3c-1.8,0-3.3,1.5-3.3,3.3
					c0,1.8,1.5,3.3,3.3,3.3C531.1,311.9,532.5,310.4,532.5,308.6z M532.5,319.4c0-1.8-1.5-3.3-3.3-3.3c-1.8,0-3.3,1.5-3.3,3.3
					s1.5,3.3,3.3,3.3C531.1,322.7,532.5,321.2,532.5,319.4z M532.5,330.2c0-1.8-1.5-3.3-3.3-3.3c-1.8,0-3.3,1.5-3.3,3.3
					s1.5,3.3,3.3,3.3C531.1,333.5,532.5,332,532.5,330.2z M519.9,308.6c0-1.8-1.5-3.3-3.3-3.3c-1.8,0-3.3,1.5-3.3,3.3
					c0,1.8,1.5,3.3,3.3,3.3C518.4,311.9,519.9,310.4,519.9,308.6z M519.9,319.4c0-1.8-1.5-3.3-3.3-3.3c-1.8,0-3.3,1.5-3.3,3.3
					s1.5,3.3,3.3,3.3C518.4,322.7,519.9,321.2,519.9,319.4z M519.9,330.2c0-1.8-1.5-3.3-3.3-3.3c-1.8,0-3.3,1.5-3.3,3.3
					s1.5,3.3,3.3,3.3C518.4,333.5,519.9,332,519.9,330.2z M519.9,341c0-1.8-1.5-3.3-3.3-3.3c-1.8,0-3.3,1.5-3.3,3.3
					c0,1.8,1.5,3.3,3.3,3.3C518.4,344.3,519.9,342.8,519.9,341z M507.2,308.6c0-1.8-1.5-3.3-3.3-3.3c-1.8,0-3.3,1.5-3.3,3.3
					c0,1.8,1.5,3.3,3.3,3.3C505.8,311.9,507.2,310.4,507.2,308.6z M507.2,319.4c0-1.8-1.5-3.3-3.3-3.3c-1.8,0-3.3,1.5-3.3,3.3
					s1.5,3.3,3.3,3.3C505.8,322.7,507.2,321.2,507.2,319.4z M507.2,330.2c0-1.8-1.5-3.3-3.3-3.3c-1.8,0-3.3,1.5-3.3,3.3
					s1.5,3.3,3.3,3.3C505.8,333.5,507.2,332,507.2,330.2z M507.2,341c0-1.8-1.5-3.3-3.3-3.3c-1.8,0-3.3,1.5-3.3,3.3
					c0,1.8,1.5,3.3,3.3,3.3C505.8,344.3,507.2,342.8,507.2,341z M494.6,308.6c0-1.8-1.5-3.3-3.3-3.3c-1.8,0-3.3,1.5-3.3,3.3
					c0,1.8,1.5,3.3,3.3,3.3C493.1,311.9,494.6,310.4,494.6,308.6z M494.6,319.4c0-1.8-1.5-3.3-3.3-3.3c-1.8,0-3.3,1.5-3.3,3.3
					s1.5,3.3,3.3,3.3C493.1,322.7,494.6,321.2,494.6,319.4z M494.6,330.2c0-1.8-1.5-3.3-3.3-3.3c-1.8,0-3.3,1.5-3.3,3.3
					s1.5,3.3,3.3,3.3C493.1,333.5,494.6,332,494.6,330.2z"/>
				<path fill="#FFFFFF" d="M486.4,274.8c0.4,0,0.5,0.5,0.2,1c-0.2,0.5-0.8,1-1.1,1c-0.4,0-0.5-0.4-0.2-1
					C485.5,275.2,486,274.8,486.4,274.8z"/>
				<path fill="#FFFFFF" d="M486,272.1c3-0.2,5.4,1.8,5.5,4.8c0,0.5,0,1.1-0.1,1.6c-0.6,2.9-3,5.5-6,6.3c-1.2,0.3-2.4,0.3-3.4,0l0,0
					c-0.1-1.4,0.2-2.8,0.8-3.8c0.9-1.6,2.4-1.5,3.2,0.3c0.3,0.7,0.5,1.5,0.5,2.3l0,0c0.3-0.2,0.6-0.3,0.8-0.5c0,0,0,0,0,0
					c-0.3-0.9-0.6-1.8-0.6-2.9c0-1.6,0.6-3.6,2.5-6.3c0,0,0,0,0,0c-0.2-0.2-0.5-0.3-0.7-0.4c-0.6-0.3-1.5-0.5-2.4-0.5
					c-0.3,0-0.6,0-1,0.1c0,0,0,0,0,0h0C485.4,272.7,485.6,272.4,486,272.1z"/>
				<path fill="#FFFFFF" d="M486.6,275.8c0.3-0.5,0.2-1-0.2-1c-0.4,0-0.9,0.4-1.2,1c-0.3,0.5-0.2,1,0.2,1
					C485.8,276.7,486.4,276.3,486.6,275.8z M485,274.2c-2.7,3.3-3.8,7.5-3.7,11.4c0,0,0,0,0,0c-0.8-0.3-1.5-0.9-2-1.6
					s-0.8-1.6-0.9-2.5v0c0-0.1,0-0.2,0-0.4c0-3.3,2.7-6.6,6.1-7.5c1.4-0.3,2.7-0.3,3.8,0.2c0,0,0,0,0,0c-0.2,0.6-0.6,1.4-1,2
					c-0.8,1.2-1.9,1.9-2.5,1.6c-0.6-0.3-0.5-1.4,0.3-2.6c0.2-0.3,0.4-0.5,0.6-0.7c0,0,0,0,0,0l0,0
					C485.5,274.1,485.2,274.1,485,274.2C485,274.2,485,274.2,485,274.2z"/>
				<path fill="#FFFFFF" d="M481.3,285.5c-0.1-3.8,1-8.1,3.7-11.4c0,0,0,0,0,0c0.3-0.1,0.5-0.1,0.8-0.1l0,0c0,0,0,0,0,0
					c-0.2,0.2-0.4,0.5-0.6,0.7c-0.8,1.2-0.9,2.3-0.3,2.6c0.6,0.3,1.8-0.5,2.5-1.6c0.4-0.6,0.8-1.3,1-2c0,0,0,0,0,0l0.2-0.3
					c0.3,0.1,0.5,0.3,0.7,0.4c0,0,0,0,0,0c-1.9,2.7-2.5,4.7-2.5,6.3c0,1.1,0.3,2,0.6,2.9c0,0,0,0,0,0c-0.3,0.2-0.5,0.3-0.8,0.5l0,0
					c0-0.8-0.2-1.6-0.5-2.3c-0.8-1.8-2.2-1.9-3.2-0.3c-0.6,1-0.8,2.4-0.8,3.8l0,0c1,0.3,2.2,0.4,3.4,0c3-0.8,5.4-3.4,6-6.3l2.2,0.4
					l-1,5.4c0,0,0,0,0,0h1.8c0,0,0,0,0,0l0.4-2.3c0.2-1,0.7-2.2,1.9-2.2c0.1,0,0.2,0,0.3,0h0l0.3,0.2c-0.4,0.7-0.6,1.5-0.6,2.3
					c0,1.1,0.5,2.1,1.8,2.1c0.7,0,1.4-0.4,1.7-0.9c0,0,0,0,0,0c0,0,0,0,0,0l-0.1,0.8v0c0,0,0,0,0,0h1.7c0,0,0,0,0,0l0.6-3.2l0.4,0.1
					c0,0.3-0.1,0.5-0.1,0.8c0,1.5,1,2.5,2.6,2.5c0.7,0,1.3-0.1,1.7-0.3c0,0,0,0,0,0l0.3-1.5l0.5,0.1l-0.3,1.6v0h1.8c0,0,0,0,0,0
					l0.6-3.2c0,0,0,0,0,0l1.5,3.3h0h1.9c0,0,0,0,0,0v0l-0.1-0.3l0.1,0c0.4,0.3,1.1,0.5,1.9,0.5c1,0,1.8-0.3,2.3-0.8
					c0.3-0.3,0.5-0.6,0.5-1l0.4,0.1l-0.7,3.5c0,0,0,0,0,0c0,0,0,0,0,0h1.8c0,0,0,0,0,0l0.4-2.3c0.3,0.5,1.4,0.8,2.6,0.1
					c1-0.5,1.7-1.6,1.9-2.8l0.3,0.1c-0.1,0.3-0.1,0.6-0.1,0.9c0,1.1,0.5,2.1,1.8,2.1c0.7,0,1.4-0.4,1.7-0.9c0,0,0,0,0,0c0,0,0,0,0,0
					l-0.1,0.8c0,0,0,0,0,0h1.7c0,0,0,0,0,0l0.6-3.2l0.4,0.1c0,0.3-0.1,0.5-0.1,0.8c0,1.5,1,2.5,2.6,2.5c0.7,0,1.3-0.1,1.7-0.3
					l0.3-1.5l0.4-0.1c0.2,1.2,1.2,1.9,2.6,1.9c0.4,0,1.4-0.1,2.3-0.5c0,0,0,0,0,0l0.1-0.6l0.6,0.1c0,0,0,0.1,0,0.2
					c0,0.4,0.3,0.8,0.7,0.8s0.8-0.4,0.9-0.8h1.4v11.9h-68.1v-14.3h2.2c0,0.1,0,0.2,0,0.4v0c0.1,1,0.4,1.8,0.9,2.5
					S480.5,285.2,481.3,285.5C481.3,285.6,481.3,285.6,481.3,285.5z"/>
				<polygon fill="#FFFFFF" points="477.8,215.6 431,187.9 432.6,199.1 372.5,146.9 419.2,174.7 417.6,163.4 				"/>
				<polygon fill="#FFFFFF" points="471.5,255 425.2,283.5 435.9,287.4 361.8,316.5 408.1,287.9 397.4,284.1 				"/>
				<path fill="#FFFFFF" d="M471.3,232.2l-54.2,4.6l7.8,8.2l-44.3-4.1c0-4.3,0.6-5.2,1-6.4l18.1-1.6l-7.8-8.2L471.3,232.2z"/>
				<path fill="#FFFFFF" d="M384.1,230.7c0.3,1.1-1.8,2.3-2.3,3.7c0,0.1-0.1,0.1-0.1,0.2l-6.3,0.6c-0.5-2.2-1.1-4.3-1.5-5.9
					c-1.7-6.4-17.7-1.6-32.9,2.5c-2.8,0.8-5.2,1.4-7.2,2l-0.9-2.7c3.9-1.4,8.2-2.8,13-4.1c20.4-5.7,29.7-4.5,32.1-5.2
					c2.5-0.7,3.7,0,3.9,1C382.2,223.7,383.8,229.6,384.1,230.7z"/>
				<path fill="#FFFFFF" d="M375.4,235.1l6.3-0.6c-0.4,1.1-1,2.1-1,6.4l-4.3-0.4C376.2,238.7,375.8,236.8,375.4,235.1z"/>
				<path fill="#FFFFFF" d="M376.4,240.5l-30.8-2.9l29.7-2.6C375.8,236.8,376.2,238.7,376.4,240.5z"/>
				<path fill="#FFFFFF" d="M358.6,188.7c-0.7-0.7-1.5-1.5-2.5-2.2l11,4.7l0.7-1.7l-18.3-7.8c-0.5-0.4-1.1-0.7-1.6-1.1l0.5-1.2
					l20,8.5l0.7-1.7l-20.4-8.7l0.7-1.6l20.4,8.7l0.7-1.6c4.6,8.3,3.6,14.4,2.6,16.5c-2.3,4.7-1,9-14.5-1.1c-5.1-1.6-9.9-2.9-14.4-4
					l-4.8-17.7c0,0,0,0,0,0C348.3,181.3,354.5,185.3,358.6,188.7z M360.2,190c1.4,1.3,2.6,2.4,3.4,3.5l2.2,0.9l0.7-1.7L360.2,190z"
					/>
				<path fill="#FFFFFF" d="M348.2,179.1l0.4,0.2l-0.5,1.2c-3.8-2.5-8-5.1-11.7-7.1l0.5-1.2l0.7-1.6l0.7-1.7l-20.4-8.7l0.7-1.6
					l20.4,8.7l0.7-1.7l-20.4-8.7l0.7-1.6l20.4,8.7l0.7-1.7l0.7-1.6l0.7-1.7l-0.2-0.1l0.7-1.6c2.6,1.7,5.2,3.4,7.9,5.3
					c1.2,0.9,2.3,1.7,3.4,2.5l-0.4,0.8l3,1.3c1.5,1.2,2.9,2.4,4.1,3.6l-7.7-3.3l-0.7,1.7l12,5.1c0.9,1,1.7,2,2.5,2.9l-15.1-6.4
					l-0.7,1.7l18,7.7c0.6,0.9,1.1,1.7,1.5,2.5l-20.2-8.6l-0.7,1.7l-0.7,1.6L348.2,179.1z"/>
				<path fill="#FFFFFF" d="M338.9,350c0.1,0.4,0.8,4.6,1.5,7.3c0.3,1.1-0.2,4.1-0.2,5.5c-1.4,1-0.6,0.5-1.7,1.5
					c-0.6,0.5-0.7,1.7-1.2,2c0,0-3.3-0.5-4-0.6c-1.1-0.2-1.1,0-2-0.3c-0.8-1.1-2.2-2.9-2.6-4c-1-2.8-2.3-7.4-2.3-7.4
					s-0.4,3.7,2.6,10.5c-0.1,0-0.3,0-0.4,0c-0.6,0-1.2-0.1-1.8-0.3c-0.9-1.4-1.8-3.1-2.2-4.6c-1-3.4-2.3-9-2.3-9s-1.7,1.8,2.6,12.7
					c-0.6-0.3-1.1-0.5-1.6-0.4c-1.4,0.1-6.2-4.7-7.9-7.6c-1.1-1.8-2.3-9.6-2.3-9.6s0.3-3.3,0.9-3.7c0.3-0.2,7.3-0.8,14.5-2.7
					c7.4-2,14.9-5.3,15.2-5.2c0.7,0.1,2.6,2.8,2.6,2.8s2.2,6.9,2.2,9c0,3.9-0.4,5.1-1.4,9.3c0.1-0.3-0.7,0.9-0.7,0.7
					c0-1.4-3.1-11-3.3-11.6c0.1,0.5,0.9,5.8,1.4,9.4c0.2,1.4,0.4,3,0.3,4.6c-0.6,0.8-1,1.1-1.9,3.1C342.6,360,339.2,350.5,338.9,350
					z"/>
				<path fill="#FFFFFF" d="M337.2,175.6l4.9,18.3c-0.6-0.1-1.3-0.3-1.9-0.4l-5.1-18.8C335.9,175,336.5,175.3,337.2,175.6z"/>
				<path fill="#FFFFFF" d="M333,173.7l5.2,19.3c-0.6-0.1-1.2-0.3-1.9-0.4l-5.3-19.8C331.7,173.1,332.3,173.4,333,173.7z"/>
				<path fill="#FFFFFF" d="M328.9,172l5.4,20.2c-0.6-0.1-1.2-0.2-1.9-0.3l-5.5-20.5C327.6,171.6,328.2,171.8,328.9,172z"/>
				<path fill="#FFFFFF" d="M324.8,170.7l5.6,20.9c-0.6-0.1-1.2-0.2-1.8-0.3l-5.7-21.1C323.5,170.3,324.1,170.5,324.8,170.7z"/>
				<path fill="#FFFFFF" d="M320.8,169.6l5.7,21.3c-0.6-0.1-1.2-0.2-1.8-0.2l-5.8-21.5C319.5,169.3,320.2,169.4,320.8,169.6z"/>
				<path fill="#FFFFFF" d="M316.9,168.8l5.8,21.7c-0.6-0.1-1.2-0.1-1.8-0.2l-5.9-21.8C315.6,168.6,316.2,168.7,316.9,168.8z"/>
				<path fill="#FFFFFF" d="M313,168.2l5.9,21.9c-0.6,0-1.2-0.1-1.8-0.1l-5.9-21.9C311.8,168.1,312.4,168.2,313,168.2z"/>
				<path fill="#FFFFFF" d="M305.5,167.9l5.9,21.9c-0.6,0-1.2,0-1.8,0l-5.9-21.9C304.3,168,304.9,167.9,305.5,167.9z"/>
				<path fill="#FFFFFF" d="M313.4,189.9l-5.9-21.9c0.6,0,1.2,0,1.8,0.1l5.9,21.9C314.5,189.9,313.9,189.9,313.4,189.9z"/>
				<path fill="#FFFFFF" d="M301.9,168.1l5.9,21.8c-0.6,0-1.2,0.1-1.7,0.1l-5.8-21.7C300.7,168.2,301.3,168.2,301.9,168.1z"/>
				<path fill="#FFFFFF" d="M298.3,168.6l5.8,21.6c-0.6,0-1.1,0.1-1.7,0.2l-5.8-21.5C297.1,168.8,297.7,168.7,298.3,168.6z"/>
				<path fill="#FFFFFF" d="M322.7,148.8l20.2,8.6l-0.7,1.6l-20.2-8.6l-0.7,1.7l20.4,8.7l-0.7,1.6l-20.4-8.7l-0.7,1.7l-0.7,1.6
					l-0.7,1.7l-0.7,1.6l-0.7,1.7l20.4,8.7l-0.7,1.6l-20.4-8.7l-0.7,1.7l3.1,1.3c-6.4-1.3-12.2-1.4-17.8-0.8l0.6-1.4l0.7-1.6l0.7-1.7
					l0.7-1.6l0.7-1.7l-20.4-8.7l0.7-1.6l20.4,8.7l0.7-1.7l0.7-1.6l0.7-1.7l-20.1-8.6c1.1-0.2,2.2-0.3,3.4-0.4l17.4,7.4l0.7-1.7
					l-14-6c1.4-0.1,2.9-0.1,4.2,0l10.4,4.4l0.7-1.7l-5.4-2.3c6.5,0.7,12.7,2.4,18.8,4.9L322.7,148.8z"/>
				<path fill="#FFFFFF" d="M294.7,169.2l5.8,21.4c-0.6,0.1-1.1,0.2-1.7,0.3l-5.7-21.3C293.6,169.5,294.2,169.4,294.7,169.2z"/>
				<path fill="#FFFFFF" d="M291.3,170.1l5.7,21.2c-0.6,0.1-1.1,0.2-1.7,0.4l-5.6-21C290.2,170.4,290.7,170.2,291.3,170.1z"/>
				<path fill="#FFFFFF" d="M287.8,171.1l5.6,21c-0.3,0.1-0.5,0.1-0.8,0.2c-0.3,0.1-0.6,0.1-0.8,0.2l-5.6-21
					C286.7,171.3,287.3,171.2,287.8,171.1z"/>
				<path fill="#FFFFFF" d="M284.4,171.9L290,193c-0.5,0.2-1.1,0.4-1.6,0.5l-5.7-21.1C283.3,172.3,283.8,172.1,284.4,171.9z"/>
				<path fill="#FFFFFF" d="M280.9,173l5.7,21.1c-0.5,0.2-1.1,0.4-1.6,0.6l-5.7-21.2C279.9,173.4,280.4,173.2,280.9,173z"/>
				<path fill="#FFFFFF" d="M277.6,174.3l5.7,21.2c-0.5,0.2-1,0.5-1.6,0.7L276,175C276.5,174.7,277,174.5,277.6,174.3z"/>
				<path fill="#FFFFFF" d="M274.2,175.7L280,197c-0.5,0.2-1,0.5-1.6,0.8l-5.7-21.3C273.2,176.2,273.7,176,274.2,175.7z"/>
				<path fill="#FFFFFF" d="M271,177.4l5.7,21.3c-0.5,0.3-1,0.6-1.5,0.9l-5.7-21.3C270,177.9,270.5,177.6,271,177.4z"/>
				<path fill="#FFFFFF" d="M257.5,250.6c8.6-2.2,15.9-3.5,22-4.3l0.4,2.5c-4,0.5-8.3,1.5-15.8,3.6c-15.2,4.1-31.4,7.8-29.7,14.3
					c1.7,6.5,4.7,19.3,12.3,20.9c5.2,1.1,9.8,0.9,15.9-0.4l0.5,2.7c-5.3,1.1-10.3,2-13.9,2.5c-9.8,1.4-11.3-5.7-14.1-10.8
					c-2.8-5.1-3.9-5.5-5-6.4c-1.1-0.9-3.5-0.9-3.8-2c-0.3-1.1-1.9-7-2.1-8c-0.2-1,0.4-2.2,2.9-2.8
					C229.6,261.5,237,255.9,257.5,250.6z"/>
				<path fill="#FFFFFF" d="M267.8,179.2l5.8,21.3c-0.5,0.3-1,0.6-1.5,0.9l-5.7-21.4C266.8,179.8,267.2,179.5,267.8,179.2z"/>
				<path fill="#FFFFFF" d="M264.6,181.2l5.7,21.3c-0.5,0.3-1,0.7-1.5,1l-5.7-21.3C263.6,181.9,264.1,181.6,264.6,181.2z"/>
				<path fill="#FFFFFF" d="M373.9,258.8c-9.2,3.7-27.6,10-39.1,11.1c-11.5,1-12.5-2.7-14.1-4.7c-1.6-2-8-10.9-9.9-13.6
					c-0.7-1-1.6-1.6-2.6-1.9c-1.3-0.1-3-0.2-3.7-0.1c-0.7,0.2-2.1,1.2-3.1,1.9c-0.6,0.7-1.1,1.7-1.2,2.9c-0.3,3.3-1.5,14.2-1.8,16.7
					c-0.3,2.5,0.7,6.3-9.8,11.1c-6.6,3-16.6,5.6-25.5,7.5l-0.5-2.7c2.7-0.6,5.7-1.3,9.2-2.3c11.6-3.1,21.4-6.5,23-11.9
					c1.6-5.3,1.6-15.9,0.6-19.9c-1.1-4-5.8-4.9-11.4-4.7c-1.4,0.1-2.7,0.2-4.1,0.3l-0.4-2.5c5-0.7,9.2-1.1,12.6-1.5
					c5.6-0.6,8.3-0.4,10.9-1c2.6-0.9,4.8-2.3,9.9-4.6c4.9-2.1,11.3-5.1,19.9-8.2l0.9,2.7c-5.2,1.5-8.4,2.7-12,4.6
					c-5,2.6-8.6,5.8-7.6,9.7c1.1,4,6.4,13.1,10.4,16.9c4.1,3.8,14.3,1.9,25.9-1.2c11.6-3.1,17.4-5.1,23.1-10.3
					c3.1-2.8,3.4-7.8,2.7-12.9l4.3,0.4c0,0.4,0,0.9,0,1.4C380.9,248.2,383.1,255.1,373.9,258.8z"/>
				<path fill="#FFFFFF" d="M261.5,183.4l5.7,21.2c-0.5,0.3-1,0.7-1.5,1.1l-5.7-21.1C260.5,184.2,261,183.8,261.5,183.4z"/>
				<path fill="#FFFFFF" d="M258.4,185.9l5.6,21c-0.5,0.4-1,0.7-1.5,1.1l-5.6-20.9C257.5,186.7,258,186.3,258.4,185.9z"/>
				<path fill="#FFFFFF" d="M255.5,188.6l5.6,20.7c-0.5,0.4-1,0.8-1.5,1.2l-5.5-20.5C254.5,189.5,255,189.1,255.5,188.6z"/>
				<path fill="#FFFFFF" d="M252.6,191.6l5.4,20.2c-0.5,0.4-0.9,0.8-1.4,1.2l-5.4-20C251.6,192.6,252.1,192.1,252.6,191.6z"/>
				<path fill="#FFFFFF" d="M249.7,194.8l5.3,19.6c-0.5,0.4-1,0.8-1.4,1.3l-5.2-19.2C248.8,195.9,249.3,195.4,249.7,194.8z"/>
				<path fill="#FFFFFF" d="M285.4,145.8l-0.7,1.7l-0.7,1.6l-0.7,1.7l20.4,8.7l-0.7,1.6l-20.4-8.7l-0.7,1.7l20.4,8.7l-0.7,1.6
					l-20.4-8.7l-0.7,1.7l19.9,8.5c-1.1,0.1-2.1,0.3-3.2,0.5l-17.4-7.4l-0.7,1.7l14.8,6.3c-0.9,0.2-1.9,0.4-2.8,0.6l-12.7-5.4
					l-0.7,1.7l10.4,4.4c-0.5,0.1-0.9,0.2-1.4,0.4c-0.4,0.1-0.8,0.2-1.2,0.4l-8.4-3.6l-0.7,1.7l6.3,2.7c-0.8,0.2-1.6,0.5-2.4,0.8
					l-4.6-2l-0.7,1.7l2.8,1.2c-0.7,0.3-1.5,0.6-2.2,0.9l-1.2-0.5l-0.6,1.3c-7.6,3.5-15.2,8.3-21.8,14.9l-17.6-7.5
					c0.3-0.5,0.6-1,0.9-1.5l17.4,7.4l0.7-1.7l-17.1-7.3c0.3-0.5,0.6-1,0.9-1.5l16.9,7.2l0.7-1.7l-16.6-7.1c0.3-0.5,0.6-1,1-1.4
					l16.2,6.9l0.7-1.7l-15.9-6.8c0.4-0.5,0.7-0.9,1-1.4l15.5,6.6l0.7-1.7l-15-6.4c0.4-0.5,0.7-0.9,1.1-1.4l14.6,6.2l0.7-1.7l-14.1-6
					c0.4-0.5,0.8-0.9,1.2-1.3l13.6,5.8l0.7-1.7l-12.9-5.5c0.4-0.4,0.8-0.9,1.3-1.3l12.3,5.3l0.7-1.7l-11.6-4.9
					c0.5-0.4,0.9-0.8,1.4-1.3l10.9,4.6l0.7-1.7l-10-4.3c0.5-0.4,1-0.8,1.5-1.2l9.2,3.9l0.7-1.7l-8.2-3.5c0.5-0.4,1.1-0.8,1.6-1.2
					l7.2,3.1l0.7-1.7l-6.1-2.6c0.6-0.4,1.2-0.7,1.8-1.1l5,2.1l0.7-1.7l-3.7-1.6c0.6-0.4,1.3-0.7,1.9-1l2.4,1l0.7-1.7l-0.9-0.4
					c3.5-1.6,7.1-3,11.1-4.1v0c0.1,0,0.2-0.1,0.3-0.1c0.1,0,0.2-0.1,0.3-0.1l0,0c2.5-0.6,4.9-1.1,7.3-1.5l-0.6,1.5l20.4,8.7
					l-0.7,1.6L285.4,145.8z"/>
				<path fill="#FFFFFF" d="M247,198.4l5,18.8c-0.5,0.4-0.9,0.9-1.4,1.3l-4.9-18.3C246.1,199.6,246.5,199,247,198.4z"/>
				<path fill="#FFFFFF" d="M250.4,189.8c-0.4,0.4-0.8,0.9-1.2,1.3l-16.8-7.2c0.3-0.5,0.5-1,0.8-1.5L250.4,189.8z"/>
				<path fill="#FFFFFF" d="M231.5,185.6l16.4,7c-0.3,0.4-0.7,0.9-1.1,1.4l-16.2-6.9C230.9,186.6,231.2,186.1,231.5,185.6z"/>
				<path fill="#FFFFFF" d="M229.8,188.8l15.9,6.8c-0.3,0.5-0.6,0.9-1,1.4l-15.7-6.7C229.3,189.8,229.6,189.3,229.8,188.8z"/>
				<path fill="#FFFFFF" d="M228.2,192l15.6,6.6c-0.3,0.5-0.6,1-0.9,1.5l-15.4-6.6C227.7,193,228,192.5,228.2,192z"/>
				<path fill="#FFFFFF" d="M226.7,195.3l15.2,6.5c-0.3,0.5-0.6,1-0.9,1.5l-15.1-6.4c0.1-0.3,0.2-0.6,0.4-0.8
					C226.5,195.7,226.6,195.5,226.7,195.3z"/>
				<path fill="#FFFFFF" d="M240.1,204.9c-0.3,0.5-0.5,1-0.8,1.5l-14.8-6.3c0.2-0.5,0.4-1,0.6-1.6L240.1,204.9z"/>
				<path fill="#FFFFFF" d="M238.4,208.1c-0.3,0.5-0.5,1-0.8,1.5l-14.4-6.1c0.2-0.5,0.4-1.1,0.6-1.6L238.4,208.1z"/>
				<path fill="#FFFFFF" d="M236.8,211.3c-0.2,0.5-0.5,1-0.7,1.5l-14-6c0.2-0.5,0.3-1.1,0.5-1.6L236.8,211.3z"/>
				<path fill="#FFFFFF" d="M235.3,214.5c-0.2,0.5-0.5,1.1-0.7,1.6l-13.5-5.8c0.1-0.5,0.3-1.1,0.5-1.7L235.3,214.5z"/>
				<path fill="#FFFFFF" d="M233.9,217.8c-0.2,0.5-0.4,1.1-0.6,1.6l-13-5.5c0.1-0.6,0.2-1.1,0.3-1.7L233.9,217.8z"/>
				<path fill="#FFFFFF" d="M235.1,236.1c-1.5,6.8-2.6,6.4-8.8,3c-0.7-0.4-1.6-1.1-2.6-2.3l8.8,3.8l0.7-1.7L222,234
					c-0.3-0.7-0.7-1.4-1-2.3l12.6,5.4l0.2-1.9l-13.5-5.9c-0.2-0.6-0.3-1.3-0.4-2l12.1,5.1c-0.2-0.5-0.3-1.3-0.3-2.2l-12-5.1
					c-0.1-0.6-0.1-1.2-0.1-1.9l12.3,5.2c0.8-5,4.3-13.6,12.4-26.3l4.8,17.7c-3.5,3.4-7.2,7.1-11,11.3c-0.8,0.9-1.6,1.5-2.3,2
					C235.6,234.1,235.3,235.1,235.1,236.1z"/>
				<path fill="#FFFFFF" d="M232.7,221.2c-0.2,0.6-0.3,1.1-0.5,1.7l-12.5-5.3c0.1-0.6,0.1-1.1,0.2-1.8L232.7,221.2z"/>
				<path fill="#FFFFFF" d="M232.2,226.7l-12.6-5.4c0-0.6,0-1.2,0.1-1.8l12.3,5.3C231.9,225.6,231.9,226.2,232.2,226.7z"/>
			</g>
			<g>
			</g>
		</g>
	</g>
</g>
</svg>
