<?xml version="1.0" encoding="utf-8"?>
<!-- Generator: Adobe Illustrator 18.1.1, SVG Export Plug-In . SVG Version: 6.00 Build 0)  -->
<svg version="1.1" xmlns="http://www.w3.org/2000/svg" xmlns:xlink="http://www.w3.org/1999/xlink" x="0px" y="0px"
	 viewBox="0 0 1600 800" enable-background="new 0 0 1600 800" xml:space="preserve">
<g id="Layer_2">
	<rect x="0" fill-rule="evenodd" clip-rule="evenodd" fill="#BE1E2D" width="1600" height="800"/>
</g>
<g id="Layer_3">
	<rect y="7.1" opacity="0.4" fill-rule="evenodd" clip-rule="evenodd" fill="#ED1C24" width="1600" height="5.9"/>
	<rect y="22.1" opacity="0.4" fill-rule="evenodd" clip-rule="evenodd" fill="#ED1C24" width="1600" height="5.9"/>
	<rect y="37.1" opacity="0.4" fill-rule="evenodd" clip-rule="evenodd" fill="#ED1C24" width="1600" height="5.9"/>
	<rect y="52.1" opacity="0.4" fill-rule="evenodd" clip-rule="evenodd" fill="#ED1C24" width="1600" height="5.9"/>
	<rect y="67.1" opacity="0.4" fill-rule="evenodd" clip-rule="evenodd" fill="#ED1C24" width="1600" height="5.9"/>
	<rect y="82.1" opacity="0.4" fill-rule="evenodd" clip-rule="evenodd" fill="#ED1C24" width="1600" height="5.9"/>
	<rect y="97.1" opacity="0.4" fill-rule="evenodd" clip-rule="evenodd" fill="#ED1C24" width="1600" height="5.9"/>
	<rect y="112.1" opacity="0.4" fill-rule="evenodd" clip-rule="evenodd" fill="#ED1C24" width="1600" height="5.9"/>
	<rect y="127.1" opacity="0.4" fill-rule="evenodd" clip-rule="evenodd" fill="#ED1C24" width="1600" height="5.9"/>
	<rect y="142.1" opacity="0.4" fill-rule="evenodd" clip-rule="evenodd" fill="#ED1C24" width="1600" height="5.9"/>
	<rect y="157.1" opacity="0.4" fill-rule="evenodd" clip-rule="evenodd" fill="#ED1C24" width="1600" height="5.9"/>
	<rect y="172.1" opacity="0.4" fill-rule="evenodd" clip-rule="evenodd" fill="#ED1C24" width="1600" height="5.9"/>
	<rect y="187.1" opacity="0.4" fill-rule="evenodd" clip-rule="evenodd" fill="#ED1C24" width="1600" height="5.9"/>
	<rect y="202.1" opacity="0.4" fill-rule="evenodd" clip-rule="evenodd" fill="#ED1C24" width="1600" height="5.9"/>
	<rect y="217.1" opacity="0.4" fill-rule="evenodd" clip-rule="evenodd" fill="#ED1C24" width="1600" height="5.9"/>
	<rect y="232.1" opacity="0.4" fill-rule="evenodd" clip-rule="evenodd" fill="#ED1C24" width="1600" height="5.9"/>
	<rect y="247.1" opacity="0.4" fill-rule="evenodd" clip-rule="evenodd" fill="#ED1C24" width="1600" height="5.9"/>
	<rect y="262.1" opacity="0.4" fill-rule="evenodd" clip-rule="evenodd" fill="#ED1C24" width="1600" height="5.9"/>
	<rect y="277.1" opacity="0.4" fill-rule="evenodd" clip-rule="evenodd" fill="#ED1C24" width="1600" height="5.9"/>
	<rect y="292.1" opacity="0.4" fill-rule="evenodd" clip-rule="evenodd" fill="#ED1C24" width="1600" height="5.9"/>
	<rect y="307.1" opacity="0.4" fill-rule="evenodd" clip-rule="evenodd" fill="#ED1C24" width="1600" height="5.9"/>
	<rect y="322.1" opacity="0.4" fill-rule="evenodd" clip-rule="evenodd" fill="#ED1C24" width="1600" height="5.9"/>
	<rect y="337.1" opacity="0.4" fill-rule="evenodd" clip-rule="evenodd" fill="#ED1C24" width="1600" height="5.9"/>
	<rect y="352.1" opacity="0.4" fill-rule="evenodd" clip-rule="evenodd" fill="#ED1C24" width="1600" height="5.9"/>
	<rect y="367.1" opacity="0.4" fill-rule="evenodd" clip-rule="evenodd" fill="#ED1C24" width="1600" height="5.9"/>
	<rect y="382.1" opacity="0.4" fill-rule="evenodd" clip-rule="evenodd" fill="#ED1C24" width="1600" height="5.9"/>
	<rect y="397.1" opacity="0.4" fill-rule="evenodd" clip-rule="evenodd" fill="#ED1C24" width="1600" height="5.9"/>
	<rect y="412.1" opacity="0.4" fill-rule="evenodd" clip-rule="evenodd" fill="#ED1C24" width="1600" height="5.9"/>
	<rect y="427.1" opacity="0.4" fill-rule="evenodd" clip-rule="evenodd" fill="#ED1C24" width="1600" height="5.9"/>
	<rect y="442.1" opacity="0.4" fill-rule="evenodd" clip-rule="evenodd" fill="#ED1C24" width="1600" height="5.9"/>
	<rect y="457.1" opacity="0.4" fill-rule="evenodd" clip-rule="evenodd" fill="#ED1C24" width="1600" height="5.9"/>
	<rect y="472.1" opacity="0.4" fill-rule="evenodd" clip-rule="evenodd" fill="#ED1C24" width="1600" height="5.9"/>
	<rect y="487.1" opacity="0.4" fill-rule="evenodd" clip-rule="evenodd" fill="#ED1C24" width="1600" height="5.9"/>
	<rect y="502.1" opacity="0.4" fill-rule="evenodd" clip-rule="evenodd" fill="#ED1C24" width="1600" height="5.9"/>
	<rect y="517.1" opacity="0.4" fill-rule="evenodd" clip-rule="evenodd" fill="#ED1C24" width="1600" height="5.9"/>
	<rect y="532.1" opacity="0.4" fill-rule="evenodd" clip-rule="evenodd" fill="#ED1C24" width="1600" height="5.9"/>
	<rect y="547.1" opacity="0.4" fill-rule="evenodd" clip-rule="evenodd" fill="#ED1C24" width="1600" height="5.9"/>
	<rect y="562.1" opacity="0.4" fill-rule="evenodd" clip-rule="evenodd" fill="#ED1C24" width="1600" height="5.9"/>
	<rect y="577.1" opacity="0.4" fill-rule="evenodd" clip-rule="evenodd" fill="#ED1C24" width="1600" height="5.9"/>
	<rect y="592.1" opacity="0.4" fill-rule="evenodd" clip-rule="evenodd" fill="#ED1C24" width="1600" height="5.9"/>
	<rect y="607.1" opacity="0.4" fill-rule="evenodd" clip-rule="evenodd" fill="#ED1C24" width="1600" height="5.9"/>
	<rect y="622.1" opacity="0.4" fill-rule="evenodd" clip-rule="evenodd" fill="#ED1C24" width="1600" height="5.9"/>
	<rect y="637.1" opacity="0.4" fill-rule="evenodd" clip-rule="evenodd" fill="#ED1C24" width="1600" height="5.9"/>
	<rect y="652.1" opacity="0.4" fill-rule="evenodd" clip-rule="evenodd" fill="#ED1C24" width="1600" height="5.9"/>
	<rect y="667.1" opacity="0.4" fill-rule="evenodd" clip-rule="evenodd" fill="#ED1C24" width="1600" height="5.9"/>
	<rect y="682.1" opacity="0.4" fill-rule="evenodd" clip-rule="evenodd" fill="#ED1C24" width="1600" height="5.9"/>
	<rect y="697.1" opacity="0.4" fill-rule="evenodd" clip-rule="evenodd" fill="#ED1C24" width="1600" height="5.9"/>
	<rect y="712.1" opacity="0.4" fill-rule="evenodd" clip-rule="evenodd" fill="#ED1C24" width="1600" height="5.9"/>
	<rect y="727.1" opacity="0.4" fill-rule="evenodd" clip-rule="evenodd" fill="#ED1C24" width="1600" height="5.9"/>
	<rect y="742.1" opacity="0.4" fill-rule="evenodd" clip-rule="evenodd" fill="#ED1C24" width="1600" height="5.9"/>
	<rect y="757.1" opacity="0.4" fill-rule="evenodd" clip-rule="evenodd" fill="#ED1C24" width="1600" height="5.9"/>
	<rect y="772.1" opacity="0.4" fill-rule="evenodd" clip-rule="evenodd" fill="#ED1C24" width="1600" height="5.9"/>
	<rect y="787.1" opacity="0.4" fill-rule="evenodd" clip-rule="evenodd" fill="#ED1C24" width="1600" height="5.9"/>
</g>
<g id="Layer_1">
	<g>
		<g>
			<rect x="743.1" y="295.6" fill="#FFFFFF" width="96.3" height="37"/>
			<path fill="#FFFFFF" d="M857.9,308.6v-4.2h-13.3V362c0,24.7-23.9,44.8-53.4,44.8s-53.4-20.1-53.4-44.8v-57.7h-13.3v4.2h-3.4v11.1
				h3.4V362c0,29,26.4,52.9,60,55.7v83.6H763v3.1h-8.4v7.1h73.3v-7.1h-8.4v-3.1h-21.6v-83.6c33.7-2.8,60-26.7,60-55.7v-42.4h3.4
				v-11.1H857.9z"/>
			<path fill="#FFFFFF" d="M836.3,283.8c-0.1,0-0.2,0-0.3,0c-2.6,0-4.6-1.7-4.6-3.9c0-2.1,2.1-3.9,4.6-3.9c0.1,0,0.2,0,0.3,0V271
				c-0.1,0-0.2,0-0.3,0c-2.6,0-4.6-1.7-4.6-3.9c0-2.1,2.1-3.9,4.6-3.9c0.1,0,0.2,0,0.3,0c0-1.7-0.2-3.4-0.6-5.1
				c-2.4-0.1-4.3-1.8-4.3-3.9c0-1.3,0.7-2.4,1.8-3.1c-5-9.7-15.6-17.8-28.7-21.1c-0.7,1.4-2.3,2.4-4.3,2.4c-2.6,0-4.6-1.7-4.6-3.9
				c-1.4-0.1-2.9-0.2-4.3-0.2c-1.5,0-2.9,0.1-4.3,0.2c0,2.1-2.1,3.9-4.6,3.9c-1.9,0-3.6-1-4.3-2.4c-13.1,3.3-23.7,11.4-28.7,21.1
				c1.1,0.7,1.8,1.8,1.8,3.1c0,2.1-1.9,3.7-4.3,3.9c-0.4,1.7-0.6,3.4-0.6,5.1c0.1,0,0.2,0,0.3,0c2.6,0,4.6,1.7,4.6,3.9
				c0,2.1-2.1,3.9-4.6,3.9c-0.1,0-0.2,0-0.3,0v5.1c0.1,0,0.2,0,0.3,0c2.6,0,4.6,1.7,4.6,3.9c0,2.1-2.1,3.9-4.6,3.9
				c-0.1,0-0.2,0-0.3,0v5.1h90.2V283.8z M764.4,283.8c-2.6,0-4.6-1.7-4.6-3.9c0-2.1,2.1-3.9,4.6-3.9c2.6,0,4.6,1.7,4.6,3.9
				C769,282.1,766.9,283.8,764.4,283.8z M764.4,271c-2.6,0-4.6-1.7-4.6-3.9c0-2.1,2.1-3.9,4.6-3.9c2.6,0,4.6,1.7,4.6,3.9
				C769,269.3,766.9,271,764.4,271z M764.4,258.2c-2.6,0-4.6-1.7-4.6-3.9c0-2.1,2.1-3.9,4.6-3.9c2.6,0,4.6,1.7,4.6,3.9
				C769,256.4,766.9,258.2,764.4,258.2z M764.4,245.4c-2.6,0-4.6-1.7-4.6-3.9c0-2.1,2.1-3.9,4.6-3.9c2.6,0,4.6,1.7,4.6,3.9
				C769,243.6,766.9,245.4,764.4,245.4z M782.3,283.8c-2.6,0-4.6-1.7-4.6-3.9c0-2.1,2.1-3.9,4.6-3.9c2.6,0,4.6,1.7,4.6,3.9
				C786.9,282.1,784.8,283.8,782.3,283.8z M782.3,271c-2.6,0-4.6-1.7-4.6-3.9c0-2.1,2.1-3.9,4.6-3.9c2.6,0,4.6,1.7,4.6,3.9
				C786.9,269.3,784.8,271,782.3,271z M782.3,258.2c-2.6,0-4.6-1.7-4.6-3.9c0-2.1,2.1-3.9,4.6-3.9c2.6,0,4.6,1.7,4.6,3.9
				C786.9,256.4,784.8,258.2,782.3,258.2z M782.3,245.4c-2.6,0-4.6-1.7-4.6-3.9c0-2.1,2.1-3.9,4.6-3.9c2.6,0,4.6,1.7,4.6,3.9
				C786.9,243.6,784.8,245.4,782.3,245.4z M800.2,283.8c-2.6,0-4.6-1.7-4.6-3.9c0-2.1,2.1-3.9,4.6-3.9c2.6,0,4.6,1.7,4.6,3.9
				C804.8,282.1,802.8,283.8,800.2,283.8z M800.2,271c-2.6,0-4.6-1.7-4.6-3.9c0-2.1,2.1-3.9,4.6-3.9c2.6,0,4.6,1.7,4.6,3.9
				C804.8,269.3,802.8,271,800.2,271z M800.2,258.2c-2.6,0-4.6-1.7-4.6-3.9c0-2.1,2.1-3.9,4.6-3.9c2.6,0,4.6,1.7,4.6,3.9
				C804.8,256.4,802.8,258.2,800.2,258.2z M800.2,245.4c-2.6,0-4.6-1.7-4.6-3.9c0-2.1,2.1-3.9,4.6-3.9c2.6,0,4.6,1.7,4.6,3.9
				C804.8,243.6,802.8,245.4,800.2,245.4z M818.1,283.8c-2.6,0-4.6-1.7-4.6-3.9c0-2.1,2.1-3.9,4.6-3.9c2.6,0,4.6,1.7,4.6,3.9
				C822.7,282.1,820.7,283.8,818.1,283.8z M818.1,271c-2.6,0-4.6-1.7-4.6-3.9c0-2.1,2.1-3.9,4.6-3.9c2.6,0,4.6,1.7,4.6,3.9
				C822.7,269.3,820.7,271,818.1,271z M818.1,258.2c-2.6,0-4.6-1.7-4.6-3.9c0-2.1,2.1-3.9,4.6-3.9c2.6,0,4.6,1.7,4.6,3.9
				C822.7,256.4,820.7,258.2,818.1,258.2z M818.1,245.4c-2.6,0-4.6-1.7-4.6-3.9c0-2.1,2.1-3.9,4.6-3.9c2.6,0,4.6,1.7,4.6,3.9
				C822.7,243.6,820.7,245.4,818.1,245.4z"/>
			<path fill="#FFFFFF" d="M836,344.5c0.1,0,0.2,0,0.3,0v-5.1h-90.2v5.1c0.1,0,0.2,0,0.3,0c2.6,0,4.6,1.7,4.6,3.9
				c0,2.1-2.1,3.9-4.6,3.9c-0.1,0-0.2,0-0.3,0v5.1c0.1,0,0.2,0,0.3,0c2.6,0,4.6,1.7,4.6,3.9c0,2.1-2.1,3.9-4.6,3.9
				c-0.1,0-0.2,0-0.3,0c0,1.7,0.2,3.4,0.6,5.1c2.4,0.1,4.3,1.8,4.3,3.9c0,1.3-0.7,2.4-1.8,3.1c5,9.7,15.6,17.8,28.7,21.1
				c0.7-1.4,2.3-2.4,4.3-2.4c2.6,0,4.6,1.7,4.6,3.9c1.4,0.1,2.9,0.2,4.3,0.2c1.5,0,2.9-0.1,4.3-0.2c0-2.1,2.1-3.9,4.6-3.9
				c1.9,0,3.6,1,4.3,2.4c13.1-3.3,23.7-11.4,28.7-21.1c-1.1-0.7-1.8-1.8-1.8-3.1c0-2.1,1.9-3.7,4.3-3.9c0.4-1.7,0.6-3.4,0.6-5.1
				c-0.1,0-0.2,0-0.3,0c-2.6,0-4.6-1.7-4.6-3.9c0-2.1,2.1-3.9,4.6-3.9c0.1,0,0.2,0,0.3,0v-5.1c-0.1,0-0.2,0-0.3,0
				c-2.6,0-4.6-1.7-4.6-3.9C831.4,346.2,833.5,344.5,836,344.5z M764.4,390.8c-2.6,0-4.6-1.7-4.6-3.9c0-2.1,2.1-3.9,4.6-3.9
				c2.6,0,4.6,1.7,4.6,3.9C769,389,766.9,390.8,764.4,390.8z M764.4,377.9c-2.6,0-4.6-1.7-4.6-3.9c0-2.1,2.1-3.9,4.6-3.9
				c2.6,0,4.6,1.7,4.6,3.9C769,376.2,766.9,377.9,764.4,377.9z M764.4,365.1c-2.6,0-4.6-1.7-4.6-3.9c0-2.1,2.1-3.9,4.6-3.9
				c2.6,0,4.6,1.7,4.6,3.9C769,363.4,766.9,365.1,764.4,365.1z M764.4,352.3c-2.6,0-4.6-1.7-4.6-3.9c0-2.1,2.1-3.9,4.6-3.9
				c2.6,0,4.6,1.7,4.6,3.9C769,350.5,766.9,352.3,764.4,352.3z M782.3,390.8c-2.6,0-4.6-1.7-4.6-3.9c0-2.1,2.1-3.9,4.6-3.9
				c2.6,0,4.6,1.7,4.6,3.9C786.9,389,784.9,390.8,782.3,390.8z M782.3,377.9c-2.6,0-4.6-1.7-4.6-3.9c0-2.1,2.1-3.9,4.6-3.9
				c2.6,0,4.6,1.7,4.6,3.9C786.9,376.2,784.9,377.9,782.3,377.9z M782.3,365.1c-2.6,0-4.6-1.7-4.6-3.9c0-2.1,2.1-3.9,4.6-3.9
				c2.6,0,4.6,1.7,4.6,3.9C786.9,363.4,784.9,365.1,782.3,365.1z M782.3,352.3c-2.6,0-4.6-1.7-4.6-3.9c0-2.1,2.1-3.9,4.6-3.9
				c2.6,0,4.6,1.7,4.6,3.9C786.9,350.5,784.9,352.3,782.3,352.3z M800.2,390.8c-2.6,0-4.6-1.7-4.6-3.9c0-2.1,2.1-3.9,4.6-3.9
				c2.6,0,4.6,1.7,4.6,3.9C804.8,389,802.8,390.8,800.2,390.8z M800.2,377.9c-2.6,0-4.6-1.7-4.6-3.9c0-2.1,2.1-3.9,4.6-3.9
				c2.6,0,4.6,1.7,4.6,3.9C804.8,376.2,802.8,377.9,800.2,377.9z M800.2,365.1c-2.6,0-4.6-1.7-4.6-3.9c0-2.1,2.1-3.9,4.6-3.9
				c2.6,0,4.6,1.7,4.6,3.9C804.8,363.4,802.8,365.1,800.2,365.1z M800.2,352.3c-2.6,0-4.6-1.7-4.6-3.9c0-2.1,2.1-3.9,4.6-3.9
				c2.6,0,4.6,1.7,4.6,3.9C804.8,350.5,802.8,352.3,800.2,352.3z M818.1,390.8c-2.6,0-4.6-1.7-4.6-3.9c0-2.1,2.1-3.9,4.6-3.9
				c2.6,0,4.6,1.7,4.6,3.9C822.7,389,820.7,390.8,818.1,390.8z M818.1,377.9c-2.6,0-4.6-1.7-4.6-3.9c0-2.1,2.1-3.9,4.6-3.9
				c2.6,0,4.6,1.7,4.6,3.9C822.7,376.2,820.7,377.9,818.1,377.9z M818.1,365.1c-2.6,0-4.6-1.7-4.6-3.9c0-2.1,2.1-3.9,4.6-3.9
				c2.6,0,4.6,1.7,4.6,3.9C822.7,363.4,820.7,365.1,818.1,365.1z M818.1,352.3c-2.6,0-4.6-1.7-4.6-3.9c0-2.1,2.1-3.9,4.6-3.9
				c2.6,0,4.6,1.7,4.6,3.9C822.7,350.5,820.7,352.3,818.1,352.3z"/>
		</g>
		<g>
			<path fill-rule="evenodd" clip-rule="evenodd" fill="#BE1E2D" d="M754.7,309.7c-0.4,0.8-0.2,1.5,0.3,1.5c0.5,0,1.3-0.6,1.6-1.5
				c0.4-0.8,0.2-1.5-0.3-1.5C755.8,308.3,755.1,308.9,754.7,309.7 M759.1,306.8C759.2,306.8,759.2,306.8,759.1,306.8
				C759.2,306.8,759.2,306.8,759.1,306.8c-0.3,1-0.9,2.1-1.4,3c-1.1,1.8-2.7,2.9-3.6,2.5c-0.9-0.4-0.7-2.2,0.5-3.9
				c0.3-0.4,0.5-0.8,0.8-1.1c0,0,0,0,0,0c0,0,0,0,0,0h0c-0.4,0.1-0.7,0.1-1.1,0.2c0,0,0,0,0,0c-3.8,5-5.4,11.4-5.2,17.2c0,0,0,0,0,0
				c0,0,0,0,0,0c-2.2-1-3.9-3.3-4-6.2l0,0c-0.3-5.2,3.6-10.5,8.7-11.9C755.7,306,757.6,306.1,759.1,306.8"/>
			<path fill="#BE1E2D" d="M757.7,320.8c-0.4,0.3-0.8,0.5-1.1,0.8c0,0,0,0,0,0c0,0,0,0,0,0c-0.1-1.2-0.3-2.5-0.8-3.5
				c-1.2-2.7-3.2-2.9-4.5-0.5c-0.8,1.5-1.2,3.6-1.1,5.7c0,0,0,0,0,0c1.4,0.5,3.1,0.5,4.8,0.1c5.1-1.4,8.9-6.7,8.6-11.9
				c-0.2-4.6-3.6-7.5-7.9-7.2c0,0,0,0,0,0c-0.4,0.4-0.8,0.9-1.2,1.4c0,0,0,0,0,0c0,0,0,0,0,0h0c2.5-0.3,4.5,0.2,5.8,1.3c0,0,0,0,0,0
				c0,0,0,0,0,0C755.9,313.7,756.5,317.5,757.7,320.8L757.7,320.8C757.7,320.8,757.7,320.8,757.7,320.8"/>
			<path fill="#BE1E2D" d="M799.5,313.1c1.1,0,1.8,0.2,2.2,0.5c0,0,0,0,0,0l-0.4,2c0,0,0,0,0,0c0,0,0,0,0,0c-0.4-0.2-1.2-0.5-2-0.5
				c-0.7,0-1.1,0.3-1.1,0.8c0,0.4,0.3,0.7,1,1c0.9,0.5,1.9,1.2,1.9,2.5c0,0.9-0.3,1.6-0.8,2.1c-0.7,0.7-1.8,1.1-3.2,1.1
				c-1,0-2.1-0.3-2.6-0.7c0,0,0,0,0,0l0.4-2.1c0,0,0,0,0,0c0,0,0,0,0,0c0.6,0.4,1.7,0.8,2.5,0.8c0.6,0,1.1-0.3,1.1-0.8
				c0-0.5-0.3-0.8-1.1-1.2c-1.2-0.7-1.8-1.5-1.8-2.4C795.7,314.4,797.2,313.1,799.5,313.1"/>
			<path fill="#BE1E2D" d="M771.4,313.1c0.2,0,0.3,0,0.5,0c0,0,0,0,0,0c0,0,0,0,0,0l-0.5,2.7c0,0,0,0,0,0c0,0,0,0,0,0
				c-0.1,0-0.2,0-0.4,0c-1.7,0-2.4,1.8-2.7,3.3l-0.6,3.5c0,0,0,0,0,0h-2.5c0,0,0,0,0,0c0,0,0,0,0,0l1.7-9.3c0,0,0,0,0,0h2.2
				c0,0,0,0,0,0c0,0,0,0,0,0l-0.3,1.6c0,0,0,0,0,0c0,0,0,0,0,0C769.5,313.7,770.4,313.1,771.4,313.1"/>
			<path fill="#BE1E2D" d="M774.8,315.7c-0.7,0.7-1.2,2.1-1.2,3.2c0,1,0.3,1.6,0.9,1.6c0.9,0,1.7-1,2-2.6c0.1-0.3,0.1-0.7,0.2-1
				c0-0.3,0.1-0.6,0.1-0.8c0-0.7-0.3-1-0.9-1C775.5,315.2,775.2,315.4,774.8,315.7 M775.8,322.6
				C775.8,322.5,775.8,322.5,775.8,322.6l0.2-1.2c0,0,0,0,0,0c0,0,0,0,0,0c-0.5,0.9-1.4,1.4-2.4,1.4c-1.7,0-2.5-1.6-2.5-3.2
				c0-1.8,0.7-3.7,1.8-4.9c1-1,2.2-1.6,3.5-1.6c1,0,1.8,0.3,2.3,1c0.7,0.9,0.7,2.3,0.5,3.3l-0.9,5.2c0,0,0,0,0,0L775.8,322.6
				C775.8,322.6,775.8,322.6,775.8,322.6"/>
			<path fill="#BE1E2D" d="M805.5,320.7c1.3,0,2.3-2.1,2.3-3.9c0-0.4-0.1-1.5-1-1.5c-1,0-1.8,1.2-2.1,2.9
				C804.6,318.9,804.3,320.7,805.5,320.7 M807.7,313.1c1.7,0,2.8,1.4,2.8,3.5c0,2.3-1,4.6-2.8,5.6c-1.7,0.9-3.1,0.5-3.6-0.2
				c0,0,0,0,0,0l-0.6,3.5c0,0,0,0,0,0h-2.5c0,0,0,0,0,0c0,0,0,0,0,0l2.2-12.3c0,0,0,0,0,0l2.2,0c0,0,0,0,0,0c0,0,0,0,0,0l-0.2,1.3
				c0,0,0,0,0,0c0,0,0,0,0,0l0,0C805.8,313.6,806.8,313.1,807.7,313.1"/>
			<path fill="#BE1E2D" d="M788.7,310h2.5c0,0,0,0,0,0c0,0,0,0,0,0l-1.3,7.4c0,0,0,0,0,0c0,0,0,0,0,0l3.4-4.2c0,0,0,0,0,0h2.8
				c0,0,0,0,0,0c0,0,0,0,0,0c0,0,0,0,0,0l-3.5,4.2l2.1,5c0,0,0,0,0,0l0,0c0,0,0,0,0,0H792c0,0,0,0,0,0l-2.1-4.9c0,0,0,0,0,0
				c0,0,0,0,0,0l-0.9,4.9c0,0,0,0,0,0h-2.5c0,0,0,0,0,0c0,0,0,0,0,0L788.7,310C788.6,310,788.6,310,788.7,310"/>
			<path fill="#BE1E2D" d="M831.9,315.9c0-0.5-0.4-0.8-0.9-0.8c-1.1,0-1.8,0.9-2,1.8l0,0c0,0,0,0,0,0c0,0,0,0,0,0h0
				c1.5,0,2.3-0.2,2.7-0.5C831.8,316.3,831.9,316.1,831.9,315.9 M831.3,313.1c1.8,0,3,1.1,3,2.8c0,0.8-0.2,1.4-0.7,1.9
				c-0.8,0.9-2.4,1.3-4.9,1.2h0h0l0,0l0,0c0,0.3,0.1,0.6,0.3,0.9c0.3,0.4,0.9,0.7,1.7,0.7c1.1,0,2-0.3,3-0.9c0,0,0,0,0,0
				c0,0,0,0,0,0l-0.4,2.3c0,0,0,0,0,0c-1.2,0.7-2.7,0.7-3.2,0.7c-2.4,0-3.8-1.4-3.8-3.9c0-1.4,0.5-2.9,1.3-3.9
				C828.5,313.7,829.8,313.1,831.3,313.1"/>
			<path fill="#BE1E2D" d="M834.3,321.6c0,0.6,0.3,1,0.9,1c0.5,0,1-0.5,1.1-1c0-0.6-0.3-1-0.9-1C834.8,320.5,834.3,321,834.3,321.6
				 M834.1,321.6c0.1-0.7,0.6-1.2,1.2-1.2c0.6,0,1.1,0.5,1,1.2c-0.1,0.7-0.6,1.2-1.2,1.2C834.5,322.8,834.1,322.2,834.1,321.6
				 M835,320.9C835,320.9,835,320.9,835,320.9l0.3,0h0c0.1,0,0.1,0,0.2,0c0,0,0.1,0,0.1,0c0.1,0,0.2,0.2,0.2,0.3c0,0,0,0.1,0,0.1
				c0,0.2-0.1,0.3-0.4,0.4l0.2,0.6v0v0c0,0,0,0,0,0h-0.2c0,0,0,0,0,0l-0.2-0.5l-0.1,0h0H835l-0.1,0.5c0,0,0,0,0,0h-0.2c0,0,0,0,0,0
				c0,0,0,0,0,0l0.1-0.5v0l0.1-0.4L835,320.9z M835.3,321h-0.1l0,0.3l0,0.3h0.1h0c0.1,0,0.1,0,0.1,0c0,0,0.1,0,0.1,0
				c0.1,0,0.2-0.1,0.2-0.2c0-0.1,0-0.2-0.1-0.2c0,0-0.1,0-0.1,0C835.4,321,835.3,321,835.3,321L835.3,321z"/>
			<path fill="#BE1E2D" d="M814.5,315.7c-0.7,0.7-1.2,2.1-1.2,3.2c0,1,0.3,1.6,0.9,1.6c0.9,0,1.7-1,2-2.6c0.1-0.3,0.1-0.7,0.2-1
				c0-0.3,0.1-0.6,0.1-0.8c0-0.7-0.3-1-0.9-1C815.2,315.2,814.8,315.4,814.5,315.7 M815.5,322.6
				C815.5,322.5,815.5,322.5,815.5,322.6l0.2-1.2c0,0,0,0,0,0c0,0,0,0,0,0c-0.5,0.9-1.4,1.4-2.4,1.4c-1.7,0-2.5-1.6-2.5-3.2
				c0-1.8,0.7-3.7,1.8-4.9c0.9-1,2.2-1.6,3.5-1.6c1,0,1.8,0.3,2.3,1c0.7,0.9,0.7,2.3,0.5,3.3l-0.9,5.2c0,0,0,0,0,0L815.5,322.6
				C815.5,322.6,815.5,322.6,815.5,322.6"/>
			<path fill="#BE1E2D" d="M824.9,313.1c0.6,0,1.3,0.1,1.8,0.3c0,0,0,0,0,0l-0.4,2.2c0,0,0,0,0,0c0,0,0,0,0,0
				c-0.4-0.2-0.9-0.4-1.4-0.4c-1.8,0-2.9,1.7-2.9,3.3c0,1.4,0.9,1.9,1.7,1.9c0.7,0,1.3-0.2,2.1-0.6c0,0,0,0,0,0c0,0,0,0,0,0
				l-0.4,2.3c0,0,0,0,0,0c-0.6,0.3-1.5,0.5-2.5,0.5c-2.2,0-3.7-1.5-3.7-3.8C819.3,315.6,821.7,313.1,824.9,313.1"/>
			<path fill="#BE1E2D" d="M785.2,313.1c0.6,0,1.3,0.1,1.8,0.3c0,0,0,0,0,0l-0.4,2.2c0,0,0,0,0,0c0,0,0,0,0,0
				c-0.4-0.2-0.9-0.4-1.4-0.4c-1.8,0-2.9,1.7-2.9,3.3c0,1.4,0.9,1.9,1.7,1.9c0.7,0,1.3-0.2,2.1-0.6c0,0,0,0,0,0c0,0,0,0,0,0
				l-0.4,2.3c0,0,0,0,0,0c-0.6,0.3-1.5,0.5-2.5,0.5c-2.2,0-3.7-1.5-3.7-3.8C779.6,315.6,782,313.1,785.2,313.1"/>
		</g>
		<g opacity="0.83">
			<polygon fill-rule="evenodd" clip-rule="evenodd" fill="#ED1C24" points="735.3,278.4 630.5,322.4 645.6,328.2 580.2,371.4 
				685,327.4 669.9,321.6 			"/>
			<polygon fill-rule="evenodd" clip-rule="evenodd" fill="#ED1C24" points="735.1,243.9 622.9,232.7 634,245.2 557.4,252.2 
				669.5,263.4 658.4,250.9 			"/>
			<polygon fill-rule="evenodd" clip-rule="evenodd" fill="#ED1C24" points="744.2,218.9 659.1,140 661.4,157 595.2,115 
				680.3,193.9 678.1,176.9 			"/>
			<polygon fill-rule="evenodd" clip-rule="evenodd" fill="#ED1C24" points="773.4,197.6 735.8,84.1 729.9,100.1 691.7,28.7 
				729.3,142.2 735.3,126.2 			"/>
			<polygon fill-rule="evenodd" clip-rule="evenodd" fill="#ED1C24" points="844.5,278.4 949.4,322.4 934.2,328.2 999.7,371.4 
				894.8,327.4 910,321.6 			"/>
			<polygon fill-rule="evenodd" clip-rule="evenodd" fill="#ED1C24" points="844.8,243.9 957,232.7 945.9,245.2 1022.5,252.2 
				910.3,263.4 921.4,250.9 			"/>
			<polygon fill-rule="evenodd" clip-rule="evenodd" fill="#ED1C24" points="835.6,218.9 920.7,140 918.5,157 984.6,115 
				899.5,193.9 901.8,176.9 			"/>
			<polygon fill-rule="evenodd" clip-rule="evenodd" fill="#ED1C24" points="806.4,197.6 844.1,84.1 850,100.1 888.2,28.7 
				850.5,142.2 844.6,126.2 			"/>
		</g>
		<g>
			<path fill="#FFFFFF" d="M1194.2,284.6c-3.1-2-13.9-9.9-43-17.9c-22.1-6.1-38.1-7.3-49.1-8.5c-7.9-0.8-11.7-0.5-15.5-1.3
				c-3.6-1.3-6.8-3.7-14-7.2c-10-4.8-24.5-12.3-46.5-18.9c-28.9-8.6-41.9-7.7-45.6-7.5c-3.6,0.2-6.3,18.2-5.7,20.3
				c0.6,2.1,1.7,3.4,1.4,12.8c-0.3,9.4-3.4,19.3,9.5,25c13,5.7,39,15.4,55.3,16.8c16.3,1.4,17.5-3.5,19.8-6.8
				c2.3-3.3,16.7-23.3,17.9-23.8c2.3-1.7,8.7,0,9.6,2.3c0.9,1.1,3.7,26.5,4.1,30.6c0.4,4.1-0.8,8.9,14,16.4
				c14.8,7.5,41.9,13,55.8,15c13.9,2,15.9-8.2,20-16.5c4.1-8.3,5.7-8.9,7.2-10.4C1191.1,303.7,1198.4,287.2,1194.2,284.6z
				 M1053.3,289.2c-5.4,5.8-18.8,3.2-33.8-1.1c-15-4.3-24.5-7.6-31.8-15.3c-7.3-7.6,0-26.2,2.4-35.9c2.4-9.8,23.2-2.9,42.9,2.7
				c13.1,3.7,18.4,5.6,24.9,9.3c6.5,3.7,11.1,8.4,9.6,14.4C1065.9,269.5,1058.7,283.4,1053.3,289.2z M1165.5,323.9
				c-9.9,2.7-19.7,0.5-34.7-3.8c-15-4.3-27.8-9.2-29.8-17.1c-2-8-1.7-23.9-0.2-29.9c1.5-6,7.7-7.6,15.1-7.4
				c7.3,0.3,12.8,1.5,25.9,5.3c19.7,5.6,40.9,10.8,38.4,20.5C1177.8,301.2,1175.4,321.2,1165.5,323.9z"/>
			<path fill="#FFFFFF" d="M1133.3,351.6c-4.9-7-21.1-11.1-25.2-6.9c-4.1,4.2,0.4,8.4,2.1,7.1c1.7-1.3,10-1,13.3,0.2
				c3.3,1.2,12.1,8.2,7.1,18.4c-5,10.1-15.3,6.6-22.2,2.2c-7-4.4-12-13-24.7-17.8c-11.1-4.2-20.3,0.3-22.5,1.5
				c-1.3-2.2-7.2-11-18.8-13.3c-13.2-2.6-21.6,2.1-29.7,2.2c-8.1,0.1-18.6-2.4-18.2-13.8c0.4-11.5,11.3-12.8,14.7-12.1
				c3.4,0.7,10.7,4.9,11.6,6.9c0.9,2,6.8,0.7,5.2-5.1c-1.6-5.8-17.5-11-25.1-7.5c-7.5,3.5-12.7,6.5-15.8,18.6
				c-3.1,12.2,4.9,32.6,10.7,36.9c5.9,4.4,16.2,8.5,25.1,11.7c8.9,3.2,17.1,4,24.3,2.8c4.7-0.8,8.3-3.2,10.3-4.9
				c0.9,2.5,2.9,6.5,6.6,9.7c5.7,4.9,13.1,8.5,22.4,10.6c9.2,2,20.1,4,27.2,3.3c7.1-0.6,23.5-14.1,26.6-26.2
				C1141.3,364,1138.2,358.6,1133.3,351.6z"/>
			<path fill="#FFFFFF" d="M992.7,219.5c1.7,0.5,3.4-0.6,3.8-2.3c13.9-55.4,67.1-88.5,118.7-73.7c51.6,14.8,82.2,71.9,68.3,127.3
				c-0.4,1.8,0.5,3.6,2.2,4.1c1.7,0.5,3.4-0.6,3.8-2.3c14.8-58.9-17.8-119.7-72.7-135.4c-54.9-15.7-111.5,19.5-126.3,78.4
				C990.1,217.2,991.1,219.1,992.7,219.5z"/>
		</g>
		<g>
			<path fill="#FFFFFF" d="M603.1,228.1c-3.5,1-16.6-0.8-45.5,7.8c-21.9,6.5-36.5,13.8-46.5,18.6c-7.3,3.4-10.4,5.7-14.1,7
				c-3.8,0.8-7.6,0.6-15.4,1.5c-10.9,1.3-26.9,2.7-49,8.8c-29,8-39.6,16.6-43,17.6c-3.5,1-4.5,2.8-4.1,4.3c0.4,1.4,2.6,10.3,3,12
				c0.4,1.7,3.9,1.7,5.4,3.1c1.5,1.4,3.1,1.9,7,9.7c4,7.8,6.1,18.5,19.9,16.4c13.8-2.1,40.9-7.7,55.7-15c14.8-7.3,13.4-13,13.9-16.8
				c0.5-3.8,2.1-20.3,2.6-25.3c0.2-1.9,0.9-3.4,1.8-4.4c1.5-1.1,3.5-2.6,4.4-2.9c1-0.3,3.4-0.1,5.2,0.1c1.3,0.5,2.6,1.3,3.6,2.9
				c2.8,4.1,11.9,17.5,14.1,20.6c2.2,3.1,3.6,8.8,19.9,7.2c16.3-1.6,42.3-11.2,55.3-16.8c13-5.6,9.8-16,9.6-24.8
				c-0.2-8.9,0.9-10.1,1.6-12.1c0.6-2,3.6-3.8,3.2-5.5c-0.4-1.7-2.7-10.6-3-12C608.3,228.2,606.6,227.1,603.1,228.1z M485.4,305.5
				c-2.3,8-16.2,13.3-32.6,17.9c-16.4,4.7-24.9,6.5-35.6,4c-10.7-2.5-14.9-21.9-17.3-31.6c-2.4-9.8,20.6-15.4,42-21.6
				c14.2-4.1,20.2-5.5,28.1-5.9c7.9-0.4,14.6,1,16.1,7.1C487.7,281.5,487.7,297.5,485.4,305.5z M597,276
				c-8.1,7.9-16.3,10.8-32.7,15.5c-16.4,4.7-30.9,7.6-36.6,1.9c-5.8-5.7-13.2-19.6-14.8-25.6c-1.5-6,3.6-10.9,10.7-14.7
				c7.1-3.9,12.9-5.8,27.1-9.9c21.5-6.1,44-13.5,46.5-3.8C599.7,249.1,605.1,268.1,597,276z"/>
			<path fill="#FFFFFF" d="M408.1,202.6l-21.1-9.6c-0.3,0.8-0.6,1.6-0.9,2.4l20.9,9.5C407.3,204.1,407.7,203.4,408.1,202.6z"/>
			<path fill="#FFFFFF" d="M405.7,207.4L385,198c-0.3,0.8-0.6,1.6-0.8,2.4l20.4,9.3C404.9,209,405.3,208.2,405.7,207.4z"/>
			<path fill="#FFFFFF" d="M403.4,212.3l-20.1-9.1c-0.3,0.8-0.5,1.7-0.7,2.5l19.8,9C402.7,213.8,403,213,403.4,212.3z"/>
			<path fill="#FFFFFF" d="M416,188.6l-22.5-10.3c-0.4,0.8-0.7,1.5-1.1,2.3l22.3,10.1C415.1,190,415.6,189.3,416,188.6z"/>
			<path fill="#FFFFFF" d="M413.2,193.2l-22-10c-0.4,0.8-0.7,1.5-1,2.3l21.8,9.9C412.4,194.7,412.8,193.9,413.2,193.2z"/>
			<path fill="#FFFFFF" d="M410.6,197.9l-21.5-9.8c-0.2,0.4-0.3,0.7-0.5,1.1c-0.2,0.4-0.4,0.8-0.5,1.3l21.3,9.7
				C409.8,199.4,410.2,198.6,410.6,197.9z"/>
			<path fill="#FFFFFF" d="M419.1,184.1l-23.2-10.6c-0.4,0.8-0.8,1.5-1.1,2.3l22.9,10.4C418.1,185.4,418.6,184.7,419.1,184.1z"/>
			<path fill="#FFFFFF" d="M396.5,232.7l-17.4-7.9c-0.1,0.9-0.1,1.9-0.1,2.7l17.9,8.2C396.5,234.9,396.4,233.9,396.5,232.7z"/>
			<path fill="#FFFFFF" d="M399.3,222.2l-18.7-8.5c-0.2,0.9-0.3,1.7-0.5,2.6l18.4,8.4C398.7,223.8,399,223,399.3,222.2z"/>
			<path fill="#FFFFFF" d="M397.6,227.3l-18-8.2c-0.1,0.9-0.2,1.8-0.3,2.6l17.7,8C397.1,229,397.3,228.2,397.6,227.3z"/>
			<path fill="#FFFFFF" d="M401.2,217.2l-19.4-8.9c-0.2,0.8-0.4,1.7-0.6,2.5l19.1,8.7C400.6,218.8,400.9,218,401.2,217.2z"/>
			<path fill="#FFFFFF" d="M422.6,179.8l-24.3-11.1c-0.4,0.7-0.8,1.5-1.2,2.3l23.8,10.8C421.4,181.2,422,180.5,422.6,179.8z"/>
			<path fill="#FFFFFF" d="M455.4,155.1l0.8-2l1.7,0.8c1-0.5,2.1-0.9,3.1-1.4l-3.9-1.8l1-2.6l6.5,3c1.1-0.4,2.3-0.8,3.4-1.2l-9-4.1
				l1-2.6l11.9,5.4c0.6-0.2,1.2-0.4,1.8-0.5c0.7-0.2,1.3-0.4,2-0.6l-14.7-6.7l1-2.6l17.9,8.2c1.3-0.3,2.7-0.7,4-1l-21-9.6l1-2.6
				l24.6,11.2c1.5-0.3,3-0.5,4.5-0.7l-28.2-12.9l1-2.6l28.9,13.2l-0.9,2.2c7.9-1,16.1-0.9,25.1,1.1l-4.4-2l1-2.6l28.9,13.2l-0.7,1.8
				c6,3.6,12.9,8,18.9,12.4l25.8,11.8l-1,2.6l-15.6-7.1c1.4,1.2,2.5,2.3,3.5,3.4c-5.8-5.1-14.6-11.2-27.1-18.1c0,0,0,0,0,0l6.7,26.8
				c6.4,1.7,13.2,3.7,20.4,6.1c19.1,15.3,17.4,8.7,20.6,1.6c1.5-3.3,2.9-12.4-3.6-25l-1,2.4l-28.9-13.2l1-2.6l28.6,13
				c-0.7-1.2-1.4-2.5-2.2-3.8l-25.5-11.6l1-2.6l21.4,9.7c-1.1-1.4-2.2-2.9-3.5-4.4l-16.9-7.7l1-2.6l10.9,5c-1.8-1.8-3.7-3.6-5.8-5.4
				l-4.2-1.9l0.5-1.2c-1.5-1.3-3.1-2.5-4.8-3.8c-3.7-2.8-7.4-5.5-11.1-8l-28.5-13l1-2.5c-8.7-3.7-17.5-6.2-26.6-7.3l7.7,3.5l-1,2.6
				l-14.7-6.7c-2,0-4,0-6,0.1l19.8,9l-1,2.6l-24.6-11.2c-1.6,0.2-3.2,0.4-4.8,0.6l28.4,12.9l-1,2.6L473,110.9l0.9-2.3
				c-3.4,0.6-6.8,1.3-10.3,2.2l0,0c-0.1,0-0.3,0.1-0.4,0.1c-0.1,0-0.3,0.1-0.4,0.1l0,0c-5.7,1.7-10.9,3.8-15.8,6.2l1.3,0.6l-1,2.6
				l-3.4-1.6c-0.9,0.5-1.8,1-2.7,1.5l5.2,2.4l-1,2.6l-7.1-3.2c-0.8,0.5-1.7,1.1-2.5,1.7l8.6,3.9l-1,2.6l-10.2-4.7
				c-0.8,0.6-1.5,1.2-2.3,1.7l11.6,5.3l-1,2.6l-13-5.9c-0.7,0.6-1.4,1.2-2.1,1.8l14.2,6.5l-1,2.6l-15.4-7c-0.7,0.6-1.3,1.3-2,1.9
				l16.4,7.5l-1,2.6l-17.4-7.9c-0.6,0.6-1.2,1.3-1.8,2l18.3,8.3l-1,2.6l-19.2-8.7c-0.6,0.7-1.1,1.3-1.7,2l19.9,9.1l-1,2.6l-20.7-9.4
				c-0.5,0.7-1.1,1.4-1.6,2.1l21.3,9.7l-1,2.6l-21.9-10c-0.5,0.7-1,1.4-1.5,2.1l22.4,10.2l-1,2.6l-23-10.5c-0.5,0.7-0.9,1.4-1.4,2.2
				l23.4,10.7l-1,2.6l-23.9-10.9c-0.4,0.7-0.9,1.5-1.3,2.2l24.2,11l-1,2.6L400.9,164c-0.4,0.7-0.8,1.5-1.2,2.2l24.9,11.4
				C433.8,167.7,444.6,160.3,455.4,155.1z M585.8,186.8l-3.1-1.4c-1.1-1.6-2.7-3.3-4.8-5.3l8.9,4L585.8,186.8z M561.9,161.1
				l28.9,13.2l-1,2.6l-28.9-13.2L561.9,161.1z M523.9,120.1l28.9,13.2l-1,2.6l-28.9-13.2L523.9,120.1z M521.9,125.1l28.9,13.2
				l-1,2.6l-28.9-13.2L521.9,125.1z M519.9,130.1l28.9,13.2l-1,2.6l-28.9-13.2L519.9,130.1z M517.9,135.1l28.9,13.2l-1,2.6
				l-28.9-13.2L517.9,135.1z M472.1,113.2l28.9,13.2l-1,2.6L471,115.8L472.1,113.2z M470.1,118.2l28.9,13.2l-1,2.6L469,120.8
				L470.1,118.2z M468.1,123.2l28.9,13.2l-1,2.6L467,125.8L468.1,123.2z"/>
			<path fill="#FFFFFF" d="M527.7,181.2c0.9,0.1,1.7,0.2,2.6,0.4l-8.1-32.3c-0.9-0.2-1.8-0.4-2.7-0.6L527.7,181.2z"/>
			<path fill="#FFFFFF" d="M427.1,219c0.7-0.7,1.3-1.3,2-1.9l-7.5-29.7c-0.6,0.8-1.2,1.6-1.9,2.5L427.1,219z"/>
			<path fill="#FFFFFF" d="M522.3,180.6c0.8,0.1,1.7,0.2,2.6,0.3l-8.2-32.8c-0.9-0.2-1.7-0.3-2.6-0.4L522.3,180.6z"/>
			<path fill="#FFFFFF" d="M516.9,180.1c0.8,0.1,1.7,0.1,2.5,0.2l-8.3-33.1c-0.9-0.1-1.7-0.2-2.6-0.2L516.9,180.1z"/>
			<path fill="#FFFFFF" d="M538.6,183c0.9,0.2,1.7,0.3,2.6,0.5l-7.7-30.5c-0.9-0.4-1.8-0.7-2.8-1L538.6,183z"/>
			<path fill="#FFFFFF" d="M549.7,185.4c0.9,0.2,1.8,0.4,2.7,0.7l-7-27.7c-1-0.5-1.9-1-2.9-1.4L549.7,185.4z"/>
			<path fill="#FFFFFF" d="M544.1,184.1c0.9,0.2,1.8,0.4,2.6,0.6l-7.4-29.3c-0.9-0.4-1.9-0.8-2.8-1.2L544.1,184.1z"/>
			<path fill="#FFFFFF" d="M533.1,182c0.9,0.1,1.7,0.3,2.6,0.5l-7.9-31.5c-0.9-0.3-1.8-0.6-2.7-0.8L533.1,182z"/>
			<path fill="#FFFFFF" d="M511.6,179.9c0.8,0,1.7,0,2.5,0.1l-8.3-33.2c-0.8,0-1.7-0.1-2.5-0.1L511.6,179.9z"/>
			<path fill="#FFFFFF" d="M491.1,181.5c0.8-0.1,1.6-0.3,2.4-0.4l-8.1-32.4c-0.8,0.2-1.6,0.4-2.3,0.6L491.1,181.5z"/>
			<path fill="#FFFFFF" d="M486.1,182.5c0.8-0.2,1.6-0.4,2.4-0.5l-8-32c-0.8,0.2-1.5,0.5-2.3,0.7L486.1,182.5z"/>
			<path fill="#FFFFFF" d="M496.1,180.7c0.8-0.1,1.6-0.2,2.4-0.3l-8.2-32.7c-0.8,0.1-1.6,0.3-2.4,0.4L496.1,180.7z"/>
			<path fill="#FFFFFF" d="M501.2,180.2c0.8-0.1,1.6-0.1,2.5-0.2l-8.3-33c-0.8,0.1-1.6,0.2-2.4,0.3L501.2,180.2z"/>
			<path fill="#FFFFFF" d="M506.4,179.9c0.8,0,1.6,0,2.5,0l-8.3-33.2c-0.8,0-1.6,0.1-2.5,0.1L506.4,179.9z"/>
			<path fill="#FFFFFF" d="M398.9,251.4l-17.9-8.1c0.4,1.2,0.9,2.4,1.4,3.4l16,7.4l-1,2.6l-12.5-5.8c1.3,1.8,2.6,3,3.6,3.5
				c8.7,5.1,10.3,5.6,12.4-4.6c0.3-1.5,0.7-3,0.9-4.4c1-0.7,2.1-1.7,3.3-3c5.5-6.3,10.6-11.9,15.6-17l-6.7-26.7
				c-11.5,19.3-16.5,32.3-17.6,39.8l-17.4-7.9c0,1,0.1,1.9,0.2,2.9l17,7.8c0,1.4,0.1,2.4,0.4,3.3l-17-7.8c0.2,1.1,0.4,2.1,0.6,3.1
				l19.1,8.9L398.9,251.4z"/>
			<path fill="#FFFFFF" d="M471.6,187.4c0.8-0.3,1.5-0.6,2.3-0.9l-8-32c-0.8,0.3-1.5,0.6-2.3,0.9L471.6,187.4z"/>
			<path fill="#FFFFFF" d="M466.9,189.5c0.7-0.4,1.5-0.7,2.2-1.1l-8.1-32.1c-0.7,0.3-1.5,0.7-2.2,1L466.9,189.5z"/>
			<path fill="#FFFFFF" d="M457.6,194.6c0.7-0.4,1.4-0.9,2.2-1.3l-8.1-32.3c-0.7,0.4-1.4,0.8-2.2,1.3L457.6,194.6z"/>
			<path fill="#FFFFFF" d="M462.2,191.9c0.7-0.4,1.5-0.8,2.2-1.2l-8.1-32.2c-0.7,0.4-1.5,0.7-2.2,1.1L462.2,191.9z"/>
			<path fill="#FFFFFF" d="M476.3,185.5c0.8-0.3,1.5-0.5,2.3-0.8l-8-31.8c-0.8,0.2-1.5,0.5-2.3,0.7L476.3,185.5z"/>
			<path fill="#FFFFFF" d="M422.9,223.1c0.7-0.7,1.3-1.3,2-2l-7.1-28.4c-0.6,0.9-1.2,1.8-1.8,2.7L422.9,223.1z"/>
			<path fill="#FFFFFF" d="M481.2,183.9c0.4-0.1,0.8-0.2,1.2-0.4c0.4-0.1,0.8-0.2,1.2-0.3l-8-31.7c-0.8,0.2-1.6,0.4-2.3,0.6
				L481.2,183.9z"/>
			<path fill="#FFFFFF" d="M435.6,211.1c0.7-0.6,1.4-1.2,2-1.8l-7.9-31.3c-0.7,0.7-1.3,1.4-2,2.1L435.6,211.1z"/>
			<path fill="#FFFFFF" d="M439.9,207.4c0.7-0.6,1.4-1.1,2.1-1.7l-8-31.8c-0.7,0.6-1.3,1.2-2,1.9L439.9,207.4z"/>
			<path fill="#FFFFFF" d="M431.3,215c0.7-0.6,1.4-1.2,2-1.9l-7.7-30.6c-0.6,0.7-1.3,1.5-1.9,2.3L431.3,215z"/>
			<path fill="#FFFFFF" d="M448.7,200.6c0.7-0.5,1.4-1,2.1-1.5l-8.1-32.2c-0.7,0.5-1.4,1-2.1,1.6L448.7,200.6z"/>
			<path fill="#FFFFFF" d="M453.1,197.5c0.7-0.5,1.4-0.9,2.1-1.4l-8.1-32.3c-0.7,0.5-1.4,0.9-2.1,1.4L453.1,197.5z"/>
			<path fill="#FFFFFF" d="M444.2,203.9c0.7-0.5,1.4-1.1,2.1-1.6l-8.1-32.1c-0.7,0.6-1.4,1.1-2.1,1.7L444.2,203.9z"/>
			<path fill="#FFFFFF" d="M561.1,415.9c0-3.1-3.1-13.6-3.1-13.6s-2.7-4.1-3.7-4.2c-0.5-0.1-11.1,4.9-21.5,7.9
				c-10.2,2.9-20.2,3.9-20.5,4.2c-0.8,0.6-1.2,5.6-1.2,5.6s1.8,11.8,3.3,14.5c2.4,4.3,9.2,11.6,11.1,11.4c0.7-0.1,1.5,0.3,2.3,0.7
				c-6.1-16.6-3.7-19.2-3.7-19.2s1.9,8.4,3.3,13.6c0.6,2.2,1.9,4.7,3.2,6.9c0.8,0.3,1.6,0.4,2.5,0.4c0.2,0,0.4,0,0.6,0
				c-4.3-10.4-3.7-15.9-3.7-15.9s1.9,7,3.3,11.2c0.5,1.6,2.6,4.4,3.7,6c1.3,0.4,1.3,0.1,2.9,0.4c1.1,0.2,5.7,1,5.7,1
				c0.8-0.5,0.9-2.3,1.7-3.1c1.7-1.5,0.4-0.8,2.5-2.3c0.1-2,0.7-6.6,0.3-8.3c-1-4.4-2.1-11.1-2.1-11.1s5.2,15.1,5.2,17.4
				c1.2-3,1.8-3.4,2.7-4.6c0.2-2.5-0.2-4.8-0.4-6.9c-0.7-5.8-1.9-14.3-1.9-14.3s4.8,15.4,4.7,17.6c0,0.3,1.1-1.5,1-1.1
				C560.6,423.5,561.1,421.8,561.1,415.9z"/>
		</g>
	</g>
</g>
</svg>
